<?xml version="1.0" encoding="utf-8"?>
<svg version="1.1" xmlns:xlink="http://www.w3.org/1999/xlink" width="12px" height="12px" viewBox="1732 232  12 12" xmlns="http://www.w3.org/2000/svg">
  <path d="M 1738 232  C 1741.36 232  1744 234.64  1744 238  C 1744 241.36  1741.36 244  1738 244  C 1734.64 244  1732 241.36  1732 238  C 1732 234.64  1734.64 232  1738 232  Z " fill-rule="nonzero" fill="#ffffff" stroke="none" />
  <path d="M 1738 232.5  C 1741.08 232.5  1743.5 234.92  1743.5 238  C 1743.5 241.08  1741.08 243.5  1738 243.5  C 1734.92 243.5  1732.5 241.08  1732.5 238  C 1732.5 234.92  1734.92 232.5  1738 232.5  Z " stroke-width="1" stroke="#797979" fill="none" />
  <path d="M 1738 241  C 1736.32 241  1735 239.68  1735 238  C 1735 236.32  1736.32 235  1738 235  C 1739.68 235  1741 236.32  1741 238  C 1741 239.68  1739.68 241  1738 241  " fill-rule="nonzero" fill="#797979" stroke="none" />
</svg>