<?xml version="1.0" encoding="utf-8"?>
<svg version="1.1" xmlns:xlink="http://www.w3.org/1999/xlink" width="12px" height="12px" viewBox="1832 232  12 12" xmlns="http://www.w3.org/2000/svg">
  <path d="M 1838 232  C 1841.36 232  1844 234.64  1844 238  C 1844 241.36  1841.36 244  1838 244  C 1834.64 244  1832 241.36  1832 238  C 1832 234.64  1834.64 232  1838 232  Z " fill-rule="nonzero" fill="#ffffff" stroke="none" />
  <path d="M 1838 232.5  C 1841.08 232.5  1843.5 234.92  1843.5 238  C 1843.5 241.08  1841.08 243.5  1838 243.5  C 1834.92 243.5  1832.5 241.08  1832.5 238  C 1832.5 234.92  1834.92 232.5  1838 232.5  Z " stroke-width="1" stroke="#797979" fill="none" />
  <path d="M 1838 241  C 1836.32 241  1835 239.68  1835 238  C 1835 236.32  1836.32 235  1838 235  C 1839.68 235  1841 236.32  1841 238  C 1841 239.68  1839.68 241  1838 241  " fill-rule="nonzero" fill="#797979" stroke="none" />
</svg>