<?xml version="1.0" encoding="utf-8"?>
<svg version="1.1" xmlns:xlink="http://www.w3.org/1999/xlink" width="45px" height="45px" xmlns="http://www.w3.org/2000/svg">
  <g transform="matrix(1 0 0 1 -8 -295 )">
    <path d="M 30.5 295  C 43.1 295  53 304.9  53 317.5  C 53 330.1  43.1 340  30.5 340  C 17.9 340  8 330.1  8 317.5  C 8 304.9  17.9 295  30.5 295  Z " fill-rule="nonzero" fill="#ffffff" stroke="none" />
    <path d="M 30.5 295.5  C 42.82 295.5  52.5 305.18  52.5 317.5  C 52.5 329.82  42.82 339.5  30.5 339.5  C 18.18 339.5  8.5 329.82  8.5 317.5  C 8.5 305.18  18.18 295.5  30.5 295.5  Z " stroke-width="1" stroke="#1a99dc" fill="none" />
  </g>
</svg>