<?xml version="1.0" encoding="utf-8"?>
<svg version="1.1" xmlns:xlink="http://www.w3.org/1999/xlink" width="12px" height="12px" viewBox="214 234  12 12" xmlns="http://www.w3.org/2000/svg">
  <path d="M 220 234  C 223.36 234  226 236.64  226 240  C 226 243.36  223.36 246  220 246  C 216.64 246  214 243.36  214 240  C 214 236.64  216.64 234  220 234  Z " fill-rule="nonzero" fill="#ffffff" stroke="none" />
  <path d="M 220 234.5  C 223.08 234.5  225.5 236.92  225.5 240  C 225.5 243.08  223.08 245.5  220 245.5  C 216.92 245.5  214.5 243.08  214.5 240  C 214.5 236.92  216.92 234.5  220 234.5  Z " stroke-width="1" stroke="#797979" fill="none" />
  <path d="M 220 243  C 218.32 243  217 241.68  217 240  C 217 238.32  218.32 237  220 237  C 221.68 237  223 238.32  223 240  C 223 241.68  221.68 243  220 243  " fill-rule="nonzero" fill="#797979" stroke="none" />
</svg>