<?xml version="1.0" encoding="utf-8"?>
<svg version="1.1" xmlns:xlink="http://www.w3.org/1999/xlink" width="12px" height="12px" viewBox="114 234  12 12" xmlns="http://www.w3.org/2000/svg">
  <path d="M 120 234  C 123.36 234  126 236.64  126 240  C 126 243.36  123.36 246  120 246  C 116.64 246  114 243.36  114 240  C 114 236.64  116.64 234  120 234  Z " fill-rule="nonzero" fill="#ffffff" stroke="none" />
  <path d="M 120 234.5  C 123.08 234.5  125.5 236.92  125.5 240  C 125.5 243.08  123.08 245.5  120 245.5  C 116.92 245.5  114.5 243.08  114.5 240  C 114.5 236.92  116.92 234.5  120 234.5  Z " stroke-width="1" stroke="#797979" fill="none" />
  <path d="M 120 243  C 118.32 243  117 241.68  117 240  C 117 238.32  118.32 237  120 237  C 121.68 237  123 238.32  123 240  C 123 241.68  121.68 243  120 243  " fill-rule="nonzero" fill="#797979" stroke="none" />
</svg>