<?xml version="1.0" encoding="utf-8"?>
<svg version="1.1" xmlns:xlink="http://www.w3.org/1999/xlink" width="20px" height="20px" xmlns="http://www.w3.org/2000/svg">
  <g transform="matrix(1 0 0 1 -20 -135 )">
    <path d="M 30 135  C 35.6 135  40 139.4  40 145  C 40 150.6  35.6 155  30 155  C 24.4 155  20 150.6  20 145  C 20 139.4  24.4 135  30 135  Z " fill-rule="nonzero" fill="#ffffff" stroke="none" />
    <path d="M 30 135.5  C 35.32 135.5  39.5 139.68  39.5 145  C 39.5 150.32  35.32 154.5  30 154.5  C 24.68 154.5  20.5 150.32  20.5 145  C 20.5 139.68  24.68 135.5  30 135.5  Z " stroke-width="1" stroke="#797979" fill="none" />
  </g>
</svg>