<?xml version="1.0" encoding="utf-8"?>
<svg version="1.1" xmlns:xlink="http://www.w3.org/1999/xlink" width="31px" height="31px" xmlns="http://www.w3.org/2000/svg">
  <g transform="matrix(1 0 0 1 -1257 -120 )">
    <path d="M 30.9339488636364 24.0205965909091  C 30.9779829545455 24.1233428030303  31 24.2774621212121  31 24.4829545454545  C 31 24.8792613636364  30.9266098484849 25.3966619318182  30.7798295454545 26.03515625  C 30.6330492424242 26.6736505681818  30.4789299242424 27.1763731060606  30.3174715909091 27.5433238636364  C 30.0092329545455 28.2772253787879  29.1138731060606 29.0551609848485  27.6313920454545 29.8771306818182  C 26.2516571969697 30.6257102272727  24.8866003787879 31  23.5362215909091 31  C 23.1399147727273 31  22.750946969697 30.9743134469697  22.3693181818182 30.9229403409091  C 21.9876893939394 30.8715672348485  21.5656960227273 30.7798295454545  21.1033380681818 30.6477272727273  C 20.6409801136364 30.515625  20.2960464015152 30.409209280303  20.0685369318182 30.3284801136364  C 19.8410274621212 30.2477509469697  19.4337121212121 30.0973011363636  18.8465909090909 29.8771306818182  C 18.2594696969697 29.6569602272727  17.8998579545455 29.5248579545455  17.7677556818182 29.4808238636364  C 16.3293087121212 28.9670928030303  15.0449810606061 28.3579545454545  13.9147727272727 27.6534090909091  C 12.0506628787879 26.4938446969697  10.1131628787879 24.9086174242424  8.10227272727273 22.8977272727273  C 6.09138257575758 20.8868371212121  4.5061553030303 18.9493371212121  3.34659090909091 17.0852272727273  C 2.64204545454545 15.9550189393939  2.0329071969697 14.6706912878788  1.51917613636364 13.2322443181818  C 1.47514204545455 13.1001420454545  1.34303977272727 12.7405303030303  1.12286931818182 12.1534090909091  C 0.902698863636364 11.5662878787879  0.752249053030303 11.1589725378788  0.671519886363636 10.9314630681818  C 0.59079071969697 10.7039535984848  0.484375 10.3590198863636  0.352272727272727 9.89666193181818  C 0.220170454545455 9.43430397727272  0.128432765151515 9.0123106060606  0.0770596590909091 8.63068181818182  C 0.025686553030303 8.24905303030303  0 7.86008522727273  0 7.46377840909091  C 0 6.11339962121212  0.374289772727273 4.7483428030303  1.12286931818182 3.36860795454545  C 1.94483901515152 1.88612689393939  2.72277462121212 0.990767045454546  3.45667613636364 0.682528409090908  C 3.82362689393939 0.521070075757573  4.32634943181818 0.366950757575754  4.96484375 0.220170454545454  C 5.60333806818182 0.0733901515151502  6.12073863636364 0  6.51704545454546 0  C 6.72253787878788 0  6.8766571969697 0.0220170454545461  6.97940340909091 0.0660511363636348  C 7.24360795454546 0.154119318181819  7.63257575757576 0.711884469696969  8.14630681818182 1.73934659090909  C 8.30776515151515 2.01822916666666  8.52793560606061 2.41453598484848  8.80681818181818 2.92826704545455  C 9.08570075757576 3.4419981060606  9.34256628787879 3.90802556818182  9.57741477272727 4.32634943181818  C 9.81226325757576 4.74467329545455  10.0397727272727 5.1373106060606  10.2599431818182 5.50426136363637  C 10.3039772727273 5.56297348484848  10.4324100378788 5.74644886363637  10.6452414772727 6.0546875  C 10.8580729166667 6.36292613636363  11.0158617424242 6.62346117424242  11.1186079545455 6.83629261363637  C 11.2213541666667 7.0491240530303  11.2727272727273 7.25828598484848  11.2727272727273 7.46377840909091  C 11.2727272727273 7.75733901515151  11.0635653409091 8.12428977272727  10.6452414772727 8.56463068181818  C 10.2269176136364 9.00497159090909  9.77189867424243 9.40861742424242  9.28018465909091 9.77556818181818  C 8.78847064393939 10.1425189393939  8.33345170454545 10.5314867424242  7.91512784090909 10.9424715909091  C 7.49680397727273 11.3534564393939  7.28764204545455 11.6910511363636  7.28764204545455 11.9552556818182  C 7.28764204545455 12.0873579545455  7.32433712121212 12.2524857954545  7.39772727272727 12.4506392045455  C 7.47111742424242 12.6487926136364  7.5334990530303 12.7992424242424  7.58487215909091 12.9019886363636  C 7.63624526515152 13.0047348484848  7.73899147727273 13.1808712121212  7.89311079545455 13.4303977272727  C 8.04723011363636 13.6799242424242  8.13162878787879 13.819365530303  8.14630681818182 13.8487215909091  C 9.26183712121212 15.8596117424242  10.5388257575758 17.5842803030303  11.9772727272727 19.0227272727273  C 13.4157196969697 20.4611742424242  15.1403882575758 21.7381628787879  17.1512784090909 22.8536931818182  C 17.180634469697 22.8683712121212  17.3200757575758 22.9527698863636  17.5696022727273 23.1068892045455  C 17.8191287878788 23.2610085227273  17.9952651515152 23.3637547348485  18.0980113636364 23.4151278409091  C 18.2007575757576 23.4665009469697  18.3512073863636 23.5288825757576  18.5493607954545 23.6022727272727  C 18.7475142045455 23.6756628787879  18.9126420454545 23.7123579545455  19.0447443181818 23.7123579545455  C 19.3089488636364 23.7123579545455  19.6465435606061 23.5031960227273  20.0575284090909 23.0848721590909  C 20.4685132575758 22.6665482954545  20.8574810606061 22.2115293560606  21.2244318181818 21.7198153409091  C 21.5913825757576 21.2281013257576  21.9950284090909 20.7730823863636  22.4353693181818 20.3547585227273  C 22.8757102272727 19.9364346590909  23.2426609848485 19.7272727272727  23.5362215909091 19.7272727272727  C 23.7417140151515 19.7272727272727  23.9508759469697 19.7786458333333  24.1637073863636 19.8813920454545  C 24.3765388257576 19.9841382575758  24.6370738636364 20.1419270833333  24.9453125 20.3547585227273  C 25.2535511363636 20.5675899621212  25.4370265151515 20.6960227272727  25.4957386363636 20.7400568181818  C 25.8626893939394 20.9602272727273  26.2553267045455 21.1877367424242  26.6736505681818 21.4225852272727  C 27.0919744318182 21.6574337121212  27.5580018939394 21.9142992424242  28.0717329545455 22.1931818181818  C 28.5854640151515 22.4720643939394  28.9817708333333 22.6922348484848  29.2606534090909 22.8536931818182  C 30.288115530303 23.3674242424242  30.8458806818182 23.7563920454545  30.9339488636364 24.0205965909091  Z " fill-rule="nonzero" fill="#000000" stroke="none" transform="matrix(1 0 0 1 1257 120 )" />
  </g>
</svg>