<?xml version="1.0" encoding="utf-8"?>
<svg version="1.1" xmlns:xlink="http://www.w3.org/1999/xlink" width="12px" height="12px" viewBox="2274 932  12 12" xmlns="http://www.w3.org/2000/svg">
  <path d="M 2280 932  C 2283.36 932  2286 934.64  2286 938  C 2286 941.36  2283.36 944  2280 944  C 2276.64 944  2274 941.36  2274 938  C 2274 934.64  2276.64 932  2280 932  Z " fill-rule="nonzero" fill="#f0f0f0" stroke="none" />
  <path d="M 2280 932.5  C 2283.08 932.5  2285.5 934.92  2285.5 938  C 2285.5 941.08  2283.08 943.5  2280 943.5  C 2276.92 943.5  2274.5 941.08  2274.5 938  C 2274.5 934.92  2276.92 932.5  2280 932.5  Z " stroke-width="1" stroke="#797979" fill="none" />
  <path d="M 2280 941  C 2278.32 941  2277 939.68  2277 938  C 2277 936.32  2278.32 935  2280 935  C 2281.68 935  2283 936.32  2283 938  C 2283 939.68  2281.68 941  2280 941  " fill-rule="nonzero" fill="#797979" stroke="none" />
</svg>