<?xml version="1.0" encoding="utf-8"?>
<svg version="1.1" xmlns:xlink="http://www.w3.org/1999/xlink" width="12px" height="12px" viewBox="2388 932  12 12" xmlns="http://www.w3.org/2000/svg">
  <path d="M 2394 932  C 2397.36 932  2400 934.64  2400 938  C 2400 941.36  2397.36 944  2394 944  C 2390.64 944  2388 941.36  2388 938  C 2388 934.64  2390.64 932  2394 932  Z " fill-rule="nonzero" fill="#f0f0f0" stroke="none" />
  <path d="M 2394 932.5  C 2397.08 932.5  2399.5 934.92  2399.5 938  C 2399.5 941.08  2397.08 943.5  2394 943.5  C 2390.92 943.5  2388.5 941.08  2388.5 938  C 2388.5 934.92  2390.92 932.5  2394 932.5  Z " stroke-width="1" stroke="#797979" fill="none" />
  <path d="M 2394 941  C 2392.32 941  2391 939.68  2391 938  C 2391 936.32  2392.32 935  2394 935  C 2395.68 935  2397 936.32  2397 938  C 2397 939.68  2395.68 941  2394 941  " fill-rule="nonzero" fill="#797979" stroke="none" />
</svg>