<?xml version="1.0" encoding="utf-8"?>
<svg version="1.1" xmlns:xlink="http://www.w3.org/1999/xlink" width="12px" height="12px" viewBox="2274 977  12 12" xmlns="http://www.w3.org/2000/svg">
  <path d="M 2280 977  C 2283.36 977  2286 979.64  2286 983  C 2286 986.36  2283.36 989  2280 989  C 2276.64 989  2274 986.36  2274 983  C 2274 979.64  2276.64 977  2280 977  Z " fill-rule="nonzero" fill="#f0f0f0" stroke="none" />
  <path d="M 2280 977.5  C 2283.08 977.5  2285.5 979.92  2285.5 983  C 2285.5 986.08  2283.08 988.5  2280 988.5  C 2276.92 988.5  2274.5 986.08  2274.5 983  C 2274.5 979.92  2276.92 977.5  2280 977.5  Z " stroke-width="1" stroke="#797979" fill="none" />
  <path d="M 2280 986  C 2278.32 986  2277 984.68  2277 983  C 2277 981.32  2278.32 980  2280 980  C 2281.68 980  2283 981.32  2283 983  C 2283 984.68  2281.68 986  2280 986  " fill-rule="nonzero" fill="#797979" stroke="none" />
</svg>