<?xml version="1.0" encoding="utf-8"?>
<svg version="1.1" xmlns:xlink="http://www.w3.org/1999/xlink" width="12px" height="12px" viewBox="2388 1239  12 12" xmlns="http://www.w3.org/2000/svg">
  <path d="M 2394 1239  C 2397.36 1239  2400 1241.64  2400 1245  C 2400 1248.36  2397.36 1251  2394 1251  C 2390.64 1251  2388 1248.36  2388 1245  C 2388 1241.64  2390.64 1239  2394 1239  Z " fill-rule="nonzero" fill="#f0f0f0" stroke="none" />
  <path d="M 2394 1239.5  C 2397.08 1239.5  2399.5 1241.92  2399.5 1245  C 2399.5 1248.08  2397.08 1250.5  2394 1250.5  C 2390.92 1250.5  2388.5 1248.08  2388.5 1245  C 2388.5 1241.92  2390.92 1239.5  2394 1239.5  Z " stroke-width="1" stroke="#797979" fill="none" />
  <path d="M 2394 1248  C 2392.32 1248  2391 1246.68  2391 1245  C 2391 1243.32  2392.32 1242  2394 1242  C 2395.68 1242  2397 1243.32  2397 1245  C 2397 1246.68  2395.68 1248  2394 1248  " fill-rule="nonzero" fill="#797979" stroke="none" />
</svg>