<?xml version="1.0" encoding="utf-8"?>
<svg version="1.1" xmlns:xlink="http://www.w3.org/1999/xlink" width="12px" height="12px" viewBox="2274 1152  12 12" xmlns="http://www.w3.org/2000/svg">
  <path d="M 2280 1152  C 2283.36 1152  2286 1154.64  2286 1158  C 2286 1161.36  2283.36 1164  2280 1164  C 2276.64 1164  2274 1161.36  2274 1158  C 2274 1154.64  2276.64 1152  2280 1152  Z " fill-rule="nonzero" fill="#ffffff" stroke="none" />
  <path d="M 2280 1152.5  C 2283.08 1152.5  2285.5 1154.92  2285.5 1158  C 2285.5 1161.08  2283.08 1163.5  2280 1163.5  C 2276.92 1163.5  2274.5 1161.08  2274.5 1158  C 2274.5 1154.92  2276.92 1152.5  2280 1152.5  Z " stroke-width="1" stroke="#797979" fill="none" />
  <path d="M 2280 1161  C 2278.32 1161  2277 1159.68  2277 1158  C 2277 1156.32  2278.32 1155  2280 1155  C 2281.68 1155  2283 1156.32  2283 1158  C 2283 1159.68  2281.68 1161  2280 1161  " fill-rule="nonzero" fill="#797979" stroke="none" />
</svg>