<?xml version="1.0" encoding="utf-8"?>
<svg version="1.1" xmlns:xlink="http://www.w3.org/1999/xlink" width="12px" height="12px" viewBox="2494 1194  12 12" xmlns="http://www.w3.org/2000/svg">
  <path d="M 2500 1194  C 2503.36 1194  2506 1196.64  2506 1200  C 2506 1203.36  2503.36 1206  2500 1206  C 2496.64 1206  2494 1203.36  2494 1200  C 2494 1196.64  2496.64 1194  2500 1194  Z " fill-rule="nonzero" fill="#ffffff" stroke="none" />
  <path d="M 2500 1194.5  C 2503.08 1194.5  2505.5 1196.92  2505.5 1200  C 2505.5 1203.08  2503.08 1205.5  2500 1205.5  C 2496.92 1205.5  2494.5 1203.08  2494.5 1200  C 2494.5 1196.92  2496.92 1194.5  2500 1194.5  Z " stroke-width="1" stroke="#797979" fill="none" />
  <path d="M 2500 1203  C 2498.32 1203  2497 1201.68  2497 1200  C 2497 1198.32  2498.32 1197  2500 1197  C 2501.68 1197  2503 1198.32  2503 1200  C 2503 1201.68  2501.68 1203  2500 1203  " fill-rule="nonzero" fill="#797979" stroke="none" />
</svg>