<?xml version="1.0" encoding="utf-8"?>
<svg version="1.1" xmlns:xlink="http://www.w3.org/1999/xlink" width="15px" height="11px" xmlns="http://www.w3.org/2000/svg">
  <g transform="matrix(1 0 0 1 -426 -251 )">
    <path d="M 13.4160367862372 9.72822565885798  L 7.86795845534407 5.65938323572474  L 13.4158720717423 1.5905508784773  C 13.6963627268257 1.38328469427664  13.6963627268257 1.04890509342467  13.4158720717423 0.841638909224011  L 13.3854410688141 0.819322840409955  C 13.1027090044525 0.61368691323094  12.6467648242445 0.61368691323094  12.3640327598829 0.819322840409955  L 6.81577598828697 4.89328879941435  L 1.2673682284041 0.817611639824304  C 0.98469554959472 0.611984315548212  0.52879731277717 0.611984315548212  0.24612463396779 0.817611639824304  L 0.215693631039532 0.83992770863836  C 0.0778277964081121 0.938306775474439  5.57296166146332E-05 1.07338184412186  5.57296166146332E-05 1.21444912152269  C 5.57296166146332E-05 1.35551639892353  0.0778277964081121 1.49059146757095  0.215693631039532 1.58897053440703  L 5.7641013909224 5.65938323572474  L 0.215693631039532 9.72821559297218  C -0.0647163430837589 9.93551007358262  -0.0647163430837575 10.2698431475008  0.215693631039532 10.4771376281113  L 0.24612463396779 10.4994536969253  C 0.528760339695963 10.7051468439865  0.984732522675928 10.7051468439865  1.2673682284041 10.4994536969253  L 6.81577598828697 6.43062133967789  L 12.3641837481698 10.4994536969253  C 12.6468773840896 10.7051675727691  13.1029121473892 10.7051675727691  13.3856057833089 10.4994536969253  L 13.4160367862372 10.4771376281113  C 13.6965274413206 10.2698714439106  13.6965274413206 9.93549184305864  13.4160367862372 9.72822565885798  Z " fill-rule="nonzero" fill="#aaaaaa" stroke="none" transform="matrix(1 0 0 1 426 251 )" />
  </g>
</svg>