<?xml version="1.0" encoding="utf-8"?>
<svg version="1.1" xmlns:xlink="http://www.w3.org/1999/xlink" width="84px" height="78px" xmlns="http://www.w3.org/2000/svg">
  <g transform="matrix(1 0 0 1 -74 -305 )">
    <path d="M 74 305  L 158 305  L 158 383  L 74 383  L 74 305  " fill-rule="nonzero" fill="#cccccc" stroke="none" />
    <path d="M 79 310  L 153 310  L 153 378  L 79 378  L 79 310  " fill-rule="nonzero" fill="#ffffff" stroke="none" />
    <path d="M 123.53 328.4  C 120.254 328.4  117.68 325.826  117.68 322.55  C 117.68 319.274  120.254 316.7  123.53 316.7  C 126.806 316.7  129.38 319.274  129.38 322.55  C 129.38 325.826  126.806 328.4  123.53 328.4  " fill-rule="nonzero" fill="#cccccc" stroke="none" />
    <path d="M 81 376  L 81 340.8  L 98.5 324.8  L 123 340.342857142857  L 137 334.4  L 151 340.342857142857  L 151 376  L 81 376  " fill-rule="nonzero" fill="#169bd5" stroke="none" />
  </g>
</svg>