<?xml version="1.0" encoding="utf-8"?>
<svg version="1.1" xmlns:xlink="http://www.w3.org/1999/xlink" width="45px" height="45px" xmlns="http://www.w3.org/2000/svg">
  <g transform="matrix(1 0 0 1 -1730 -76 )">
    <path d="M 1752.5 76  C 1765.1 76  1775 85.9  1775 98.5  C 1775 111.1  1765.1 121  1752.5 121  C 1739.9 121  1730 111.1  1730 98.5  C 1730 85.9  1739.9 76  1752.5 76  Z " fill-rule="nonzero" fill="#ffffff" stroke="none" />
    <path d="M 1752.5 76.5  C 1764.82 76.5  1774.5 86.18  1774.5 98.5  C 1774.5 110.82  1764.82 120.5  1752.5 120.5  C 1740.18 120.5  1730.5 110.82  1730.5 98.5  C 1730.5 86.18  1740.18 76.5  1752.5 76.5  Z " stroke-width="1" stroke="#797979" fill="none" />
  </g>
</svg>