<?xml version="1.0" encoding="utf-8"?>
<svg version="1.1" xmlns:xlink="http://www.w3.org/1999/xlink" width="47px" height="47px" xmlns="http://www.w3.org/2000/svg">
  <g transform="matrix(1 0 0 1 -565 -352 )">
    <path d="M 565 352  L 612 352  L 612 399  L 565 399  L 565 352  " fill-rule="nonzero" fill="#cccccc" stroke="none" />
    <path d="M 568 355  L 609 355  L 609 396  L 568 396  L 568 355  " fill-rule="nonzero" fill="#ffffff" stroke="none" />
    <path d="M 592.965 366.1  C 590.991 366.1  589.44 364.549  589.44 362.575  C 589.44 360.601  590.991 359.05  592.965 359.05  C 594.939 359.05  596.49 360.601  596.49 362.575  C 596.49 364.549  594.939 366.1  592.965 366.1  " fill-rule="nonzero" fill="#cccccc" stroke="none" />
    <path d="M 569 395  L 569 373.55  L 578.75 363.8  L 592.4 371.6  L 600.2 369.65  L 608 371.6  L 608 395  L 569 395  " fill-rule="nonzero" fill="#169bd5" stroke="none" />
  </g>
</svg>