<?xml version="1.0" encoding="utf-8"?>
<svg version="1.1" xmlns:xlink="http://www.w3.org/1999/xlink" width="257px" height="29px" viewBox="110 120  257 29" xmlns="http://www.w3.org/2000/svg">
  <path d="M 111 125  A 4 4 0 0 1 115 121 L 362 121  A 4 4 0 0 1 366 125 L 366 144  A 4 4 0 0 1 362 148 L 115 148  A 4 4 0 0 1 111 144 L 111 125  Z " fill-rule="nonzero" fill="#f0f0f0" stroke="none" />
  <path d="M 110.5 125  A 4.5 4.5 0 0 1 115 120.5 L 362 120.5  A 4.5 4.5 0 0 1 366.5 125 L 366.5 144  A 4.5 4.5 0 0 1 362 148.5 L 115 148.5  A 4.5 4.5 0 0 1 110.5 144 L 110.5 125  Z " stroke-width="1" stroke="#797979" fill="none" stroke-opacity="0.36078431372549" />
</svg>