<?xml version="1.0" encoding="utf-8"?>
<svg version="1.1" xmlns:xlink="http://www.w3.org/1999/xlink" width="23px" height="21px" xmlns="http://www.w3.org/2000/svg">
  <g transform="matrix(1 0 0 1 -110 -189 )">
    <path d="M 121.5 189  C 127.94 189  133 193.62  133 199.5  C 133 205.38  127.94 210  121.5 210  C 115.06 210  110 205.38  110 199.5  C 110 193.62  115.06 189  121.5 189  Z " fill-rule="nonzero" fill="#ffffff" stroke="none" />
    <path d="M 121.5 189.5  C 127.66 189.5  132.5 193.9  132.5 199.5  C 132.5 205.1  127.66 209.5  121.5 209.5  C 115.34 209.5  110.5 205.1  110.5 199.5  C 110.5 193.9  115.34 189.5  121.5 189.5  Z " stroke-width="1" stroke="#797979" fill="none" />
  </g>
</svg>