<?xml version="1.0" encoding="utf-8"?>
<svg version="1.1" xmlns:xlink="http://www.w3.org/1999/xlink" width="170px" height="113px" xmlns="http://www.w3.org/2000/svg">
  <g transform="matrix(1 0 0 1 -816 -303 )">
    <path d="M 816 303  L 986 303  L 986 416  L 816 416  L 816 303  " fill-rule="nonzero" fill="#cccccc" stroke="none" />
    <path d="M 824 311  L 978 311  L 978 408  L 824 408  L 824 311  " fill-rule="nonzero" fill="#ffffff" stroke="none" />
    <path d="M 912.875 336.9  C 908.129 336.9  904.4 333.171  904.4 328.425  C 904.4 323.679  908.129 319.95  912.875 319.95  C 917.621 319.95  921.35 323.679  921.35 328.425  C 921.35 333.171  917.621 336.9  912.875 336.9  " fill-rule="nonzero" fill="#cccccc" stroke="none" />
    <path d="M 827 405  L 827 354.95  L 864 332.2  L 915.8 368.707058823529  L 945.4 345.85  L 975 368.707058823529  L 975 405  L 827 405  " fill-rule="nonzero" fill="#169bd5" stroke="none" />
  </g>
</svg>