<?xml version="1.0" encoding="utf-8"?>
<svg version="1.1" xmlns:xlink="http://www.w3.org/1999/xlink" width="14px" height="14px" xmlns="http://www.w3.org/2000/svg">
  <g transform="matrix(1 0 0 1 -776 -34 )">
    <path d="M 783 35  C 786.36 35  789 37.64  789 41  C 789 44.36  786.36 47  783 47  C 779.64 47  777 44.36  777 41  C 777 37.64  779.64 35  783 35  Z " fill-rule="nonzero" fill="#333333" stroke="none" />
    <path d="M 783 35  C 786.36 35  789 37.64  789 41  C 789 44.36  786.36 47  783 47  C 779.64 47  777 44.36  777 41  C 777 37.64  779.64 35  783 35  Z " stroke-width="2" stroke="#ffffff" fill="none" />
  </g>
</svg>