<?xml version="1.0" encoding="utf-8"?>
<svg version="1.1" xmlns:xlink="http://www.w3.org/1999/xlink" width="12px" height="12px" viewBox="1091 1313  12 12" xmlns="http://www.w3.org/2000/svg">
  <path d="M 1097 1313  C 1100.36 1313  1103 1315.64  1103 1319  C 1103 1322.36  1100.36 1325  1097 1325  C 1093.64 1325  1091 1322.36  1091 1319  C 1091 1315.64  1093.64 1313  1097 1313  Z " fill-rule="nonzero" fill="#f0f0f0" stroke="none" />
  <path d="M 1097 1313.5  C 1100.08 1313.5  1102.5 1315.92  1102.5 1319  C 1102.5 1322.08  1100.08 1324.5  1097 1324.5  C 1093.92 1324.5  1091.5 1322.08  1091.5 1319  C 1091.5 1315.92  1093.92 1313.5  1097 1313.5  Z " stroke-width="1" stroke="#797979" fill="none" />
  <path d="M 1097 1322  C 1095.32 1322  1094 1320.68  1094 1319  C 1094 1317.32  1095.32 1316  1097 1316  C 1098.68 1316  1100 1317.32  1100 1319  C 1100 1320.68  1098.68 1322  1097 1322  " fill-rule="nonzero" fill="#797979" stroke="none" />
</svg>