<?xml version="1.0" encoding="utf-8"?>
<svg version="1.1" xmlns:xlink="http://www.w3.org/1999/xlink" width="12px" height="12px" viewBox="812 1313  12 12" xmlns="http://www.w3.org/2000/svg">
  <path d="M 818 1313  C 821.36 1313  824 1315.64  824 1319  C 824 1322.36  821.36 1325  818 1325  C 814.64 1325  812 1322.36  812 1319  C 812 1315.64  814.64 1313  818 1313  Z " fill-rule="nonzero" fill="#f0f0f0" stroke="none" />
  <path d="M 818 1313.5  C 821.08 1313.5  823.5 1315.92  823.5 1319  C 823.5 1322.08  821.08 1324.5  818 1324.5  C 814.92 1324.5  812.5 1322.08  812.5 1319  C 812.5 1315.92  814.92 1313.5  818 1313.5  Z " stroke-width="1" stroke="#797979" fill="none" />
  <path d="M 818 1322  C 816.32 1322  815 1320.68  815 1319  C 815 1317.32  816.32 1316  818 1316  C 819.68 1316  821 1317.32  821 1319  C 821 1320.68  819.68 1322  818 1322  " fill-rule="nonzero" fill="#797979" stroke="none" />
</svg>