<?xml version="1.0" encoding="utf-8"?>
<svg version="1.1" xmlns:xlink="http://www.w3.org/1999/xlink" width="12px" height="12px" viewBox="939 1313  12 12" xmlns="http://www.w3.org/2000/svg">
  <path d="M 945 1313  C 948.36 1313  951 1315.64  951 1319  C 951 1322.36  948.36 1325  945 1325  C 941.64 1325  939 1322.36  939 1319  C 939 1315.64  941.64 1313  945 1313  Z " fill-rule="nonzero" fill="#f0f0f0" stroke="none" />
  <path d="M 945 1313.5  C 948.08 1313.5  950.5 1315.92  950.5 1319  C 950.5 1322.08  948.08 1324.5  945 1324.5  C 941.92 1324.5  939.5 1322.08  939.5 1319  C 939.5 1315.92  941.92 1313.5  945 1313.5  Z " stroke-width="1" stroke="#797979" fill="none" />
  <path d="M 945 1322  C 943.32 1322  942 1320.68  942 1319  C 942 1317.32  943.32 1316  945 1316  C 946.68 1316  948 1317.32  948 1319  C 948 1320.68  946.68 1322  945 1322  " fill-rule="nonzero" fill="#797979" stroke="none" />
</svg>