<?xml version="1.0" encoding="utf-8"?>
<svg version="1.1" xmlns:xlink="http://www.w3.org/1999/xlink" width="12px" height="12px" viewBox="1041 1362  12 12" xmlns="http://www.w3.org/2000/svg">
  <path d="M 1047 1362  C 1050.36 1362  1053 1364.64  1053 1368  C 1053 1371.36  1050.36 1374  1047 1374  C 1043.64 1374  1041 1371.36  1041 1368  C 1041 1364.64  1043.64 1362  1047 1362  Z " fill-rule="nonzero" fill="#ffffff" stroke="none" />
  <path d="M 1047 1362.5  C 1050.08 1362.5  1052.5 1364.92  1052.5 1368  C 1052.5 1371.08  1050.08 1373.5  1047 1373.5  C 1043.92 1373.5  1041.5 1371.08  1041.5 1368  C 1041.5 1364.92  1043.92 1362.5  1047 1362.5  Z " stroke-width="1" stroke="#797979" fill="none" />
  <path d="M 1047 1371  C 1045.32 1371  1044 1369.68  1044 1368  C 1044 1366.32  1045.32 1365  1047 1365  C 1048.68 1365  1050 1366.32  1050 1368  C 1050 1369.68  1048.68 1371  1047 1371  " fill-rule="nonzero" fill="#797979" stroke="none" />
</svg>