<?xml version="1.0" encoding="utf-8"?>
<svg version="1.1" xmlns:xlink="http://www.w3.org/1999/xlink" width="12px" height="12px" viewBox="1196 1362  12 12" xmlns="http://www.w3.org/2000/svg">
  <path d="M 1202 1362  C 1205.36 1362  1208 1364.64  1208 1368  C 1208 1371.36  1205.36 1374  1202 1374  C 1198.64 1374  1196 1371.36  1196 1368  C 1196 1364.64  1198.64 1362  1202 1362  Z " fill-rule="nonzero" fill="#f0f0f0" stroke="none" />
  <path d="M 1202 1362.5  C 1205.08 1362.5  1207.5 1364.92  1207.5 1368  C 1207.5 1371.08  1205.08 1373.5  1202 1373.5  C 1198.92 1373.5  1196.5 1371.08  1196.5 1368  C 1196.5 1364.92  1198.92 1362.5  1202 1362.5  Z " stroke-width="1" stroke="#797979" fill="none" />
  <path d="M 1202 1371  C 1200.32 1371  1199 1369.68  1199 1368  C 1199 1366.32  1200.32 1365  1202 1365  C 1203.68 1365  1205 1366.32  1205 1368  C 1205 1369.68  1203.68 1371  1202 1371  " fill-rule="nonzero" fill="#797979" stroke="none" />
</svg>