<?xml version="1.0" encoding="utf-8"?>
<svg version="1.1" xmlns:xlink="http://www.w3.org/1999/xlink" width="12px" height="12px" viewBox="874 2257  12 12" xmlns="http://www.w3.org/2000/svg">
  <path d="M 880 2257  C 883.36 2257  886 2259.64  886 2263  C 886 2266.36  883.36 2269  880 2269  C 876.64 2269  874 2266.36  874 2263  C 874 2259.64  876.64 2257  880 2257  Z " fill-rule="nonzero" fill="#ffffff" stroke="none" />
  <path d="M 880 2257.5  C 883.08 2257.5  885.5 2259.92  885.5 2263  C 885.5 2266.08  883.08 2268.5  880 2268.5  C 876.92 2268.5  874.5 2266.08  874.5 2263  C 874.5 2259.92  876.92 2257.5  880 2257.5  Z " stroke-width="1" stroke="#797979" fill="none" />
  <path d="M 880 2266  C 878.32 2266  877 2264.68  877 2263  C 877 2261.32  878.32 2260  880 2260  C 881.68 2260  883 2261.32  883 2263  C 883 2264.68  881.68 2266  880 2266  " fill-rule="nonzero" fill="#797979" stroke="none" />
</svg>