<?xml version="1.0" encoding="utf-8"?>
<svg version="1.1" xmlns:xlink="http://www.w3.org/1999/xlink" width="9px" height="16px" xmlns="http://www.w3.org/2000/svg">
  <g transform="matrix(1 0 0 1 0 -2 )">
    <path d="M 8.64217687755102 15.7823129183674  C 8.51156463265306 15.9564625714286  8.33741497959183 16  8.16326530612245 16  C 7.98911565306122 16  7.81496597959183 15.9564625918367  7.7278911632653 15.8258503469388  L 0.326530612244895 8.64217687755102  C 0.195918367346941 8.51156463265306  0.108843530612241 8.33741497959184  0.108843530612241 8.16326530612245  C 0.108843530612241 7.98911565306122  0.195918367346934 7.81496597959183  0.326530612244895 7.68435373469387  L 7.77142857142857 0.500680265306116  C 8.03265306122449 0.239455775510208  8.42448979591836 0.239455775510208  8.68571428571428 0.500680265306116  C 8.9469387755102 0.761904755102037  8.9469387755102 1.15374148979592  8.68571428571428 1.41496597959184  L 1.71972789795918 8.16326530612245  L 8.64217687755102 14.8680272040816  C 8.90340136734693 15.1292516938775  8.90340136734693 15.5210884285714  8.64217687755102 15.7823129183674  Z " fill-rule="nonzero" fill="#2a71d4" stroke="none" transform="matrix(1 0 0 1 0 2 )" />
  </g>
</svg>