<?xml version="1.0" encoding="utf-8"?>
<svg version="1.1" xmlns:xlink="http://www.w3.org/1999/xlink" width="132px" height="125px" xmlns="http://www.w3.org/2000/svg">
  <g transform="matrix(1 0 0 1 -130 -128 )">
    <path d="M 130 128  L 262 128  L 262 253  L 130 253  L 130 128  " fill-rule="nonzero" fill="#cccccc" stroke="none" />
    <path d="M 139 137  L 253 137  L 253 244  L 139 244  L 139 137  " fill-rule="nonzero" fill="#ffffff" stroke="none" />
    <path d="M 208.015 165.5  C 202.765 165.5  198.64 161.375  198.64 156.125  C 198.64 150.875  202.765 146.75  208.015 146.75  C 213.265 146.75  217.39 150.875  217.39 156.125  C 217.39 161.375  213.265 165.5  208.015 165.5  " fill-rule="nonzero" fill="#cccccc" stroke="none" />
    <path d="M 142 241  L 142 185.45  L 169 160.2  L 206.8 183.613636363636  L 228.4 175.35  L 250 183.613636363636  L 250 241  L 142 241  " fill-rule="nonzero" fill="#169bd5" stroke="none" />
  </g>
</svg>