<?xml version="1.0" encoding="utf-8"?>
<svg version="1.1" xmlns:xlink="http://www.w3.org/1999/xlink" width="90px" height="85px" xmlns="http://www.w3.org/2000/svg">
  <g transform="matrix(1 0 0 1 -1417 -471 )">
    <path d="M 1417 471  L 1507 471  L 1507 556  L 1417 556  L 1417 471  " fill-rule="nonzero" fill="#cccccc" stroke="none" />
    <path d="M 1423 477  L 1501 477  L 1501 550  L 1423 550  L 1423 477  " fill-rule="nonzero" fill="#ffffff" stroke="none" />
    <path d="M 1470.175 496.5  C 1466.605 496.5  1463.8 493.695  1463.8 490.125  C 1463.8 486.555  1466.605 483.75  1470.175 483.75  C 1473.745 483.75  1476.55 486.555  1476.55 490.125  C 1476.55 493.695  1473.745 496.5  1470.175 496.5  " fill-rule="nonzero" fill="#cccccc" stroke="none" />
    <path d="M 1425 548  L 1425 510.05  L 1443.5 492.8  L 1469.4 508.9  L 1484.2 503.15  L 1499 508.9  L 1499 548  L 1425 548  " fill-rule="nonzero" fill="#169bd5" stroke="none" />
  </g>
</svg>