<?xml version="1.0" encoding="utf-8"?>
<svg version="1.1" xmlns:xlink="http://www.w3.org/1999/xlink" width="74px" height="70px" xmlns="http://www.w3.org/2000/svg">
  <g transform="matrix(1 0 0 1 -1416 -648 )">
    <path d="M 1416 648  L 1490 648  L 1490 718  L 1416 718  L 1416 648  " fill-rule="nonzero" fill="#cccccc" stroke="none" />
    <path d="M 1421 653  L 1485 653  L 1485 713  L 1421 713  L 1421 653  " fill-rule="nonzero" fill="#ffffff" stroke="none" />
    <path d="M 1459.73 669  C 1456.79 669  1454.48 666.69  1454.48 663.75  C 1454.48 660.81  1456.79 658.5  1459.73 658.5  C 1462.67 658.5  1464.98 660.81  1464.98 663.75  C 1464.98 666.69  1462.67 669  1459.73 669  " fill-rule="nonzero" fill="#cccccc" stroke="none" />
    <path d="M 1423 711  L 1423 680.2  L 1438 666.2  L 1459 679.216216216216  L 1471 674.6  L 1483 679.216216216216  L 1483 711  L 1423 711  " fill-rule="nonzero" fill="#169bd5" stroke="none" />
  </g>
</svg>