<?xml version="1.0" encoding="utf-8"?>
<svg version="1.1" xmlns:xlink="http://www.w3.org/1999/xlink" width="18px" height="18px" preserveAspectRatio="xMinYMid meet" viewBox="1523 1009  18 16" xmlns="http://www.w3.org/2000/svg">
  <path d="M 1532.5 1015  L 1532.5 1070  A 3 3 0 0 1 1535.5 1073 A 3 3 0 0 1 1532.5 1076 L 1532.5 1183  A 5 5 0 0 0 1537.5 1188.5 L 1823 1188.5  " stroke-width="1" stroke="#ff0000" fill="none" stroke-opacity="0.8" />
  <path d="M 1532.5 1014  A 3 3 0 0 0 1529.5 1017 A 3 3 0 0 0 1532.5 1020 A 3 3 0 0 0 1535.5 1017 A 3 3 0 0 0 1532.5 1014 Z " fill-rule="nonzero" fill="#ff0000" stroke="none" fill-opacity="0.8" />
</svg>