<?xml version="1.0" encoding="utf-8"?>
<svg version="1.1" xmlns:xlink="http://www.w3.org/1999/xlink" width="300px" height="170px" xmlns="http://www.w3.org/2000/svg">
  <g transform="matrix(1 0 0 1 -1799 -5 )">
    <path d="M 1800 19  A 13 13 0 0 1 1813 6 L 2085 6  A 13 13 0 0 1 2098 19 L 2098 161  A 13 13 0 0 1 2085 174 L 1813 174  A 13 13 0 0 1 1800 161 L 1800 19  Z " fill-rule="nonzero" fill="#ffffff" stroke="none" />
    <path d="M 1799.5 19  A 13.5 13.5 0 0 1 1813 5.5 L 2085 5.5  A 13.5 13.5 0 0 1 2098.5 19 L 2098.5 161  A 13.5 13.5 0 0 1 2085 174.5 L 1813 174.5  A 13.5 13.5 0 0 1 1799.5 161 L 1799.5 19  Z " stroke-width="1" stroke="#797979" fill="none" stroke-opacity="0.298039215686275" />
  </g>
</svg>