<?xml version="1.0" encoding="utf-8"?>
<svg version="1.1" xmlns:xlink="http://www.w3.org/1999/xlink" width="360px" height="417px" xmlns="http://www.w3.org/2000/svg">
  <g transform="matrix(1 0 0 1 -932 -637 )">
    <path d="M 933 651  A 13 13 0 0 1 946 638 L 1278 638  A 13 13 0 0 1 1291 651 L 1291 1040  A 13 13 0 0 1 1278 1053 L 946 1053  A 13 13 0 0 1 933 1040 L 933 651  Z " fill-rule="nonzero" fill="#ffffff" stroke="none" />
    <path d="M 932.5 651  A 13.5 13.5 0 0 1 946 637.5 L 1278 637.5  A 13.5 13.5 0 0 1 1291.5 651 L 1291.5 1040  A 13.5 13.5 0 0 1 1278 1053.5 L 946 1053.5  A 13.5 13.5 0 0 1 932.5 1040 L 932.5 651  Z " stroke-width="1" stroke="#797979" fill="none" stroke-opacity="0.298039215686275" />
  </g>
</svg>