<?xml version="1.0" encoding="utf-8"?>
<svg version="1.1" xmlns:xlink="http://www.w3.org/1999/xlink" width="60px" height="55px" xmlns="http://www.w3.org/2000/svg">
  <g transform="matrix(1 0 0 1 -1738 -171 )">
    <path d="M 1738 171  L 1798 171  L 1798 226  L 1738 226  L 1738 171  " fill-rule="nonzero" fill="#cccccc" stroke="none" />
    <path d="M 1742 175  L 1794 175  L 1794 222  L 1742 222  L 1742 175  " fill-rule="nonzero" fill="#ffffff" stroke="none" />
    <path d="M 1773.325 187.5  C 1771.015 187.5  1769.2 185.685  1769.2 183.375  C 1769.2 181.065  1771.015 179.25  1773.325 179.25  C 1775.635 179.25  1777.45 181.065  1777.45 183.375  C 1777.45 185.685  1775.635 187.5  1773.325 187.5  " fill-rule="nonzero" fill="#cccccc" stroke="none" />
    <path d="M 1744 221  L 1744 196.8  L 1756.25 185.8  L 1773.4 196.8  L 1783.2 192.4  L 1793 196.8  L 1793 221  L 1744 221  " fill-rule="nonzero" fill="#169bd5" stroke="none" />
  </g>
</svg>