<?xml version="1.0" encoding="utf-8"?>
<svg version="1.1" xmlns:xlink="http://www.w3.org/1999/xlink" width="228px" height="43px" viewBox="67 429  228 43" xmlns="http://www.w3.org/2000/svg">
  <path d="M 68 450.5  A 20.5 20.5 0 0 1 88.5 430 L 273.5 430  A 20.5 20.5 0 0 1 294 450.5 A 20.5 20.5 0 0 1 273.5 471 L 88.5 471  A 20.5 20.5 0 0 1 68 450.5 Z " fill-rule="nonzero" fill="#f0f0f0" stroke="none" />
  <path d="M 67.5 450.5  A 21 21 0 0 1 88.5 429.5 L 273.5 429.5  A 21 21 0 0 1 294.5 450.5 A 21 21 0 0 1 273.5 471.5 L 88.5 471.5  A 21 21 0 0 1 67.5 450.5 Z " stroke-width="1" stroke="#797979" fill="none" stroke-opacity="0.462745098039216" />
</svg>