<?xml version="1.0" encoding="utf-8"?>
<svg version="1.1" xmlns:xlink="http://www.w3.org/1999/xlink" width="43px" height="41px" xmlns="http://www.w3.org/2000/svg">
  <g transform="matrix(1 0 0 1 -159 -247 )">
    <path d="M 14.4711538461538 1.47836538461518  C 14.4711538461538 0.66526442307723  13.8199519230769 0  13.0240384615384 0  L 6.9461538461538 0  C 3.1112980769231 0  0 3.17848557692277  0 7.0961538461538  L 0 13.3052884615386  C 0 14.1183894230766  0.651201923076898 14.7836538461538  1.44711538461535 14.7836538461538  C 2.2430288461538 14.7836538461538  2.89423076923069 14.1183894230766  2.89423076923069 13.3052884615386  L 2.89423076923069 6.99055631868147  C 2.89423076923069 6.02961881868147  3.3387019230769 5.01588255494531  4.10360576923069 4.22390109890089  C 4.8788461538462 3.42135989011004  5.88149038461535 2.95673076923103  6.84278846153845 2.95673076923103  L 13.0240384615384 2.95673076923103  C 13.8199519230769 2.95673076923103  14.4711538461538 2.2914663461538  14.4711538461538 1.47836538461518  Z M 43 6.99055631868147  C 43 3.13624656593437  39.9300480769231 0  36.1572115384616 0  L 29.9759615384616 0  C 29.1800480769231 0  28.5288461538462 0.66526442307723  28.5288461538462 1.47836538461518  C 28.5288461538462 2.2914663461538  29.1800480769231 2.95673076923103  29.9759615384616 2.95673076923103  L 36.1572115384616 2.95673076923103  C 37.1185096153847 2.95673076923103  38.1211538461538 3.42135989011004  38.8963942307693 4.22390109890089  C 39.6612980769231 5.01588255494531  40.1057692307693 6.02961881868147  40.1057692307693 6.99055631868147  L 40.1057692307693 13.3052884615386  C 40.1057692307693 14.1183894230766  40.7569711538462 14.7836538461538  41.5528846153847 14.7836538461538  C 42.3487980769231 14.7836538461538  43 14.1183894230766  43 13.3052884615386  L 43 6.99055631868147  Z M 14.4711538461538 39.0710851648353  C 14.4711538461538 38.2579842032967  13.8199519230769 37.5927197802194  13.0240384615384 37.5927197802194  L 6.84278846153845 37.5927197802194  C 5.88149038461535 37.5927197802194  4.8788461538462 37.1280906593404  4.10360576923069 36.3255494505496  C 3.3387019230769 35.5335679945051  2.89423076923069 34.519831730769  2.89423076923069 33.558894230769  L 2.89423076923069 27.2441620879118  C 2.89423076923069 26.4310611263739  2.2430288461538 25.7657967032967  1.44711538461535 25.7657967032967  C 0.651201923076898 25.7657967032967  0 26.4310611263739  0 27.2441620879118  L 0 33.558894230769  C 0 37.4132039835161  3.0699519230769 40.5494505494504  6.84278846153845 40.5494505494504  L 13.0240384615384 40.5494505494504  C 13.8199519230769 40.5494505494504  14.4711538461538 39.8841861263732  14.4711538461538 39.0710851648353  Z M 43 27.2441620879118  C 43 26.4310611263739  42.3487980769231 25.7657967032967  41.5528846153847 25.7657967032967  C 40.7569711538462 25.7657967032967  40.1057692307693 26.4310611263739  40.1057692307693 27.2441620879118  L 40.1057692307693 33.558894230769  C 40.1057692307693 34.519831730769  39.6612980769231 35.5335679945051  38.8963942307693 36.3255494505496  C 38.1211538461538 37.1280906593404  37.1185096153847 37.5927197802194  36.1572115384616 37.5927197802194  L 29.9759615384616 37.5927197802194  C 29.1800480769231 37.5927197802194  28.5288461538462 38.2579842032967  28.5288461538462 39.0710851648353  C 28.5288461538462 39.8841861263732  29.1800480769231 40.5494505494504  29.9759615384616 40.5494505494504  L 36.0538461538462 40.5494505494504  C 39.8783653846153 40.5494505494504  43 37.3709649725277  43 33.4532967032967  L 43 27.2441620879118  Z " fill-rule="nonzero" fill="#606266" stroke="none" transform="matrix(1 0 0 1 159 247 )" />
  </g>
</svg>