<?xml version="1.0" encoding="utf-8"?>
<svg version="1.1" xmlns:xlink="http://www.w3.org/1999/xlink" width="106px" height="46px" xmlns="http://www.w3.org/2000/svg">
  <defs>
    <filter x="30px" y="119px" width="106px" height="46px" filterUnits="userSpaceOnUse" id="filter6">
      <feOffset dx="0" dy="0" in="SourceAlpha" result="shadowOffsetInner" />
      <feGaussianBlur stdDeviation="1.5" in="shadowOffsetInner" result="shadowGaussian" />
      <feComposite in2="shadowGaussian" operator="atop" in="SourceAlpha" result="shadowComposite" />
      <feColorMatrix type="matrix" values="0 0 0 0 0  0 0 0 0 0.6  0 0 0 0 1  0 0 0 1 0  " in="shadowComposite" />
    </filter>
    <g id="widget7">
      <path d="M 83 123  C 110.44 123  132 131.36  132 142  C 132 152.64  110.44 161  83 161  C 55.56 161  34 152.64  34 142  C 34 131.36  55.56 123  83 123  Z " fill-rule="nonzero" fill="#0099ff" stroke="none" fill-opacity="0.0980392156862745" />
      <path d="M 83 123  C 110.44 123  132 131.36  132 142  C 132 152.64  110.44 161  83 161  C 55.56 161  34 152.64  34 142  C 34 131.36  55.56 123  83 123  Z " stroke-width="2" stroke="#0099ff" fill="none" />
    </g>
  </defs>
  <g transform="matrix(1 0 0 1 -30 -119 )">
    <use xlink:href="#widget7" filter="url(#filter6)" />
    <use xlink:href="#widget7" />
  </g>
</svg>