<?xml version="1.0" encoding="utf-8"?>
<svg version="1.1" xmlns:xlink="http://www.w3.org/1999/xlink" width="13px" height="14px" xmlns="http://www.w3.org/2000/svg">
  <g transform="matrix(1 0 0 1 -24 -13 )">
    <path d="M 12.9711448598131 9.18352803738316  C 13.0394859813084 8.99672897196263  12.9832943925234 8.78411214953269  12.8299065420561 8.65198598130843  L 11.8351635514019 7.8015186915888  C 11.8822429906542 7.5129672897196  11.9065420560748 7.21834112149531  11.9065420560748 6.92371495327103  C 11.9065420560748 6.62908878504675  11.8822429906542 6.33446261682241  11.8351635514019 6.04591121495326  L 12.8299065420561 5.19544392523363  C 12.9832943925234 5.0648364485981  13.0394859813084 4.85221962616822  12.9711448598131 4.66086448598128  L 12.957476635514 4.62137850467292  C 12.6825934579439 3.85443925233642  12.2755841121495 3.14976635514017  11.7470794392523 2.52710280373833  L 11.7197429906542 2.49521028037384  C 11.5891355140187 2.34182242990653  11.3780373831776 2.28411214953269  11.1866822429906 2.35093457943924  L 9.95198598130844 2.78983644859812  C 9.49637850467292 2.41623831775701  8.98761682242991 2.12161214953272  8.43785046728971 1.91507009345793  L 8.19941588785048 0.624182242990628  C 8.16296728971963 0.425233644859816  8.00654205607475 0.270327102803719  7.80759345794394 0.233878504672873  L 7.76658878504674 0.226285046728947  C 6.97535046728973 0.0835280373831893  6.14310747663552 0.0835280373831893  5.35186915887851 0.226285046728947  L 5.31086448598131 0.233878504672873  C 5.11191588785044 0.270327102803719  4.95549065420562 0.425233644859816  4.91904205607477 0.624182242990628  L 4.6790887850467 1.92114485981307  C 4.13387850467291 2.12768691588786  3.62815420560747 2.42079439252336  3.17558411214952 2.79287383177569  L 1.93177570093457 2.35093457943924  C 1.74193925233646 2.28411214953269  1.52932242990653 2.34030373831774  1.39871495327105 2.49521028037384  L 1.37137850467292 2.52710280373833  C 0.842873831775705 3.15128504672896  0.435864485981313 3.85595794392521  0.160981308411237 4.62137850467292  L 0.14731308411217 4.66086448598128  C 0.0789719626168335 4.85070093457944  0.135163551401888 5.06331775700932  0.288551401869142 5.19544392523363  L 1.29544392523366 6.05502336448598  C 1.24836448598131 6.34053738317755  1.22558411214953 6.63212616822432  1.22558411214953 6.92219626168225  C 1.22558411214953 7.21378504672896  1.24836448598131 7.50537383177567  1.29544392523366 7.78936915887851  L 0.288551401869142 8.64894859813086  C 0.135163551401888 8.77955607476633  0.0789719626168335 8.99217289719627  0.14731308411217 9.18352803738316  L 0.160981308411237 9.22301401869157  C 0.435864485981313 9.98843457943923  0.842873831775705 10.6946261682243  1.37137850467292 11.3172897196262  L 1.39871495327105 11.3491822429907  C 1.52932242990653 11.502570093458  1.74042056074768 11.5602803738317  1.93177570093457 11.4934579439253  L 3.17558411214952 11.0515186915888  C 3.62815420560747 11.4235981308411  4.13387850467291 11.7182242990654  4.6790887850467 11.9232476635514  L 4.91904205607477 13.2202102803738  C 4.95549065420562 13.4191588785047  5.11191588785044 13.5740654205607  5.31086448598131 13.6105140186916  L 5.35186915887851 13.6181074766355  C 5.74824766355141 13.6894859813084  6.15373831775702 13.7259345794392  6.55922897196263 13.7259345794392  C 6.96471962616823 13.7259345794392  7.37172897196263 13.6894859813084  7.76658878504674 13.6181074766355  L 7.80759345794394 13.6105140186916  C 8.00654205607475 13.5740654205607  8.16296728971963 13.4191588785047  8.19941588785048 13.2202102803738  L 8.43785046728971 11.9293224299065  C 8.98761682242991 11.7227803738318  9.49637850467292 11.4296728971963  9.95198598130844 11.0545560747664  L 11.1866822429906 11.4934579439253  C 11.3765186915888 11.5602803738317  11.5891355140187 11.5040887850467  11.7197429906542 11.3491822429907  L 11.7470794392523 11.3172897196262  C 12.2755841121495 10.6931074766355  12.6825934579439 9.98843457943923  12.957476635514 9.22301401869157  L 12.9711448598131 9.18352803738316  Z M 10.6581775700935 5.61915887850466  L 10.7568925233645 6.22511682242992  C 10.7948598130841 6.45443925233644  10.8146028037383 6.6898364485981  10.8146028037383 6.92523364485982  C 10.8146028037383 7.16063084112147  10.7948598130841 7.39602803738319  10.7568925233645 7.62535046728971  L 10.6566588785047 8.23434579439254  L 11.7911214953271 9.20478971962615  C 11.6195093457944 9.60116822429904  11.4023364485981 9.97476635514016  11.1441588785047 10.3225467289719  L 9.73481308411215 9.82289719626169  L 9.25794392523363 10.2147196261682  C 8.89497663551401 10.5123831775701  8.49100467289719 10.746261682243  8.05362149532709 10.9102803738318  L 7.47500000000002 11.127453271028  L 7.20315420560746 12.6005841121495  C 6.77640186915886 12.6491822429907  6.34053738317755 12.6491822429907  5.91226635514016 12.6005841121495  L 5.64042056074766 11.1244158878504  L 5.06635514018694 10.9042056074766  C 4.6335280373832 10.7401869158878  4.23107476635516 10.5063084112149  3.87114485981306 10.2101635514019  L 3.3942757009346 9.81682242990655  L 1.97581775700934 10.3210280373831  C 1.7176401869159 9.97324766355138  1.50198598130839 9.59813084112147  1.32885514018693 9.20327102803736  L 2.47546728971963 8.22371495327104  L 2.37675233644859 7.616238317757  C 2.34030373831774 7.38995327102805  2.32056074766354 7.15607476635512  2.32056074766354 6.92523364485982  C 2.32056074766354 6.69287383177567  2.33878504672896 6.46051401869158  2.37675233644859 6.23422897196258  L 2.47546728971963 5.62675233644859  L 1.32885514018693 4.64719626168221  C 1.50046728971961 4.25081775700932  1.7176401869159 3.8772196261682  1.97581775700934 3.52943925233643  L 3.3942757009346 4.03364485981308  L 3.87114485981306 3.64030373831775  C 4.23107476635516 3.34415887850469  4.6335280373832 3.11028037383176  5.06635514018694 2.946261682243  L 5.64193925233644 2.72908878504671  L 5.91378504672895 1.25292056074767  C 6.34053738317755 1.20432242990654  6.77640186915886 1.20432242990654  7.20467289719625 1.25292056074767  L 7.47651869158881 2.72605140186914  L 8.05514018691588 2.94322429906543  C 8.49100467289719 3.10724299065419  8.8964953271028 3.34112149532712  9.25946261682242 3.63878504672897  L 9.73633177570093 4.03060747663551  L 11.1456775700935 3.53095794392522  C 11.4038551401869 3.87873831775698  11.6195093457944 4.25385514018689  11.7926401869159 4.648714953271  L 10.6581775700935 5.61915887850466  Z M 9.23364485981307 6.77336448598129  C 9.23364485981307 5.29719626168225  8.03691588785045 4.10046728971963  6.56074766355141 4.10046728971963  C 5.08457943925231 4.10046728971963  3.8878504672897 5.29719626168225  3.8878504672897 6.77336448598129  C 3.8878504672897 8.24953271028039  5.08457943925231 9.446261682243  6.56074766355141 9.446261682243  C 8.03691588785045 9.446261682243  9.23364485981307 8.24953271028039  9.23364485981307 6.77336448598129  Z M 8.26168224299067 6.77336448598129  C 8.26168224299067 7.22745327102803  8.0839953271028 7.65420560747663  7.76355140186917 7.97616822429905  C 7.44158878504675 8.29661214953268  7.01483644859815 8.47429906542055  6.56074766355141 8.47429906542055  C 6.10665887850467 8.47429906542055  5.67990654205607 8.29661214953268  5.35794392523366 7.97616822429905  C 5.03750000000002 7.65420560747663  4.85981308411215 7.22745327102803  4.85981308411215 6.77336448598129  C 4.85981308411215 6.31927570093455  5.03750000000002 5.89252336448595  5.35794392523366 5.57056074766354  C 5.67990654205607 5.24859813084112  6.10665887850467 5.07242990654203  6.56074766355141 5.07242990654203  C 7.01483644859815 5.07242990654203  7.44158878504675 5.24859813084112  7.76355140186917 5.57056074766354  C 8.0839953271028 5.89252336448595  8.26168224299067 6.31927570093455  8.26168224299067 6.77336448598129  Z " fill-rule="nonzero" fill="#606266" stroke="none" transform="matrix(1 0 0 1 24 13 )" />
  </g>
</svg>