<?xml version="1.0" encoding="utf-8"?>
<svg version="1.1" xmlns:xlink="http://www.w3.org/1999/xlink" width="14px" height="11px" xmlns="http://www.w3.org/2000/svg">
  <g transform="matrix(1 0 0 1 -10 -16 )">
    <path d="M 1.56528249566725 0  L 12.3234939341421 0  C 12.8286909300982 0.0312027729636064  13.2324344309648 0.159572501444252  13.5347244367418 0.416311958405547  C 13.8370144425188 0.673051415366839  13.9881594454073 1.06230155979203  13.9881594454073 1.58406239168111  L 13.9881594454073 8.47875909878684  C 13.9881594454073 8.70237088388215  13.9467498555748 8.91355979202774  13.8639306759099 9.11232582322358  C 13.7811114962449 9.31109185441942  13.6672351242057 9.48501213171578  13.522301559792 9.63408665511266  C 13.3773679953784 9.78316117850954  13.2075886770653 9.90117850953207  13.0129636048527 9.98813864818025  C 12.8183385326401 10.0750987868284  12.6133610629694 10.1185788561525  12.3980311958406 10  L 1.56528249566725 10  C 1.34995262853842 10.1185788561525  1.14704563835933 10.0771692663201  0.956561525129984 9.99435008665512  C 0.766077411900639 9.91153090699019  0.600439052570763 9.80179549393415  0.459646447140386 9.66514384748701  C 0.318853841709995 9.52849220103987  0.20704794916233 9.36906528018487  0.124228769497407 9.18686308492202  C 0.0414095898324689 9.00466088965916  0 8.81003581744658  0 8.60298786828423  L 0 1.55921663778163  C 0 1.11199306759099  0.136651646447135 0.745518197573659  0.409954939341418 0.459792027729637  C 0.683258232235701 0.174065857885619  1.06836741767765 0.0312027729636064  1.56528249566725 0  Z M 4.34800693240902 2.65864124783362  C 4.12439514731369 2.43917042172155  3.83866897746967 2.32943500866551  3.49082842287694 2.32943500866551  C 3.33347198151358 2.32943500866551  3.18439745811669 2.35842172154824  3.04360485268631 2.41639514731369  C 2.90281224725592 2.47436857307915  2.77858347775852 2.55511727325246  2.67091854419411 2.65864124783362  C 2.5632536106297 2.76216522241479  2.47836395147314 2.88639399191219  2.41624956672445 3.03132755632582  C 2.35413518197574 3.17626112073946  2.32307798960139 3.33154708261121  2.32307798960139 3.49718544194108  C 2.32307798960139 3.66282380127094  2.35413518197574 3.81603928365107  2.41624956672445 3.95683188908146  C 2.47836395147314 4.09762449451184  2.5632536106297 4.22185326400924  2.67091854419411 4.32951819757366  C 2.77858347775852 4.43718313113807  2.90281224725592 4.52207279029463  3.04360485268631 4.58418717504333  C 3.18439745811669 4.64630155979203  3.33347198151358 4.67735875216638  3.49082842287694 4.67735875216638  C 3.66474870017331 4.67735875216638  3.8241756210283 4.64630155979203  3.96910918544194 4.58418717504333  C 4.11404274985557 4.52207279029463  4.23827151935298 4.43718313113807  4.34179549393414 4.32951819757366  C 4.44531946851531 4.22185326400924  4.52813864818025 4.09762449451184  4.59025303292894 3.95683188908146  C 4.65236741767764 3.81603928365107  4.68342461005199 3.66282380127094  4.68342461005199 3.49718544194107  C 4.683424610052 3.15762680531485  4.57161871750434 2.8781120739457  4.34800693240902 2.65864124783362  Z M 5.44122010398614 6.67744194107453  L 5.44122010398614 6.62775043327557  C 5.44122010398614 6.4703939919122  5.41016291161179 6.31924898902369  5.34804852686308 6.17431542461006  C 5.28593414211439 6.02938186019642  5.20311496244945 5.90515309069902  5.09959098786828 5.80162911611785  C 4.99606701328712 5.69810514153669  4.87183824378971 5.61528596187176  4.72690467937608 5.55317157712305  C 4.58197111496244 5.49105719237436  4.43082611207394 5.46  4.27346967071057 5.46  L 2.72061005199306 5.46  C 2.39761525129983 5.46  2.12431195840554 5.57387637203929  1.90070017331023 5.80162911611785  C 1.67708838821491 6.02938186019642  1.56528249566725 6.30475563258233  1.56528249566725 6.62775043327557  L 1.56528249566725 6.67744194107453  L 1.56528249566725 7.79550086655113  L 5.44122010398614 7.79550086655113  L 5.44122010398614 6.67744194107453  Z M 7.45372616984402 7.85761525129983  L 11.2054350086655 7.85761525129983  C 11.3710733679954 7.85761525129983  11.4932316580012 7.81620566146736  11.5719098786828 7.73338648180243  C 11.6505880993645 7.6505673021375  11.6899272097054 7.55118428653958  11.6899272097054 7.43523743500867  C 11.6899272097054 7.31929058347776  11.6443766608897 7.21783708838822  11.5532755632582 7.13087694974003  C 11.4621744656268 7.04391681109186  11.3338047371462 7.00043674176777  11.1681663778163 7.00043674176777  L 7.46614904679376 7.00043674176777  C 7.3005106874639 7.00043674176777  7.17628191796649 7.04391681109186  7.09346273830155 7.13087694974003  C 7.01064355863663 7.21783708838822  6.96923396880416 7.31929058347776  6.96923396880416 7.43523743500867  C 6.96923396880416 7.55118428653958  7.01064355863663 7.6505673021375  7.09346273830155 7.73338648180243  C 7.17628191796649 7.81620566146736  7.29636972848064 7.85761525129983  7.45372616984402 7.85761525129983  Z M 7.41645753899481 6.25506412478337  L 11.2178578856152 6.25506412478337  C 11.3834962449451 6.25506412478337  11.5035840554593 6.2136545349509  11.5781213171577 6.13083535528597  C 11.6526585788561 6.04801617562103  11.6899272097054 5.94863316002311  11.6899272097054 5.8326863084922  C 11.6899272097054 5.70845753899481  11.6547290583478 5.60493356441363  11.5843327556326 5.5221143847487  C 11.5139364529174 5.43929520508377  11.3959191218949 5.3978856152513  11.230280762565 5.3978856152513  L 7.42888041594455 5.3978856152513  C 7.26324205661467 5.3978856152513  7.14315424610052 5.43929520508377  7.06861698440208 5.5221143847487  C 6.99407972270365 5.60493356441363  6.95681109185442 5.70845753899481  6.95681109185442 5.8326863084922  C 6.95681109185442 5.94863316002311  6.99200924321201 6.04801617562103  7.06240554592721 6.13083535528597  C 7.1328018486424 6.2136545349509  7.25081917966493 6.25506412478337  7.41645753899481 6.25506412478337  Z M 8.70843674176777 4.67735875216638  L 11.230280762565 4.67735875216638  C 11.3545095320624 4.67735875216638  11.4621744656268 4.63594916233392  11.5532755632582 4.55312998266898  C 11.6443766608897 4.47031080300405  11.6899272097054 4.37092778740612  11.6899272097054 4.25498093587522  C 11.6899272097054 4.13903408434431  11.6443766608897 4.04586250722126  11.5532755632582 3.97546620450607  C 11.4621744656268 3.90506990179087  11.3545095320624 3.86987175043328  11.230280762565 3.86987175043328  L 8.70843674176777 3.86987175043328  C 8.58420797227036 3.86987175043328  8.47861351819758 3.90506990179087  8.3916533795494 3.97546620450607  C 8.30469324090122 4.04586250722126  8.26121317157713 4.13903408434431  8.26121317157713 4.25498093587522  C 8.26121317157713 4.37092778740612  8.30469324090122 4.47031080300405  8.3916533795494 4.55312998266898  C 8.47861351819758 4.63594916233392  8.58420797227036 4.67735875216638  8.70843674176777 4.67735875216638  Z " fill-rule="nonzero" fill="#606266" stroke="none" transform="matrix(1 0 0 1 10 16 )" />
  </g>
</svg>