<?xml version="1.0" encoding="utf-8"?>
<svg version="1.1" xmlns:xlink="http://www.w3.org/1999/xlink" width="14px" height="11px" xmlns="http://www.w3.org/2000/svg">
  <g transform="matrix(1 0 0 1 -10 -51 )">
    <path d="M 4.59908536585366 0.042682926829265  C 3.86547256097561 0.042682926829265  3.26524390243902 0.642911585365852  3.26524390243902 1.3765243902439  L 3.26524390243902 4.94455030487805  L 9.26419588414634 4.94455030487805  L 7.69026295731708 3.34727515243902  C 7.52353277439024 3.17721036585365  7.52353277439024 2.90377286585365  7.69359756097561 2.73370807926829  C 7.86366234756098 2.56697789634146  8.13709984756098 2.56697789634146  8.30716463414634 2.73704268292683  L 10.6080411585366 5.07126524390244  C 10.6880716463415 5.15463033536585  10.7314214939024 5.26467225609755  10.7314214939024 5.37471417682926  C 10.7314214939024 5.43140243902439  10.7214176829268 5.48809070121951  10.6980754573171 5.54144435975609  C 10.6780678353659 5.59146341463414  10.6447217987805 5.63814786585365  10.6080411585366 5.67816310975609  L 8.30716463414634 8.0123856707317  C 8.14043445121951 8.18245045731707  7.86366234756098 8.1857850609756  7.69359756097561 8.01572027439024  C 7.52353277439024 7.84899009146341  7.52019817073171 7.57221798780488  7.69026295731708 7.40215320121951  L 9.26419588414634 5.80487804878049  L 3.26524390243902 5.80487804878049  L 3.26524390243902 9.37290396341463  C 3.26524390243902 10.1065167682927  3.86547256097561 10.7067454268293  4.59908536585366 10.7067454268293  L 12.6021341463415 10.7067454268293  C 13.3357469512195 10.7067454268293  13.9359756097561 10.1065167682927  13.9359756097561 9.37290396341463  L 13.9359756097561 1.3765243902439  C 13.9359756097561 0.642911585365852  13.3357469512195 0.042682926829265  12.6021341463415 0.042682926829265  L 4.59908536585366 0.042682926829265  Z M 3.26524390243902 4.94455030487805  L 0.497522865853659 4.94455030487805  C 0.257431402439025 4.94455030487805  0.0640243902439028 5.13795731707317  0.0640243902439028 5.3780487804878  C 0.0640243902439028 5.61814024390244  0.257431402439025 5.81154725609755  0.497522865853659 5.81154725609755  L 3.26524390243902 5.81154725609755  L 3.26524390243902 4.94455030487805  Z " fill-rule="nonzero" fill="#606266" stroke="none" transform="matrix(1 0 0 1 10 51 )" />
  </g>
</svg>