<?xml version="1.0" encoding="utf-8"?>
<svg version="1.1" xmlns:xlink="http://www.w3.org/1999/xlink" width="98px" height="10px" preserveAspectRatio="xMinYMid meet" viewBox="1317 388  98 8" xmlns="http://www.w3.org/2000/svg">
  <path d="M 1318 392.5  L 1405 392.5  A 5 5 0 0 1 1410.5 397.5 L 1410.5 435  A 5 5 0 0 0 1415.5 440.5 L 1418 440.5  A 5 5 0 0 0 1423.5 435.5 L 1423.5 430  " stroke-width="1" stroke="#ff0000" fill="none" stroke-opacity="0.8" />
  <path d="M 1320 389.5  A 3 3 0 0 0 1317 392.5 A 3 3 0 0 0 1320 395.5 A 3 3 0 0 0 1323 392.5 A 3 3 0 0 0 1320 389.5 Z " fill-rule="nonzero" fill="#ff0000" stroke="none" fill-opacity="0.8" />
</svg>