<?xml version="1.0" encoding="utf-8"?>
<svg version="1.1" xmlns:xlink="http://www.w3.org/1999/xlink" width="14px" height="13px" xmlns="http://www.w3.org/2000/svg">
  <g transform="matrix(1 0 0 1 -25 -13 )">
    <path d="M 14 7  C 14 6.0546875  13.8140625 5.1390625  13.45 4.275  C 13.096875 3.440625  12.5921875 2.6921875  11.95 2.05  C 11.3078125 1.4078125  10.559375 0.903125000000003  9.72499999999999 0.549999999999997  C 8.86093750000001 0.184375000000003  7.9453125 0  7 0  C 6.0546875 0  5.13906249999999 0.184375000000003  4.27500000000001 0.549999999999997  C 3.440625 0.903125000000003  2.6921875 1.4078125  2.05 2.05  C 1.40781250000001 2.6921875  0.903125000000003 3.440625  0.549999999999997 4.275  C 0.184375000000003 5.1390625  0 6.0546875  0 7  C 0 9.0734375  0.910937500000003 11.0265625  2.49843749999999 12.3609375  L 2.52500000000001 12.3828125  C 2.61562499999999 12.4578125  2.7296875 12.5  2.846875 12.5  L 11.1546875 12.5  C 11.271875 12.5  11.3859375 12.4578125  11.4765625 12.3828125  L 11.503125 12.3609375  C 13.0890625 11.0265625  14 9.0734375  14 7  Z M 12.8125 7  C 12.8125 8.65  12.1171875 10.2109375  10.896875 11.3125  L 3.10312500000001 11.3125  C 1.8828125 10.2109375  1.1875 8.65  1.1875 7  C 1.1875 5.446875  1.7921875 3.9875  2.890625 2.890625  C 3.9890625 1.7921875  5.4484375 1.1875  7 1.1875  C 8.55312499999999 1.1875  10.0125 1.7921875  11.109375 2.890625  C 12.2078125 3.9890625  12.8125 5.4484375  12.8125 7  Z M 9.184375 5.278125  L 8.7421875 4.8359375  C 8.69374999999999 4.7875  8.6140625 4.7875  8.565625 4.8359375  L 7.2453125 6.15625  C 6.953125 6.078125  6.6296875 6.153125  6.40000000000001 6.3828125  C 6.0578125 6.725  6.0578125 7.278125  6.40000000000001 7.6203125  C 6.7421875 7.9625  7.29531249999999 7.9625  7.6375 7.6203125  C 7.8671875 7.390625  7.9421875 7.0671875  7.8640625 6.775  L 9.184375 5.4546875  C 9.23281249999999 5.40625  9.23281249999999 5.3265625  9.184375 5.278125  Z M 6.53125 3.125  C 6.53125 3.19375  6.58750000000001 3.25  6.65625 3.25  L 7.34375 3.25  C 7.41249999999999 3.25  7.46875 3.19375  7.46875 3.125  L 7.46875 1.875  C 7.46875 1.80625  7.41249999999999 1.75  7.34375 1.75  L 6.65625 1.75  C 6.58750000000001 1.75  6.53125 1.80625  6.53125 1.875  L 6.53125 3.125  Z M 10.84375 6.53125  C 10.775 6.53125  10.71875 6.5875  10.71875 6.65625  L 10.71875 7.34375  C 10.71875 7.4125  10.775 7.46875  10.84375 7.46875  L 12.09375 7.46875  C 12.1625 7.46875  12.21875 7.4125  12.21875 7.34375  L 12.21875 6.65625  C 12.21875 6.5875  12.1625 6.53125  12.09375 6.53125  L 10.84375 6.53125  Z M 10.9171875 3.7515625  C 10.965625 3.703125  10.965625 3.6234375  10.9171875 3.575  L 10.43125 3.0890625  C 10.3828125 3.040625  10.303125 3.040625  10.2546875 3.0890625  L 9.3703125 3.9734375  C 9.32187500000001 4.021875  9.32187500000001 4.1015625  9.3703125 4.15  L 9.85625 4.6359375  C 9.90468749999999 4.684375  9.984375 4.684375  10.0328125 4.6359375  L 10.9171875 3.7515625  Z M 4.6359375 3.9734375  L 3.75156250000001 3.0890625  C 3.703125 3.040625  3.62343749999999 3.040625  3.575 3.0890625  L 3.0890625 3.575  C 3.04062500000001 3.6234375  3.04062500000001 3.703125  3.0890625 3.7515625  L 3.9734375 4.6359375  C 4.02187499999999 4.684375  4.1015625 4.684375  4.15000000000001 4.6359375  L 4.6359375 4.15  C 4.684375 4.1015625  4.684375 4.021875  4.6359375 3.9734375  Z M 3.21875 6.65625  C 3.21875 6.5875  3.16249999999999 6.53125  3.09375 6.53125  L 1.84375 6.53125  C 1.77500000000001 6.53125  1.71875 6.5875  1.71875 6.65625  L 1.71875 7.34375  C 1.71875 7.4125  1.77500000000001 7.46875  1.84375 7.46875  L 3.09375 7.46875  C 3.16249999999999 7.46875  3.21875 7.4125  3.21875 7.34375  L 3.21875 6.65625  Z " fill-rule="nonzero" fill="#606266" stroke="none" transform="matrix(1 0 0 1 25 13 )" />
  </g>
</svg>