<?xml version="1.0" encoding="utf-8"?>
<svg version="1.1" xmlns:xlink="http://www.w3.org/1999/xlink" width="13px" height="13px" xmlns="http://www.w3.org/2000/svg">
  <g transform="matrix(1 0 0 1 -25 -14 )">
    <path d="M 5.93478260869566 0.28260869565217  C 5.93478260869566 0.127173913043478  5.80760869565217 0  5.65217391304347 0  L 0.282608695652172 0  C 0.127173913043485 0  0 0.127173913043478  0 0.28260869565217  L 0 5.65217391304347  C 0 5.80760869565217  0.127173913043485 5.93478260869566  0.282608695652172 5.93478260869566  L 5.65217391304347 5.93478260869566  C 5.80760869565217 5.93478260869566  5.93478260869566 5.80760869565217  5.93478260869566 5.65217391304347  L 5.93478260869566 0.28260869565217  Z M 4.73369565217391 1.20108695652174  L 4.73369565217391 4.73369565217391  L 1.20108695652174 4.73369565217391  L 1.20108695652174 1.20108695652174  L 4.73369565217391 1.20108695652174  Z M 13 0.28260869565217  C 13 0.127173913043478  12.8728260869565 0  12.7173913043478 0  L 7.34782608695653 0  C 7.19239130434782 0  7.06521739130434 0.127173913043478  7.06521739130434 0.28260869565217  L 7.06521739130434 5.65217391304347  C 7.06521739130434 5.80760869565217  7.19239130434782 5.93478260869566  7.34782608695653 5.93478260869566  L 12.7173913043478 5.93478260869566  C 12.8728260869565 5.93478260869566  13 5.80760869565217  13 5.65217391304347  L 13 0.28260869565217  Z M 11.7989130434783 1.20108695652174  L 11.7989130434783 4.73369565217391  L 8.26630434782609 4.73369565217391  L 8.26630434782609 1.20108695652174  L 11.7989130434783 1.20108695652174  Z M 5.93478260869566 7.34782608695653  C 5.93478260869566 7.19239130434783  5.80760869565217 7.06521739130434  5.65217391304347 7.06521739130434  L 0.282608695652172 7.06521739130434  C 0.127173913043485 7.06521739130434  0 7.19239130434783  0 7.34782608695653  L 0 12.7173913043478  C 0 12.8728260869565  0.127173913043485 13  0.282608695652172 13  L 5.65217391304347 13  C 5.80760869565217 13  5.93478260869566 12.8728260869565  5.93478260869566 12.7173913043478  L 5.93478260869566 7.34782608695653  Z M 4.73369565217391 8.26630434782609  L 4.73369565217391 11.7989130434783  L 1.20108695652174 11.7989130434783  L 1.20108695652174 8.26630434782609  L 4.73369565217391 8.26630434782609  Z M 13 7.34782608695653  C 13 7.19239130434783  12.8728260869565 7.06521739130434  12.7173913043478 7.06521739130434  L 7.34782608695653 7.06521739130434  C 7.19239130434782 7.06521739130434  7.06521739130434 7.19239130434783  7.06521739130434 7.34782608695653  L 7.06521739130434 12.7173913043478  C 7.06521739130434 12.8728260869565  7.19239130434782 13  7.34782608695653 13  L 12.7173913043478 13  C 12.8728260869565 13  13 12.8728260869565  13 12.7173913043478  L 13 7.34782608695653  Z M 11.7989130434783 8.26630434782609  L 11.7989130434783 11.7989130434783  L 8.26630434782609 11.7989130434783  L 8.26630434782609 8.26630434782609  L 11.7989130434783 8.26630434782609  Z " fill-rule="nonzero" fill="#606266" stroke="none" transform="matrix(1 0 0 1 25 14 )" />
  </g>
</svg>