<?xml version="1.0" encoding="utf-8"?>
<svg version="1.1" xmlns:xlink="http://www.w3.org/1999/xlink" width="13px" height="16px" xmlns="http://www.w3.org/2000/svg">
  <g transform="matrix(1 0 0 1 -24 -12 )">
    <path d="M 12.4444444444444 0.565656565656557  C 12.4444444444444 0.252777777777787  12.1916666666667 0  11.8787878787879 0  L 0.565656565656557 0  C 0.252777777777787 0  0 0.252777777777787  0 0.565656565656557  L 0 15.2727272727273  C 0 15.585606060606  0.252777777777787 15.8383838383838  0.565656565656557 15.8383838383838  L 11.8787878787879 15.8383838383838  C 12.1916666666667 15.8383838383838  12.4444444444444 15.585606060606  12.4444444444444 15.2727272727273  L 12.4444444444444 0.565656565656557  Z M 11 1.27272727272728  L 11 14.5656565656566  L 1.27272727272728 14.5656565656566  L 1.27272727272728 11.0126262626262  L 3.00328282828284 11.0126262626262  C 3.20833333333333 11.5924242424242  3.5689393939394 12.1138888888889  4.0479797979798 12.5098484848485  C 4.65782828282828 13.0136363636364  5.43030303030302 13.2929292929293  6.22222222222222 13.2929292929293  C 7.0141414141414 13.2929292929293  7.78661616161617 13.015404040404  8.39646464646464 12.5098484848485  C 8.87550505050505 12.1138888888889  9.23611111111111 11.5924242424242  9.44116161616161 11.0126262626262  L 11.1717171717172 11.0126262626262  L 11.1717171717172 9.89898989898989  L 8.54848484848485 9.89898989898989  L 8.45656565656564 10.335606060606  C 8.24444444444445 11.3926767676768  7.3040404040404 12.1616161616162  6.22222222222222 12.1616161616162  C 5.14040404040404 12.1616161616162  4.2 11.3926767676768  3.98611111111111 10.335606060606  L 3.89419191919193 9.89898989898989  L 1.27272727272728 9.89898989898989  L 1.27272727272728 1.27272727272728  L 11 1.27272727272728  Z M 2.68686868686869 4.7550505050505  C 2.68686868686869 4.83282828282828  2.75050505050505 4.89646464646464  2.82828282828283 4.89646464646464  L 9.61616161616161 4.89646464646464  C 9.6939393939394 4.89646464646464  9.75757575757575 4.83282828282828  9.75757575757575 4.7550505050505  L 9.75757575757575 3.90656565656567  C 9.75757575757575 3.82878787878788  9.6939393939394 3.7651515151515  9.61616161616161 3.7651515151515  L 2.82828282828283 3.7651515151515  C 2.75050505050505 3.7651515151515  2.68686868686869 3.82878787878788  2.68686868686869 3.90656565656567  L 2.68686868686869 4.7550505050505  Z M 2.68686868686869 7.58333333333333  C 2.68686868686869 7.66111111111111  2.75050505050505 7.72474747474747  2.82828282828283 7.72474747474747  L 9.61616161616161 7.72474747474747  C 9.6939393939394 7.72474747474747  9.75757575757575 7.66111111111111  9.75757575757575 7.58333333333333  L 9.75757575757575 6.73484848484847  C 9.75757575757575 6.65707070707072  9.6939393939394 6.59343434343434  9.61616161616161 6.59343434343434  L 2.82828282828283 6.59343434343434  C 2.75050505050505 6.59343434343434  2.68686868686869 6.65707070707072  2.68686868686869 6.73484848484847  L 2.68686868686869 7.58333333333333  Z " fill-rule="nonzero" fill="#409eff" stroke="none" transform="matrix(1 0 0 1 24 12 )" />
  </g>
</svg>