<?xml version="1.0" encoding="utf-8"?>
<svg version="1.1" xmlns:xlink="http://www.w3.org/1999/xlink" width="14px" height="15px" xmlns="http://www.w3.org/2000/svg">
  <g transform="matrix(1 0 0 1 -25 -13 )">
    <path d="M 13.8541666666667 14.3973958333333  C 13.8359375 13.5260416666667  13.65546875 12.6783854166667  13.31640625 11.878125  C 12.971875 11.0614583333333  12.4760416666667 10.3286458333333  11.8471354166667 9.69973958333333  C 11.2182291666667 9.07083333333333  10.4854166666667 8.57682291666666  9.66874999999999 8.23046875  C 9.66145833333334 8.22682291666666  9.65416666666667 8.22499999999999  9.64687499999999 8.22135416666666  C 10.7825520833333 7.40104166666666  11.5208333333333 6.06484374999999  11.5208333333333 4.55729166666666  C 11.5208333333333 2.05989583333334  9.49739583333334 0.0364583333333428  7 0.0364583333333428  C 4.50260416666666 0.0364583333333428  2.47916666666666 2.05989583333334  2.47916666666666 4.55729166666666  C 2.47916666666666 6.06484374999999  3.21744791666666 7.40104166666666  4.35312500000001 8.22317708333333  C 4.34583333333333 8.22682291666666  4.33854166666666 8.22864583333333  4.33125000000001 8.23229166666667  C 3.51458333333332 8.57682291666666  2.78177083333333 9.07083333333333  2.15286458333333 9.70156249999999  C 1.52395833333333 10.33046875  1.02994791666666 11.06328125  0.68359375 11.8799479166667  C 0.344531249999989 12.6783854166667  0.1640625 13.5260416666667  0.145833333333343 14.3973958333333  C 0.144010416666674 14.4794270833333  0.209635416666657 14.546875  0.291666666666657 14.546875  L 1.38541666666666 14.546875  C 1.46562499999999 14.546875  1.52942708333333 14.4830729166667  1.53125 14.4046875  C 1.56770833333334 12.9973958333333  2.1328125 11.6794270833333  3.13177083333332 10.68046875  C 4.16536458333334 9.64687499999999  5.53802083333332 9.078125  7 9.078125  C 8.46197916666668 9.078125  9.83463541666666 9.64687499999999  10.8682291666667 10.68046875  C 11.8671875 11.6794270833333  12.4322916666667 12.9973958333333  12.46875 14.4046875  C 12.4705729166667 14.4848958333333  12.534375 14.546875  12.6145833333333 14.546875  L 13.7083333333333 14.546875  C 13.7903645833333 14.546875  13.8559895833333 14.4794270833333  13.8541666666667 14.3973958333333  Z M 9.21666666666667 6.77395833333333  C 8.62421875000001 7.36640624999998  7.83671874999999 7.69270833333332  7 7.69270833333332  C 6.16328125000001 7.69270833333332  5.37578124999999 7.36640624999998  4.78333333333333 6.77395833333333  C 4.19088541666667 6.18151041666667  3.86458333333334 5.39401041666665  3.86458333333334 4.55729166666666  C 3.86458333333334 3.72057291666667  4.19088541666667 2.93307291666667  4.78333333333333 2.34062499999999  C 5.37578124999999 1.74817708333333  6.16328125000001 1.421875  7 1.421875  C 7.83671874999999 1.421875  8.62421875000001 1.74817708333333  9.21666666666667 2.34062499999999  C 9.80911458333333 2.93307291666667  10.1354166666667 3.72057291666667  10.1354166666667 4.55729166666666  C 10.1354166666667 5.39401041666665  9.80911458333333 6.18151041666667  9.21666666666667 6.77395833333333  Z " fill-rule="nonzero" fill="#409eff" stroke="none" transform="matrix(1 0 0 1 25 13 )" />
  </g>
</svg>