<?xml version="1.0" encoding="utf-8"?>
<svg version="1.1" xmlns:xlink="http://www.w3.org/1999/xlink" width="21px" height="20px" xmlns="http://www.w3.org/2000/svg">
  <g transform="matrix(1 0 0 1 -21 -462 )">
    <path d="M 7.06730769230767 0.721153846153746  C 7.06730769230767 0.324519230769381  6.74927884615383 0  6.36057692307692 0  L 3.39230769230767 0  C 1.51947115384617 0  0 1.55048076923062  0 3.46153846153844  L 0 6.49038461538469  C 0 6.88701923076906  0.318028846153834 7.21153846153844  0.706730769230751 7.21153846153844  C 1.09543269230767 7.21153846153844  1.4134615384615 6.88701923076906  1.4134615384615 6.49038461538469  L 1.4134615384615 3.41002747252755  C 1.4134615384615 2.94127747252755  1.63052884615383 2.4467719780221  2.0040865384615 2.06043956043946  C 2.38269230769233 1.66895604395612  2.87235576923075 1.44230769230782  3.34182692307692 1.44230769230782  L 6.36057692307692 1.44230769230782  C 6.74927884615383 1.44230769230782  7.06730769230767 1.11778846153844  7.06730769230767 0.721153846153746  Z M 21 3.41002747252755  C 21 1.52987637362652  19.5007211538462 0  17.6581730769231 0  L 14.6394230769231 0  C 14.2507211538462 0  13.9326923076923 0.324519230769381  13.9326923076923 0.721153846153746  C 13.9326923076923 1.11778846153844  14.2507211538462 1.44230769230782  14.6394230769231 1.44230769230782  L 17.6581730769231 1.44230769230782  C 18.1276442307692 1.44230769230782  18.6173076923077 1.66895604395612  18.9959134615385 2.06043956043946  C 19.3694711538462 2.4467719780221  19.5865384615385 2.94127747252755  19.5865384615385 3.41002747252755  L 19.5865384615385 6.49038461538469  C 19.5865384615385 6.88701923076906  19.9045673076923 7.21153846153844  20.2932692307693 7.21153846153844  C 20.6819711538462 7.21153846153844  21 6.88701923076906  21 6.49038461538469  L 21 3.41002747252755  Z M 7.06730769230767 19.059065934066  C 7.06730769230767 18.6624313186813  6.74927884615383 18.3379120879119  6.36057692307692 18.3379120879119  L 3.34182692307692 18.3379120879119  C 2.87235576923075 18.3379120879119  2.38269230769233 18.1112637362636  2.0040865384615 17.7197802197803  C 1.63052884615383 17.3334478021976  1.4134615384615 16.8389423076922  1.4134615384615 16.3701923076922  L 1.4134615384615 13.289835164835  C 1.4134615384615 12.8932005494507  1.09543269230767 12.5686813186813  0.706730769230751 12.5686813186813  C 0.318028846153834 12.5686813186813  0 12.8932005494507  0 13.289835164835  L 0 16.3701923076922  C 0 18.2503434065932  1.49927884615383 19.7802197802197  3.34182692307692 19.7802197802197  L 6.36057692307692 19.7802197802197  C 6.74927884615383 19.7802197802197  7.06730769230767 19.4557005494503  7.06730769230767 19.059065934066  Z M 21 13.289835164835  C 21 12.8932005494507  20.6819711538462 12.5686813186813  20.2932692307693 12.5686813186813  C 19.9045673076923 12.5686813186813  19.5865384615385 12.8932005494507  19.5865384615385 13.289835164835  L 19.5865384615385 16.3701923076922  C 19.5865384615385 16.8389423076922  19.3694711538462 17.3334478021976  18.9959134615385 17.7197802197803  C 18.6173076923077 18.1112637362636  18.1276442307692 18.3379120879119  17.6581730769231 18.3379120879119  L 14.6394230769231 18.3379120879119  C 14.2507211538462 18.3379120879119  13.9326923076923 18.6624313186813  13.9326923076923 19.059065934066  C 13.9326923076923 19.4557005494503  14.2507211538462 19.7802197802197  14.6394230769231 19.7802197802197  L 17.6076923076923 19.7802197802197  C 19.4754807692308 19.7802197802197  21 18.2297390109891  21 16.3186813186813  L 21 13.289835164835  Z " fill-rule="nonzero" fill="#606266" stroke="none" transform="matrix(1 0 0 1 21 462 )" />
  </g>
</svg>