<?xml version="1.0" encoding="utf-8"?>
<svg version="1.1" xmlns:xlink="http://www.w3.org/1999/xlink" width="21px" height="21px" xmlns="http://www.w3.org/2000/svg">
  <g transform="matrix(1 0 0 1 -21 -409 )">
    <path d="M 20.6672727272726 20.7545454545453  C 21.0272727272726 20.4109090909091  21.0381818181818 19.8436363636364  20.7000000000001 19.4836363636364  L 14.8745454545454 13.6036363636365  C 16.0145454545456 12.1745454545456  16.7018181818181 10.3636363636364  16.7018181818181 8.3945454545455  C 16.7018181818181 3.78545454545456  12.9654545454543 0.0490909090909327  8.35090909090907 0.0490909090909327  C 3.73636363636379 0.0490909090909327  0 3.79090909090905  0 8.4  C 0 13.0090909090909  3.73636363636379 16.7454545454544  8.35090909090907 16.7454545454544  C 10.3472727272729 16.7454545454544  12.1745454545456 16.0472727272727  13.6145454545456 14.8799999999999  L 19.401818181818 20.7218181818182  C 19.5763636363634 20.9072727272726  19.8163636363638 21  20.0509090909093 21  C 20.2745454545456 21  20.498181818182 20.9181818181819  20.6672727272726 20.7545454545453  Z M 12.9872727272726 13.0309090909089  C 11.7490909090911 14.2690909090911  10.1018181818182 14.950909090909  8.35090909090907 14.950909090909  C 6.59999999999993 14.950909090909  4.95272727272747 14.2690909090911  3.71454545454549 13.0309090909089  C 2.4763636363635 11.7927272727273  1.79454545454525 10.1454545454546  1.79454545454525 8.4  C 1.79454545454525 6.64909090909086  2.4763636363635 5.00181818181809  3.71454545454549 3.76909090909107  C 4.95272727272747 2.53090909090893  6.59999999999993 1.849090909091  8.35090909090907 1.849090909091  C 10.1018181818182 1.849090909091  11.7490909090911 2.53090909090893  12.9872727272726 3.76909090909107  C 14.2254545454546 5.00727272727274  14.9072727272729 6.65454545454536  14.9072727272729 8.4  C 14.9072727272729 10.1509090909091  14.2254545454546 11.7981818181819  12.9872727272726 13.0309090909089  Z " fill-rule="nonzero" fill="#606266" stroke="none" transform="matrix(1 0 0 1 21 409 )" />
  </g>
</svg>