<?xml version="1.0" encoding="utf-8"?>
<svg version="1.1" xmlns:xlink="http://www.w3.org/1999/xlink" width="25px" height="23px" xmlns="http://www.w3.org/2000/svg">
  <g transform="matrix(1 0 0 1 -317 -183 )">
    <path d="M 8.41346153846151 0.829326923076808  C 8.41346153846151 0.373197115384788  8.03485576923075 0  7.57211538461538 0  L 4.03846153846151 0  C 1.80889423076925 0  0 1.78305288461521  0 3.9807692307692  L 0 7.46394230769239  C 0 7.92007211538441  0.378605769230755 8.2932692307692  0.841346153846132 8.2932692307692  C 1.30408653846151 8.2932692307692  1.68269230769226 7.92007211538441  1.68269230769226 7.46394230769239  L 1.68269230769226 3.92153159340668  C 1.68269230769226 3.38246909340668  1.94110576923075 2.81378777472542  2.38581730769226 2.36950549450538  C 2.83653846153849 1.91929945054954  3.41947115384613 1.65865384615399  3.97836538461538 1.65865384615399  L 7.57211538461538 1.65865384615399  C 8.03485576923075 1.65865384615399  8.41346153846151 1.2854567307692  8.41346153846151 0.829326923076808  Z M 25 3.92153159340668  C 25 1.7593578296705  23.2151442307692 0  21.0216346153846 0  L 17.4278846153846 0  C 16.9651442307692 0  16.5865384615385 0.373197115384788  16.5865384615385 0.829326923076808  C 16.5865384615385 1.2854567307692  16.9651442307692 1.65865384615399  17.4278846153846 1.65865384615399  L 21.0216346153846 1.65865384615399  C 21.5805288461539 1.65865384615399  22.1634615384615 1.91929945054954  22.6141826923077 2.36950549450538  C 23.0588942307692 2.81378777472542  23.3173076923077 3.38246909340668  23.3173076923077 3.92153159340668  L 23.3173076923077 7.46394230769239  C 23.3173076923077 7.92007211538441  23.6959134615385 8.2932692307692  24.1586538461539 8.2932692307692  C 24.6213942307692 8.2932692307692  25 7.92007211538441  25 7.46394230769239  L 25 3.92153159340668  Z M 8.41346153846151 21.9179258241759  C 8.41346153846151 21.4617960164835  8.03485576923075 21.0885989010987  7.57211538461538 21.0885989010987  L 3.97836538461538 21.0885989010987  C 3.41947115384613 21.0885989010987  2.83653846153849 20.8279532967032  2.38581730769226 20.3777472527473  C 1.94110576923075 19.9334649725273  1.68269230769226 19.364783653846  1.68269230769226 18.825721153846  L 1.68269230769226 15.2833104395603  C 1.68269230769226 14.8271806318683  1.30408653846151 14.4539835164835  0.841346153846132 14.4539835164835  C 0.378605769230755 14.4539835164835  0 14.8271806318683  0 15.2833104395603  L 0 18.825721153846  C 0 20.9878949175822  1.78485576923075 22.7472527472527  3.97836538461538 22.7472527472527  L 7.57211538461538 22.7472527472527  C 8.03485576923075 22.7472527472527  8.41346153846151 22.3740556318679  8.41346153846151 21.9179258241759  Z M 25 15.2833104395603  C 25 14.8271806318683  24.6213942307692 14.4539835164835  24.1586538461539 14.4539835164835  C 23.6959134615385 14.4539835164835  23.3173076923077 14.8271806318683  23.3173076923077 15.2833104395603  L 23.3173076923077 18.825721153846  C 23.3173076923077 19.364783653846  23.0588942307692 19.9334649725273  22.6141826923077 20.3777472527473  C 22.1634615384615 20.8279532967032  21.5805288461539 21.0885989010987  21.0216346153846 21.0885989010987  L 17.4278846153846 21.0885989010987  C 16.9651442307692 21.0885989010987  16.5865384615385 21.4617960164835  16.5865384615385 21.9179258241759  C 16.5865384615385 22.3740556318679  16.9651442307692 22.7472527472527  17.4278846153846 22.7472527472527  L 20.9615384615385 22.7472527472527  C 23.1850961538461 22.7472527472527  25 20.9641998626375  25 18.7664835164835  L 25 15.2833104395603  Z " fill-rule="nonzero" fill="#606266" stroke="none" transform="matrix(1 0 0 1 317 183 )" />
  </g>
</svg>