<?xml version="1.0" encoding="utf-8"?>
<svg version="1.1" xmlns:xlink="http://www.w3.org/1999/xlink" width="18px" height="17px" xmlns="http://www.w3.org/2000/svg">
  <g transform="matrix(1 0 0 1 -317 -576 )">
    <path d="M 6.05769230769229 0.612980769230684  C 6.05769230769229 0.275841346153974  5.78509615384614 0  5.45192307692307 0  L 2.90769230769229 0  C 1.30240384615386 0  0 1.31790865384603  0 2.94230769230767  L 0 5.51682692307699  C 0 5.8539663461537  0.272596153846143 6.12980769230767  0.605769230769215 6.12980769230767  C 0.938942307692287 6.12980769230767  1.21153846153843 5.8539663461537  1.21153846153843 5.51682692307699  L 1.21153846153843 2.89852335164842  C 1.21153846153843 2.50008585164842  1.39759615384614 2.07975618131879  1.71778846153843 1.75137362637354  C 2.04230769230771 1.4186126373627  2.46201923076922 1.22596153846164  2.86442307692307 1.22596153846164  L 5.45192307692307 1.22596153846164  C 5.78509615384614 1.22596153846164  6.05769230769229 0.950120192307671  6.05769230769229 0.612980769230684  Z M 18 2.89852335164842  C 18 1.30039491758255  16.7149038461539 0  15.1355769230769 0  L 12.5480769230769 0  C 12.2149038461539 0  11.9423076923077 0.275841346153974  11.9423076923077 0.612980769230684  C 11.9423076923077 0.950120192307671  12.2149038461539 1.22596153846164  12.5480769230769 1.22596153846164  L 15.1355769230769 1.22596153846164  C 15.5379807692308 1.22596153846164  15.9576923076923 1.4186126373627  16.2822115384616 1.75137362637354  C 16.6024038461539 2.07975618131879  16.7884615384616 2.50008585164842  16.7884615384616 2.89852335164842  L 16.7884615384616 5.51682692307699  C 16.7884615384616 5.8539663461537  17.0610576923077 6.12980769230767  17.3942307692308 6.12980769230767  C 17.7274038461539 6.12980769230767  18 5.8539663461537  18 5.51682692307699  L 18 2.89852335164842  Z M 6.05769230769229 16.2002060439561  C 6.05769230769229 15.8630666208791  5.78509615384614 15.5872252747251  5.45192307692307 15.5872252747251  L 2.86442307692307 15.5872252747251  C 2.46201923076922 15.5872252747251  2.04230769230771 15.3945741758241  1.71778846153843 15.0618131868132  C 1.39759615384614 14.733430631868  1.21153846153843 14.3131009615384  1.21153846153843 13.9146634615384  L 1.21153846153843 11.2963598901098  C 1.21153846153843 10.9592204670331  0.938942307692287 10.6833791208791  0.605769230769215 10.6833791208791  C 0.272596153846143 10.6833791208791  0 10.9592204670331  0 11.2963598901098  L 0 13.9146634615384  C 0 15.5127918956042  1.28509615384614 16.8131868131868  2.86442307692307 16.8131868131868  L 5.45192307692307 16.8131868131868  C 5.78509615384614 16.8131868131868  6.05769230769229 16.5373454670328  6.05769230769229 16.2002060439561  Z M 18 11.2963598901098  C 18 10.9592204670331  17.7274038461539 10.6833791208791  17.3942307692308 10.6833791208791  C 17.0610576923077 10.6833791208791  16.7884615384616 10.9592204670331  16.7884615384616 11.2963598901098  L 16.7884615384616 13.9146634615384  C 16.7884615384616 14.3131009615384  16.6024038461539 14.733430631868  16.2822115384616 15.0618131868132  C 15.9576923076923 15.3945741758241  15.5379807692308 15.5872252747251  15.1355769230769 15.5872252747251  L 12.5480769230769 15.5872252747251  C 12.2149038461539 15.5872252747251  11.9423076923077 15.8630666208791  11.9423076923077 16.2002060439561  C 11.9423076923077 16.5373454670328  12.2149038461539 16.8131868131868  12.5480769230769 16.8131868131868  L 15.0923076923077 16.8131868131868  C 16.6932692307692 16.8131868131868  18 15.4952781593407  18 13.8708791208791  L 18 11.2963598901098  Z " fill-rule="nonzero" fill="#606266" stroke="none" transform="matrix(1 0 0 1 317 576 )" />
  </g>
</svg>