<?xml version="1.0" encoding="utf-8"?>
<svg version="1.1" xmlns:xlink="http://www.w3.org/1999/xlink" width="21px" height="21px" xmlns="http://www.w3.org/2000/svg">
  <g transform="matrix(1 0 0 1 -16 -302 )">
    <path d="M 26.5 302  C 32.38 302  37 306.62  37 312.5  C 37 318.38  32.38 323  26.5 323  C 20.62 323  16 318.38  16 312.5  C 16 306.62  20.62 302  26.5 302  Z " fill-rule="nonzero" fill="#ffffff" stroke="none" />
    <path d="M 26.5 302.5  C 32.1 302.5  36.5 306.9  36.5 312.5  C 36.5 318.1  32.1 322.5  26.5 322.5  C 20.9 322.5  16.5 318.1  16.5 312.5  C 16.5 306.9  20.9 302.5  26.5 302.5  Z " stroke-width="1" stroke="#797979" fill="none" />
  </g>
</svg>