<?xml version="1.0" encoding="utf-8"?>
<svg version="1.1" xmlns:xlink="http://www.w3.org/1999/xlink" width="70px" height="70px" xmlns="http://www.w3.org/2000/svg">
  <g transform="matrix(1 0 0 1 -30 -87 )">
    <path d="M 65 87  C 84.6 87  100 102.4  100 122  C 100 141.6  84.6 157  65 157  C 45.4 157  30 141.6  30 122  C 30 102.4  45.4 87  65 87  Z " fill-rule="nonzero" fill="#ffffff" stroke="none" />
    <path d="M 65 87.5  C 84.32 87.5  99.5 102.68  99.5 122  C 99.5 141.32  84.32 156.5  65 156.5  C 45.68 156.5  30.5 141.32  30.5 122  C 30.5 102.68  45.68 87.5  65 87.5  Z " stroke-width="1" stroke="#797979" fill="none" />
  </g>
</svg>