<?xml version="1.0" encoding="utf-8"?>
<svg version="1.1" xmlns:xlink="http://www.w3.org/1999/xlink" width="12px" height="12px" viewBox="599 1253  12 12" xmlns="http://www.w3.org/2000/svg">
  <path d="M 605 1253  C 608.36 1253  611 1255.64  611 1259  C 611 1262.36  608.36 1265  605 1265  C 601.64 1265  599 1262.36  599 1259  C 599 1255.64  601.64 1253  605 1253  Z " fill-rule="nonzero" fill="#f0f0f0" stroke="none" />
  <path d="M 605 1253.5  C 608.08 1253.5  610.5 1255.92  610.5 1259  C 610.5 1262.08  608.08 1264.5  605 1264.5  C 601.92 1264.5  599.5 1262.08  599.5 1259  C 599.5 1255.92  601.92 1253.5  605 1253.5  Z " stroke-width="1" stroke="#797979" fill="none" />
  <path d="M 605 1262  C 603.32 1262  602 1260.68  602 1259  C 602 1257.32  603.32 1256  605 1256  C 606.68 1256  608 1257.32  608 1259  C 608 1260.68  606.68 1262  605 1262  " fill-rule="nonzero" fill="#797979" stroke="none" />
</svg>