<?xml version="1.0" encoding="utf-8"?>
<svg version="1.1" xmlns:xlink="http://www.w3.org/1999/xlink" width="12px" height="12px" viewBox="485 1292  12 12" xmlns="http://www.w3.org/2000/svg">
  <path d="M 491 1292  C 494.36 1292  497 1294.64  497 1298  C 497 1301.36  494.36 1304  491 1304  C 487.64 1304  485 1301.36  485 1298  C 485 1294.64  487.64 1292  491 1292  Z " fill-rule="nonzero" fill="#f0f0f0" stroke="none" />
  <path d="M 491 1292.5  C 494.08 1292.5  496.5 1294.92  496.5 1298  C 496.5 1301.08  494.08 1303.5  491 1303.5  C 487.92 1303.5  485.5 1301.08  485.5 1298  C 485.5 1294.92  487.92 1292.5  491 1292.5  Z " stroke-width="1" stroke="#797979" fill="none" />
  <path d="M 491 1301  C 489.32 1301  488 1299.68  488 1298  C 488 1296.32  489.32 1295  491 1295  C 492.68 1295  494 1296.32  494 1298  C 494 1299.68  492.68 1301  491 1301  " fill-rule="nonzero" fill="#797979" stroke="none" />
</svg>