<?xml version="1.0" encoding="utf-8"?>
<svg version="1.1" xmlns:xlink="http://www.w3.org/1999/xlink" width="12px" height="12px" viewBox="699 1253  12 12" xmlns="http://www.w3.org/2000/svg">
  <path d="M 705 1253  C 708.36 1253  711 1255.64  711 1259  C 711 1262.36  708.36 1265  705 1265  C 701.64 1265  699 1262.36  699 1259  C 699 1255.64  701.64 1253  705 1253  Z " fill-rule="nonzero" fill="#f0f0f0" stroke="none" />
  <path d="M 705 1253.5  C 708.08 1253.5  710.5 1255.92  710.5 1259  C 710.5 1262.08  708.08 1264.5  705 1264.5  C 701.92 1264.5  699.5 1262.08  699.5 1259  C 699.5 1255.92  701.92 1253.5  705 1253.5  Z " stroke-width="1" stroke="#797979" fill="none" />
  <path d="M 705 1262  C 703.32 1262  702 1260.68  702 1259  C 702 1257.32  703.32 1256  705 1256  C 706.68 1256  708 1257.32  708 1259  C 708 1260.68  706.68 1262  705 1262  " fill-rule="nonzero" fill="#797979" stroke="none" />
</svg>