<?xml version="1.0" encoding="utf-8"?>
<svg version="1.1" xmlns:xlink="http://www.w3.org/1999/xlink" width="12px" height="12px" viewBox="485 1378  12 12" xmlns="http://www.w3.org/2000/svg">
  <path d="M 491 1378  C 494.36 1378  497 1380.64  497 1384  C 497 1387.36  494.36 1390  491 1390  C 487.64 1390  485 1387.36  485 1384  C 485 1380.64  487.64 1378  491 1378  Z " fill-rule="nonzero" fill="#f0f0f0" stroke="none" />
  <path d="M 491 1378.5  C 494.08 1378.5  496.5 1380.92  496.5 1384  C 496.5 1387.08  494.08 1389.5  491 1389.5  C 487.92 1389.5  485.5 1387.08  485.5 1384  C 485.5 1380.92  487.92 1378.5  491 1378.5  Z " stroke-width="1" stroke="#797979" fill="none" />
  <path d="M 491 1387  C 489.32 1387  488 1385.68  488 1384  C 488 1382.32  489.32 1381  491 1381  C 492.68 1381  494 1382.32  494 1384  C 494 1385.68  492.68 1387  491 1387  " fill-rule="nonzero" fill="#797979" stroke="none" />
</svg>