<?xml version="1.0" encoding="utf-8"?>
<svg version="1.1" xmlns:xlink="http://www.w3.org/1999/xlink" width="12px" height="12px" viewBox="485 1337  12 12" xmlns="http://www.w3.org/2000/svg">
  <path d="M 491 1337  C 494.36 1337  497 1339.64  497 1343  C 497 1346.36  494.36 1349  491 1349  C 487.64 1349  485 1346.36  485 1343  C 485 1339.64  487.64 1337  491 1337  Z " fill-rule="nonzero" fill="#f0f0f0" stroke="none" />
  <path d="M 491 1337.5  C 494.08 1337.5  496.5 1339.92  496.5 1343  C 496.5 1346.08  494.08 1348.5  491 1348.5  C 487.92 1348.5  485.5 1346.08  485.5 1343  C 485.5 1339.92  487.92 1337.5  491 1337.5  Z " stroke-width="1" stroke="#797979" fill="none" />
  <path d="M 491 1346  C 489.32 1346  488 1344.68  488 1343  C 488 1341.32  489.32 1340  491 1340  C 492.68 1340  494 1341.32  494 1343  C 494 1344.68  492.68 1346  491 1346  " fill-rule="nonzero" fill="#797979" stroke="none" />
</svg>