<?xml version="1.0" encoding="utf-8"?>
<svg version="1.1" xmlns:xlink="http://www.w3.org/1999/xlink" width="12px" height="12px" viewBox="699 1378  12 12" xmlns="http://www.w3.org/2000/svg">
  <path d="M 705 1378  C 708.36 1378  711 1380.64  711 1384  C 711 1387.36  708.36 1390  705 1390  C 701.64 1390  699 1387.36  699 1384  C 699 1380.64  701.64 1378  705 1378  Z " fill-rule="nonzero" fill="#ffffff" stroke="none" />
  <path d="M 705 1378.5  C 708.08 1378.5  710.5 1380.92  710.5 1384  C 710.5 1387.08  708.08 1389.5  705 1389.5  C 701.92 1389.5  699.5 1387.08  699.5 1384  C 699.5 1380.92  701.92 1378.5  705 1378.5  Z " stroke-width="1" stroke="#797979" fill="none" />
  <path d="M 705 1387  C 703.32 1387  702 1385.68  702 1384  C 702 1382.32  703.32 1381  705 1381  C 706.68 1381  708 1382.32  708 1384  C 708 1385.68  706.68 1387  705 1387  " fill-rule="nonzero" fill="#797979" stroke="none" />
</svg>