<?xml version="1.0" encoding="utf-8"?>
<svg version="1.1" xmlns:xlink="http://www.w3.org/1999/xlink" width="12px" height="12px" viewBox="699 1292  12 12" xmlns="http://www.w3.org/2000/svg">
  <path d="M 705 1292  C 708.36 1292  711 1294.64  711 1298  C 711 1301.36  708.36 1304  705 1304  C 701.64 1304  699 1301.36  699 1298  C 699 1294.64  701.64 1292  705 1292  Z " fill-rule="nonzero" fill="#f0f0f0" stroke="none" />
  <path d="M 705 1292.5  C 708.08 1292.5  710.5 1294.92  710.5 1298  C 710.5 1301.08  708.08 1303.5  705 1303.5  C 701.92 1303.5  699.5 1301.08  699.5 1298  C 699.5 1294.92  701.92 1292.5  705 1292.5  Z " stroke-width="1" stroke="#797979" fill="none" />
  <path d="M 705 1301  C 703.32 1301  702 1299.68  702 1298  C 702 1296.32  703.32 1295  705 1295  C 706.68 1295  708 1296.32  708 1298  C 708 1299.68  706.68 1301  705 1301  " fill-rule="nonzero" fill="#797979" stroke="none" />
</svg>