<?xml version="1.0" encoding="utf-8"?>
<svg version="1.1" xmlns:xlink="http://www.w3.org/1999/xlink" width="12px" height="12px" viewBox="599 1337  12 12" xmlns="http://www.w3.org/2000/svg">
  <path d="M 605 1337  C 608.36 1337  611 1339.64  611 1343  C 611 1346.36  608.36 1349  605 1349  C 601.64 1349  599 1346.36  599 1343  C 599 1339.64  601.64 1337  605 1337  Z " fill-rule="nonzero" fill="#f0f0f0" stroke="none" />
  <path d="M 605 1337.5  C 608.08 1337.5  610.5 1339.92  610.5 1343  C 610.5 1346.08  608.08 1348.5  605 1348.5  C 601.92 1348.5  599.5 1346.08  599.5 1343  C 599.5 1339.92  601.92 1337.5  605 1337.5  Z " stroke-width="1" stroke="#797979" fill="none" />
  <path d="M 605 1346  C 603.32 1346  602 1344.68  602 1343  C 602 1341.32  603.32 1340  605 1340  C 606.68 1340  608 1341.32  608 1343  C 608 1344.68  606.68 1346  605 1346  " fill-rule="nonzero" fill="#797979" stroke="none" />
</svg>