<?xml version="1.0" encoding="utf-8"?>
<svg version="1.1" xmlns:xlink="http://www.w3.org/1999/xlink" width="12px" height="12px" viewBox="599 1462  12 12" xmlns="http://www.w3.org/2000/svg">
  <path d="M 605 1462  C 608.36 1462  611 1464.64  611 1468  C 611 1471.36  608.36 1474  605 1474  C 601.64 1474  599 1471.36  599 1468  C 599 1464.64  601.64 1462  605 1462  Z " fill-rule="nonzero" fill="#ffffff" stroke="none" />
  <path d="M 605 1462.5  C 608.08 1462.5  610.5 1464.92  610.5 1468  C 610.5 1471.08  608.08 1473.5  605 1473.5  C 601.92 1473.5  599.5 1471.08  599.5 1468  C 599.5 1464.92  601.92 1462.5  605 1462.5  Z " stroke-width="1" stroke="#797979" fill="none" />
  <path d="M 605 1471  C 603.32 1471  602 1469.68  602 1468  C 602 1466.32  603.32 1465  605 1465  C 606.68 1465  608 1466.32  608 1468  C 608 1469.68  606.68 1471  605 1471  " fill-rule="nonzero" fill="#797979" stroke="none" />
</svg>