<?xml version="1.0" encoding="utf-8"?>
<svg version="1.1" xmlns:xlink="http://www.w3.org/1999/xlink" width="12px" height="12px" viewBox="599 1417  12 12" xmlns="http://www.w3.org/2000/svg">
  <path d="M 605 1417  C 608.36 1417  611 1419.64  611 1423  C 611 1426.36  608.36 1429  605 1429  C 601.64 1429  599 1426.36  599 1423  C 599 1419.64  601.64 1417  605 1417  Z " fill-rule="nonzero" fill="#ffffff" stroke="none" />
  <path d="M 605 1417.5  C 608.08 1417.5  610.5 1419.92  610.5 1423  C 610.5 1426.08  608.08 1428.5  605 1428.5  C 601.92 1428.5  599.5 1426.08  599.5 1423  C 599.5 1419.92  601.92 1417.5  605 1417.5  Z " stroke-width="1" stroke="#797979" fill="none" />
  <path d="M 605 1426  C 603.32 1426  602 1424.68  602 1423  C 602 1421.32  603.32 1420  605 1420  C 606.68 1420  608 1421.32  608 1423  C 608 1424.68  606.68 1426  605 1426  " fill-rule="nonzero" fill="#797979" stroke="none" />
</svg>