<?xml version="1.0" encoding="utf-8"?>
<svg version="1.1" xmlns:xlink="http://www.w3.org/1999/xlink" width="12px" height="12px" viewBox="699 1337  12 12" xmlns="http://www.w3.org/2000/svg">
  <path d="M 705 1337  C 708.36 1337  711 1339.64  711 1343  C 711 1346.36  708.36 1349  705 1349  C 701.64 1349  699 1346.36  699 1343  C 699 1339.64  701.64 1337  705 1337  Z " fill-rule="nonzero" fill="#f0f0f0" stroke="none" />
  <path d="M 705 1337.5  C 708.08 1337.5  710.5 1339.92  710.5 1343  C 710.5 1346.08  708.08 1348.5  705 1348.5  C 701.92 1348.5  699.5 1346.08  699.5 1343  C 699.5 1339.92  701.92 1337.5  705 1337.5  Z " stroke-width="1" stroke="#797979" fill="none" />
  <path d="M 705 1346  C 703.32 1346  702 1344.68  702 1343  C 702 1341.32  703.32 1340  705 1340  C 706.68 1340  708 1341.32  708 1343  C 708 1344.68  706.68 1346  705 1346  " fill-rule="nonzero" fill="#797979" stroke="none" />
</svg>