<?xml version="1.0" encoding="utf-8"?>
<svg version="1.1" xmlns:xlink="http://www.w3.org/1999/xlink" width="12px" height="12px" viewBox="485 1417  12 12" xmlns="http://www.w3.org/2000/svg">
  <path d="M 491 1417  C 494.36 1417  497 1419.64  497 1423  C 497 1426.36  494.36 1429  491 1429  C 487.64 1429  485 1426.36  485 1423  C 485 1419.64  487.64 1417  491 1417  Z " fill-rule="nonzero" fill="#f0f0f0" stroke="none" />
  <path d="M 491 1417.5  C 494.08 1417.5  496.5 1419.92  496.5 1423  C 496.5 1426.08  494.08 1428.5  491 1428.5  C 487.92 1428.5  485.5 1426.08  485.5 1423  C 485.5 1419.92  487.92 1417.5  491 1417.5  Z " stroke-width="1" stroke="#797979" fill="none" />
  <path d="M 491 1426  C 489.32 1426  488 1424.68  488 1423  C 488 1421.32  489.32 1420  491 1420  C 492.68 1420  494 1421.32  494 1423  C 494 1424.68  492.68 1426  491 1426  " fill-rule="nonzero" fill="#797979" stroke="none" />
</svg>