<?xml version="1.0" encoding="utf-8"?>
<svg version="1.1" xmlns:xlink="http://www.w3.org/1999/xlink" width="12px" height="12px" viewBox="699 1417  12 12" xmlns="http://www.w3.org/2000/svg">
  <path d="M 705 1417  C 708.36 1417  711 1419.64  711 1423  C 711 1426.36  708.36 1429  705 1429  C 701.64 1429  699 1426.36  699 1423  C 699 1419.64  701.64 1417  705 1417  Z " fill-rule="nonzero" fill="#f0f0f0" stroke="none" />
  <path d="M 705 1417.5  C 708.08 1417.5  710.5 1419.92  710.5 1423  C 710.5 1426.08  708.08 1428.5  705 1428.5  C 701.92 1428.5  699.5 1426.08  699.5 1423  C 699.5 1419.92  701.92 1417.5  705 1417.5  Z " stroke-width="1" stroke="#797979" fill="none" />
  <path d="M 705 1426  C 703.32 1426  702 1424.68  702 1423  C 702 1421.32  703.32 1420  705 1420  C 706.68 1420  708 1421.32  708 1423  C 708 1424.68  706.68 1426  705 1426  " fill-rule="nonzero" fill="#797979" stroke="none" />
</svg>