<?xml version="1.0" encoding="utf-8"?>
<svg version="1.1" xmlns:xlink="http://www.w3.org/1999/xlink" width="12px" height="12px" viewBox="699 1462  12 12" xmlns="http://www.w3.org/2000/svg">
  <path d="M 705 1462  C 708.36 1462  711 1464.64  711 1468  C 711 1471.36  708.36 1474  705 1474  C 701.64 1474  699 1471.36  699 1468  C 699 1464.64  701.64 1462  705 1462  Z " fill-rule="nonzero" fill="#ffffff" stroke="none" />
  <path d="M 705 1462.5  C 708.08 1462.5  710.5 1464.92  710.5 1468  C 710.5 1471.08  708.08 1473.5  705 1473.5  C 701.92 1473.5  699.5 1471.08  699.5 1468  C 699.5 1464.92  701.92 1462.5  705 1462.5  Z " stroke-width="1" stroke="#797979" fill="none" />
  <path d="M 705 1471  C 703.32 1471  702 1469.68  702 1468  C 702 1466.32  703.32 1465  705 1465  C 706.68 1465  708 1466.32  708 1468  C 708 1469.68  706.68 1471  705 1471  " fill-rule="nonzero" fill="#797979" stroke="none" />
</svg>