<?xml version="1.0" encoding="utf-8"?>
<svg version="1.1" xmlns:xlink="http://www.w3.org/1999/xlink" width="27px" height="23px" xmlns="http://www.w3.org/2000/svg">
  <g transform="matrix(1 0 0 1 -23 -6 )">
    <path d="M 26.666015625 18.74140625  C 26.888671875 18.9690104166667  27 19.2385416666667  27 19.55  L 27 21.85  C 27 22.1614583333333  26.888671875 22.4309895833333  26.666015625 22.65859375  C 26.443359375 22.8861979166667  26.1796875 23  25.875 23  L 1.125 23  C 0.8203125 23  0.556640625 22.8861979166667  0.333984375 22.65859375  C 0.111328125 22.4309895833333  0 22.1614583333333  0 21.85  L 0 19.55  C 0 19.2385416666667  0.111328125 18.9690104166667  0.333984375 18.74140625  C 0.556640625 18.5138020833333  0.8203125 18.4  1.125 18  L 25.875 18  C 26.1796875 18.4  26.443359375 18.5138020833333  26.666015625 18.74140625  Z M 26.666015625 9.54140625  C 26.888671875 9.76901041666667  27 10.0385416666667  27 10.35  L 27 12.65  C 27 12.9614583333333  26.888671875 13.2309895833333  26.666015625 13.45859375  C 26.443359375 13.6861979166667  26.1796875 13.8  25.875 13.8  L 1.125 13.8  C 0.8203125 13.8  0.556640625 13.6861979166667  0.333984375 13.45859375  C 0.111328125 13.2309895833333  0 12.9614583333333  0 12.65  L 0 10.35  C 0 10.0385416666667  0.111328125 9.76901041666667  0.333984375 9.54140625  C 0.556640625 9.31380208333334  0.8203125 9.2  1.125 9.2  L 25.875 9.2  C 26.1796875 9.2  26.443359375 9.31380208333334  26.666015625 9.54140625  Z M 26.666015625 0.341406250000001  C 26.888671875 0.569010416666665  27 0.838541666666665  27 1.15  L 27 3.45  C 27 3.76145833333333  26.888671875 4.03098958333333  26.666015625 4.25859375  C 26.443359375 4.48619791666666  26.1796875 4.6  25.875 5  L 1.125 5  C 0.8203125 4.6  0.556640625 4.48619791666666  0.333984375 4.25859375  C 0.111328125 4.03098958333333  0 3.76145833333333  0 3.45  L 0 1.15  C 0 0.838541666666665  0.111328125 0.569010416666665  0.333984375 0.341406250000001  C 0.556640625 0.113802083333332  0.8203125 0  1.125 0  L 25.875 0  C 26.1796875 0  26.443359375 0.113802083333332  26.666015625 0.341406250000001  Z " fill-rule="nonzero" fill="#409eff" stroke="none" transform="matrix(1 0 0 1 23 6 )" />
  </g>
</svg>