<?xml version="1.0" encoding="utf-8"?>
<svg version="1.1" xmlns:xlink="http://www.w3.org/1999/xlink" width="8px" height="11px" xmlns="http://www.w3.org/2000/svg">
  <g transform="matrix(1 0 0 1 -1051 -241 )">
    <path d="M 7.1552196193265 9.72822565885798  L 4.19624450951684 5.65938323572474  L 7.1551317715959 1.5905508784773  C 7.3047267876404 1.38328469427664  7.3047267876404 1.04890509342467  7.1551317715959 0.841638909224011  L 7.1389019033675 0.819322840409955  C 6.98811146904132 0.61368691323094  6.74494123959704 0.61368691323094  6.59415080527086 0.819322840409955  L 3.63508052708638 4.89328879941435  L 0.67592972181552 0.817611639824304  C 0.525170959783851 0.611984315548212  0.282025233481157 0.611984315548212  0.131266471449488 0.817611639824304  L 0.115036603221084 0.83992770863836  C 0.0415081580843264 0.938306775474439  2.9722462194471E-05 1.07338184412186  2.9722462194471E-05 1.21444912152269  C 2.9722462194471E-05 1.35551639892353  0.0415081580843264 1.49059146757095  0.115036603221084 1.58897053440703  L 3.07418740849195 5.65938323572474  L 0.115036603221084 9.72821559297218  C -0.0345153829780047 9.93551007358262  -0.034515382978004 10.2698431475008  0.115036603221084 10.4771376281113  L 0.131266471449488 10.4994536969253  C 0.282005514504514 10.7051468439865  0.525190678760495 10.7051468439865  0.67592972181552 10.4994536969253  L 3.63508052708638 6.43062133967789  L 6.59423133235725 10.4994536969253  C 6.74500127151445 10.7051675727691  6.9882198119409 10.7051675727691  7.1389897510981 10.4994536969253  L 7.1552196193265 10.4771376281113  C 7.304814635371 10.2698714439106  7.304814635371 9.93549184305864  7.1552196193265 9.72822565885798  Z " fill-rule="nonzero" fill="#aaaaaa" stroke="none" transform="matrix(1 0 0 1 1051 241 )" />
  </g>
</svg>