<?xml version="1.0" encoding="utf-8"?>
<svg version="1.1" xmlns:xlink="http://www.w3.org/1999/xlink" width="66px" height="66px" xmlns="http://www.w3.org/2000/svg">
  <g transform="matrix(1 0 0 1 -92 -521 )">
    <path d="M 93 527  A 5 5 0 0 1 98 522 L 152 522  A 5 5 0 0 1 157 527 L 157 581  A 5 5 0 0 1 152 586 L 98 586  A 5 5 0 0 1 93 581 L 93 527  Z " fill-rule="nonzero" fill="#ffffff" stroke="none" />
    <path d="M 92.5 527  A 5.5 5.5 0 0 1 98 521.5 L 152 521.5  A 5.5 5.5 0 0 1 157.5 527 L 157.5 581  A 5.5 5.5 0 0 1 152 586.5 L 98 586.5  A 5.5 5.5 0 0 1 92.5 581 L 92.5 527  Z " stroke-width="1" stroke-dasharray="3,1" stroke="#40a9ff" fill="none" stroke-dashoffset="0.5" />
  </g>
</svg>