<?xml version="1.0" encoding="utf-8"?>
<svg version="1.1" xmlns:xlink="http://www.w3.org/1999/xlink" width="60px" height="55px" xmlns="http://www.w3.org/2000/svg">
  <g transform="matrix(1 0 0 1 -573 -502 )">
    <path d="M 573 502  L 633 502  L 633 557  L 573 557  L 573 502  " fill-rule="nonzero" fill="#cccccc" stroke="none" />
    <path d="M 577 506  L 629 506  L 629 553  L 577 553  L 577 506  " fill-rule="nonzero" fill="#ffffff" stroke="none" />
    <path d="M 608.325 518.5  C 606.015 518.5  604.2 516.685  604.2 514.375  C 604.2 512.065  606.015 510.25  608.325 510.25  C 610.635 510.25  612.45 512.065  612.45 514.375  C 612.45 516.685  610.635 518.5  608.325 518.5  " fill-rule="nonzero" fill="#cccccc" stroke="none" />
    <path d="M 579 552  L 579 527.8  L 591.25 516.8  L 608.4 527.8  L 618.2 523.4  L 628 527.8  L 628 552  L 579 552  " fill-rule="nonzero" fill="#169bd5" stroke="none" />
  </g>
</svg>