<?xml version="1.0" encoding="utf-8"?>
<svg version="1.1" xmlns:xlink="http://www.w3.org/1999/xlink" width="13px" height="13px" xmlns="http://www.w3.org/2000/svg">
  <g transform="matrix(1 0 0 1 -16 -840 )">
    <path d="M 22.5 840  C 26.14 840  29 842.86  29 846.5  C 29 850.14  26.14 853  22.5 853  C 18.86 853  16 850.14  16 846.5  C 16 842.86  18.86 840  22.5 840  Z " fill-rule="nonzero" fill="#ffffff" stroke="none" />
    <path d="M 22.5 840.5  C 25.86 840.5  28.5 843.14  28.5 846.5  C 28.5 849.86  25.86 852.5  22.5 852.5  C 19.14 852.5  16.5 849.86  16.5 846.5  C 16.5 843.14  19.14 840.5  22.5 840.5  Z " stroke-width="1" stroke="#797979" fill="none" />
  </g>
</svg>