<?xml version="1.0" encoding="utf-8"?>
<svg version="1.1" xmlns:xlink="http://www.w3.org/1999/xlink" width="12px" height="12px" viewBox="1837 358  12 12" xmlns="http://www.w3.org/2000/svg">
  <path d="M 1843 358  C 1846.36 358  1849 360.64  1849 364  C 1849 367.36  1846.36 370  1843 370  C 1839.64 370  1837 367.36  1837 364  C 1837 360.64  1839.64 358  1843 358  Z " fill-rule="nonzero" fill="#f0f0f0" stroke="none" />
  <path d="M 1843 358.5  C 1846.08 358.5  1848.5 360.92  1848.5 364  C 1848.5 367.08  1846.08 369.5  1843 369.5  C 1839.92 369.5  1837.5 367.08  1837.5 364  C 1837.5 360.92  1839.92 358.5  1843 358.5  Z " stroke-width="1" stroke="#797979" fill="none" />
  <path d="M 1843 367  C 1841.32 367  1840 365.68  1840 364  C 1840 362.32  1841.32 361  1843 361  C 1844.68 361  1846 362.32  1846 364  C 1846 365.68  1844.68 367  1843 367  " fill-rule="nonzero" fill="#797979" stroke="none" />
</svg>