<?xml version="1.0" encoding="utf-8"?>
<svg version="1.1" xmlns:xlink="http://www.w3.org/1999/xlink" width="90px" height="85px" xmlns="http://www.w3.org/2000/svg">
  <g transform="matrix(1 0 0 1 -1626 -367 )">
    <path d="M 1626 367  L 1716 367  L 1716 452  L 1626 452  L 1626 367  " fill-rule="nonzero" fill="#cccccc" stroke="none" />
    <path d="M 1632 373  L 1710 373  L 1710 446  L 1632 446  L 1632 373  " fill-rule="nonzero" fill="#ffffff" stroke="none" />
    <path d="M 1679.175 392.5  C 1675.605 392.5  1672.8 389.695  1672.8 386.125  C 1672.8 382.555  1675.605 379.75  1679.175 379.75  C 1682.745 379.75  1685.55 382.555  1685.55 386.125  C 1685.55 389.695  1682.745 392.5  1679.175 392.5  " fill-rule="nonzero" fill="#cccccc" stroke="none" />
    <path d="M 1634 444  L 1634 406.05  L 1652.5 388.8  L 1678.4 404.9  L 1693.2 399.15  L 1708 404.9  L 1708 444  L 1634 444  " fill-rule="nonzero" fill="#169bd5" stroke="none" />
  </g>
</svg>