<?xml version="1.0" encoding="utf-8"?>
<svg version="1.1" xmlns:xlink="http://www.w3.org/1999/xlink" width="255px" height="29px" viewBox="112 69  255 29" xmlns="http://www.w3.org/2000/svg">
  <path d="M 113 73  A 3 3 0 0 1 116 70 L 363 70  A 3 3 0 0 1 366 73 L 366 94  A 3 3 0 0 1 363 97 L 116 97  A 3 3 0 0 1 113 94 L 113 73  Z " fill-rule="nonzero" fill="#f0f0f0" stroke="none" />
  <path d="M 112.5 73  A 3.5 3.5 0 0 1 116 69.5 L 363 69.5  A 3.5 3.5 0 0 1 366.5 73 L 366.5 94  A 3.5 3.5 0 0 1 363 97.5 L 116 97.5  A 3.5 3.5 0 0 1 112.5 94 L 112.5 73  Z " stroke-width="1" stroke="#797979" fill="none" stroke-opacity="0.501960784313725" />
</svg>