<?xml version="1.0" encoding="utf-8"?>
<svg version="1.1" xmlns:xlink="http://www.w3.org/1999/xlink" width="341px" height="29px" viewBox="17 79  341 29" xmlns="http://www.w3.org/2000/svg">
  <path d="M 18 83  A 3 3 0 0 1 21 80 L 354 80  A 3 3 0 0 1 357 83 L 357 104  A 3 3 0 0 1 354 107 L 21 107  A 3 3 0 0 1 18 104 L 18 83  Z " fill-rule="nonzero" fill="#ffffff" stroke="none" />
  <path d="M 17.5 83  A 3.5 3.5 0 0 1 21 79.5 L 354 79.5  A 3.5 3.5 0 0 1 357.5 83 L 357.5 104  A 3.5 3.5 0 0 1 354 107.5 L 21 107.5  A 3.5 3.5 0 0 1 17.5 104 L 17.5 83  Z " stroke-width="1" stroke="#797979" fill="none" stroke-opacity="0.447058823529412" />
</svg>