<?xml version="1.0" encoding="utf-8"?>
<svg version="1.1" xmlns:xlink="http://www.w3.org/1999/xlink" width="349px" height="145px" viewBox="13 76  349 145" xmlns="http://www.w3.org/2000/svg">
  <path d="M 14 81  A 4 4 0 0 1 18 77 L 357 77  A 4 4 0 0 1 361 81 L 361 216  A 4 4 0 0 1 357 220 L 18 220  A 4 4 0 0 1 14 216 L 14 81  Z " fill-rule="nonzero" fill="#ffffff" stroke="none" />
  <path d="M 13.5 81  A 4.5 4.5 0 0 1 18 76.5 L 357 76.5  A 4.5 4.5 0 0 1 361.5 81 L 361.5 216  A 4.5 4.5 0 0 1 357 220.5 L 18 220.5  A 4.5 4.5 0 0 1 13.5 216 L 13.5 81  Z " stroke-width="1" stroke="#797979" fill="none" stroke-opacity="0.415686274509804" />
</svg>