<?xml version="1.0" encoding="utf-8"?>
<svg version="1.1" xmlns:xlink="http://www.w3.org/1999/xlink" width="5px" height="9px" xmlns="http://www.w3.org/2000/svg">
  <g transform="matrix(1 0 0 1 -192 -542 )">
    <path d="M 4.80120937641723 8.87755101658164  C 4.72864701814059 8.97551019642857  4.63189721088435 9  4.53514739229025 9  C 4.43839758503401 9  4.34164776643991 8.97551020790817  4.29327286848072 8.90204082015306  L 0.181405895691608 4.86122449362245  C 0.108843537414967 4.78775510586735  0.0604686281179114 4.68979592602041  0.0604686281179114 4.59183673469388  C 0.0604686281179114 4.49387755484694  0.108843537414963 4.39591836352041  0.181405895691608 4.3224489757653  L 4.31746031746031 0.28163264923469  C 4.4625850340136 0.134693873724492  4.68027210884353 0.134693873724492  4.82539682539682 0.28163264923469  C 4.97052154195011 0.428571424744896  4.97052154195011 0.648979588010205  4.82539682539682 0.795918363520411  L 0.955404387755101 4.59183673469388  L 4.80120937641723 8.36326530229592  C 4.94633409297052 8.51020407780612  4.94633409297052 8.73061224107143  4.80120937641723 8.87755101658164  Z " fill-rule="nonzero" fill="#2a71d4" stroke="none" transform="matrix(1 0 0 1 192 542 )" />
  </g>
</svg>