<?xml version="1.0" encoding="utf-8"?>
<svg version="1.1" xmlns:xlink="http://www.w3.org/1999/xlink" width="47px" height="54px" xmlns="http://www.w3.org/2000/svg">
  <g transform="matrix(1 0 0 1 -8 -129 )">
    <path d="M 8 129  L 55 129  L 55 183  L 8 183  L 8 129  " fill-rule="nonzero" fill="#cccccc" stroke="none" />
    <path d="M 11 132  L 52 132  L 52 180  L 11 180  L 11 132  " fill-rule="nonzero" fill="#ffffff" stroke="none" />
    <path d="M 35.965 144.15  C 33.991 144.15  32.44 142.599  32.44 140.625  C 32.44 138.651  33.991 137.1  35.965 137.1  C 37.939 137.1  39.49 138.651  39.49 140.625  C 39.49 142.599  37.939 144.15  35.965 144.15  " fill-rule="nonzero" fill="#cccccc" stroke="none" />
    <path d="M 12 179  L 12 153.7  L 21.75 142.2  L 35.4 151.4  L 43.2 149.1  L 51 151.4  L 51 179  L 12 179  " fill-rule="nonzero" fill="#169bd5" stroke="none" />
  </g>
</svg>