<?xml version="1.0" encoding="utf-8"?>
<svg version="1.1" xmlns:xlink="http://www.w3.org/1999/xlink" width="12px" height="12px" viewBox="1708 454  12 12" xmlns="http://www.w3.org/2000/svg">
  <path d="M 1714 454  C 1717.36 454  1720 456.64  1720 460  C 1720 463.36  1717.36 466  1714 466  C 1710.64 466  1708 463.36  1708 460  C 1708 456.64  1710.64 454  1714 454  Z " fill-rule="nonzero" fill="#f0f0f0" stroke="none" />
  <path d="M 1714 454.5  C 1717.08 454.5  1719.5 456.92  1719.5 460  C 1719.5 463.08  1717.08 465.5  1714 465.5  C 1710.92 465.5  1708.5 463.08  1708.5 460  C 1708.5 456.92  1710.92 454.5  1714 454.5  Z " stroke-width="1" stroke="#797979" fill="none" />
  <path d="M 1714 463  C 1712.32 463  1711 461.68  1711 460  C 1711 458.32  1712.32 457  1714 457  C 1715.68 457  1717 458.32  1717 460  C 1717 461.68  1715.68 463  1714 463  " fill-rule="nonzero" fill="#797979" stroke="none" />
</svg>