<?xml version="1.0" encoding="utf-8"?>
<svg version="1.1" xmlns:xlink="http://www.w3.org/1999/xlink" width="12px" height="12px" viewBox="1799 454  12 12" xmlns="http://www.w3.org/2000/svg">
  <path d="M 1805 454  C 1808.36 454  1811 456.64  1811 460  C 1811 463.36  1808.36 466  1805 466  C 1801.64 466  1799 463.36  1799 460  C 1799 456.64  1801.64 454  1805 454  Z " fill-rule="nonzero" fill="#ffffff" stroke="none" />
  <path d="M 1805 454.5  C 1808.08 454.5  1810.5 456.92  1810.5 460  C 1810.5 463.08  1808.08 465.5  1805 465.5  C 1801.92 465.5  1799.5 463.08  1799.5 460  C 1799.5 456.92  1801.92 454.5  1805 454.5  Z " stroke-width="1" stroke="#797979" fill="none" />
  <path d="M 1805 463  C 1803.32 463  1802 461.68  1802 460  C 1802 458.32  1803.32 457  1805 457  C 1806.68 457  1808 458.32  1808 460  C 1808 461.68  1806.68 463  1805 463  " fill-rule="nonzero" fill="#797979" stroke="none" />
</svg>