<?xml version="1.0" encoding="utf-8"?>
<svg version="1.1" xmlns:xlink="http://www.w3.org/1999/xlink" width="423px" height="55px" viewBox="286 229  423 55" xmlns="http://www.w3.org/2000/svg">
  <path d="M 287 239  A 9 9 0 0 1 296 230 L 699 230  A 9 9 0 0 1 708 239 L 708 274  A 9 9 0 0 1 699 283 L 296 283  A 9 9 0 0 1 287 274 L 287 239  Z " fill-rule="nonzero" fill="#ffffff" stroke="none" />
  <path d="M 286.5 239  A 9.5 9.5 0 0 1 296 229.5 L 699 229.5  A 9.5 9.5 0 0 1 708.5 239 L 708.5 274  A 9.5 9.5 0 0 1 699 283.5 L 296 283.5  A 9.5 9.5 0 0 1 286.5 274 L 286.5 239  Z " stroke-width="1" stroke="#797979" fill="none" stroke-opacity="0.447058823529412" />
</svg>