<?xml version="1.0" encoding="utf-8"?>
<svg version="1.1" xmlns:xlink="http://www.w3.org/1999/xlink" width="13px" height="7px" xmlns="http://www.w3.org/2000/svg">
  <g transform="matrix(1 0 0 1 -10 -13 )">
    <path d="M 2.75830078125 6.267626953125  L 1.732373046875 6.267626953125  L 0.766796875 6.267626953125  C 0.3443359375 6.267626953125  0.16328125 6.086572265625  0.1029296875 5.7848388671875  L 0.1029296875 4.75888671875  C 0.1029296875 4.45712890625  0.344335937499999 4.27607421875  0.706445312500001 4.27607421875  L 2.7583251953125 4.27607421875  C 3.18076171875 4.27607421875  3.36181640625 4.45712890625  3.36181640625 4.81923828125  L 3.36181640625 5.784814453125  C 3.36181640625 6.086572265625  3.18076171875 6.267626953125  2.75830078125 6.267626953125  Z M 6.4396484375 6.267626953125  L 5.474072265625 6.267626953125  C 5.051611328125 6.267626953125  4.810205078125 6.086572265625  4.810205078125 5.7848388671875  L 4.810205078125 4.81923828125  C 4.810205078125 4.45712890625  4.991259765625 4.33642578125  5.413720703125 4.27607421875  L 7.4052490234375 4.27607421875  C 7.767333984375 4.27607421875  8.0087646484375 4.45712890625  8.0087646484375 4.75888671875  L 8.0087646484375 5.7848388671875  C 8.0087646484375 6.0865966796875  7.767333984375 6.267626953125  7.4052490234375 6.267626953125  L 6.4396728515625 6.267626953125  Z M 10.06064453125 4.33642578125  C 10.4227294921875 4.2157470703125  10.7848388671875 4.27607421875  11.146923828125 4.27607421875  L 12.1728759765625 4.27607421875  C 12.5349609375 4.27607421875  12.7763916015625 4.45712890625  12.716015625 4.75888671875  L 12.716015625 5.8451904296875  C 12.716015625 6.1469482421875  12.474609375 6.327978515625  12.1125 6.327978515625  L 10.06064453125 6.327978515625  C 9.69853515625 6.327978515625  9.45712890625 6.146923828125  9.45712890625 5.8451904296875  L 9.45712890625 4.81923828125  C 9.45712890625 4.51748046875  9.69853515625 4.33642578125  10.06064453125 4.33642578125  Z M 7.465576171875 2.827685546875  L 6.4396484375 2.827685546875  L 5.4136962890625 2.827685546875  C 4.991259765625 2.827685546875  4.810205078125 2.706982421875  4.810205078125 2.3448974609375  L 4.810205078125 1.25859375  C 4.810205078125 0.956835937500001  4.991259765625 0.836157226562502  5.3533447265625 0.836157226562502  L 7.4656005859375 0.836157226562502  C 7.827685546875 0.836157226562502  8.008740234375 1.0172119140625  8.069091796875 1.3189453125  L 8.069091796875 2.3448974609375  C 8.069091796875 2.6466552734375  7.888037109375 2.827685546875  7.465576171875 2.827685546875  Z M 0.766796874999997 0.775805664062499  C 1.0685302734375 0.836157226562499  1.370263671875 0.836157226562499  1.732373046875 0.836157226562502  L 2.7583251953125 0.836157226562502  C 3.12041015625 0.836157226562502  3.36181640625 1.0172119140625  3.36181640625 1.25859375  L 3.36181640625 2.3448974609375  C 3.36181640625 2.6466552734375  3.18076171875 2.767333984375  2.8186767578125 2.767333984375  L 0.706420898437498 2.767333984375  C 0.344335937499998 2.767333984375  0.163281249999998 2.6466552734375  0.163281249999998 2.3448974609375  L 0.163281249999998 1.1982421875  C 0.163281249999998 0.896484375  0.404687499999998 0.775805664062499  0.766796874999997 0.775805664062499  Z M 12.1125244140625 2.767333984375  C 11.8107666015625 2.827685546875  11.448681640625 2.827685546875  11.086572265625 2.827685546875  L 10.06064453125 2.827685546875  C 9.69853515625 2.827685546875  9.45712890625 2.6466552734375  9.45712890625 2.3448974609375  L 9.45712890625 1.25859375  C 9.45712890625 0.956835937500001  9.63818359375 0.836157226562502  10.00029296875 0.836157226562502  L 12.1125244140625 0.836157226562502  C 12.474609375 0.836157226562502  12.6556640625 1.0172119140625  12.6556640625 1.25859375  L 12.6556640625 2.3448974609375  C 12.6556640625 2.5863037109375  12.474609375 2.767333984375  12.1125244140625 2.767333984375  Z " fill-rule="nonzero" fill="#aaaaaa" stroke="none" transform="matrix(1 0 0 1 10 13 )" />
  </g>
</svg>