<?xml version="1.0" encoding="utf-8"?>
<svg version="1.1" xmlns:xlink="http://www.w3.org/1999/xlink" width="20px" height="17px" xmlns="http://www.w3.org/2000/svg">
  <g transform="matrix(1 0 0 1 -6 -6 )">
    <path d="M 17.922998046875 16.466162109375  C 15.509033203125 16.345458984375  12.9139892578125 16.345458984375  10.379296875 16.345458984375  L 2.835595703125 16.345458984375  C 2.1717529296875 16.345458984375  1.6285888671875 16.164404296875  1.20615234375 15.741943359375  C 1.02509765625 15.5609130859375  0.964746093749999 15.3195068359375  1 15.078125  L 1 3.611669921875  C 0.964746093749999 2.9478271484375  1.6889404296875 2.4046875  2.533837890625 2.3443359375  L 4.1029296875 2.3443359375  C 4.3443359375 2.3443359375  4.4650390625 2.283984375  4.4650390625 2.1029296875  L 4.4650390625 1.6201416015625  C 4.5857177734375 1.1373291015625  4.9478271484375 0.895947265625001  5.551318359375 0.895947265625001  C 6.034130859375 0.895947265625001  6.3962158203125 1.197705078125  6.456591796875 1.6804931640625  L 6.456591796875 1.7408447265625  C 6.5169189453125 2.4046630859375  6.5169189453125 2.4046630859375  7.30146484375 2.4046630859375  L 13.87958984375 2.4046630859375  C 14.18134765625 2.4046630859375  14.3020263671875 2.3443359375  14.3020263671875 2.1029296875  L 14.3020263671875 1.6804931640625  C 14.3623779296875 1.1976806640625  14.7848388671875 0.956298828125001  15.327978515625 0.956298828125001  C 15.8711181640625 0.956298828125001  16.2332275390625 1.258056640625  16.2935546875 1.6804931640625  C 16.2935546875 1.921875  16.1728759765625 2.2236328125  16.3539306640625 2.3443115234375  C 16.5953125 2.4650390625  16.957421875 2.4046875  17.2591552734375 2.4046875  L 18.1644287109375 2.4046875  C 19.0696533203125 2.4650390625  19.79384765625 3.0081787109375  19.79384765625 3.732373046875  L 19.79384765625 15.078125  C 19.79384765625 15.8626708984375  19.0093017578125 16.405810546875  17.922998046875 16.466162109375  Z M 10.4396484375 6.0256591796875  L 2.895947265625 6.0256591796875  C 2.594189453125 6.0256591796875  2.473486328125 6.0860107421875  2.473486328125 6.3274169921875  L 2.473486328125 14.6556640625  C 2.473486328125 15.0177734375  2.654541015625 15.078125  3.0166259765625 15  L 17.8626708984375 15  C 18.405810546875 15.078125  18.405810546875 15.078125  18.405810546875 14.6556640625  L 18.405810546875 6.3877685546875  C 18.405810546875 6.0860107421875  18.345458984375 6.0256591796875  17.9833740234375 6.0256591796875  L 10.4396728515625 6.0256591796875  Z " fill-rule="nonzero" fill="#aaaaaa" stroke="none" transform="matrix(1 0 0 1 6 6 )" />
  </g>
</svg>