<?xml version="1.0" encoding="utf-8"?>
<svg version="1.1" xmlns:xlink="http://www.w3.org/1999/xlink" width="21px" height="21px" xmlns="http://www.w3.org/2000/svg">
  <g transform="matrix(1 0 0 1 -344 -69 )">
    <path d="M 7.53629032258065 0.867943548387097  C 7.53629032258065 0.651592741935484  7.60569052419355 0.474017137096774  7.74449092741936 0.335216733870968  C 7.88329133064516 0.196416330645162  8.06086693548387 0.127016129032258  8.27721774193548 0.127016129032258  C 8.4935685483871 0.127016129032258  8.67114415322581 0.196416330645161  8.80994455645161 0.335216733870968  C 8.94874495967742 0.474017137096774  9.01814516129032 0.651592741935484  9 0.867943548387097  L 9 19.0903125  C 9.01814516129032 19.2449193548387  8.97566532258065 19.3800151209677  8.89070564516129 19.4955997983871  C 8.80574596774194 19.6111844758065  8.69386592741936 19.6998487903226  8.55506552419355 19.7615927419355  C 8.41626512096774 19.8233366935484  8.27351310483871 19.8388961693548  8.12680947580645 19.8082711693548  C 7.98010584677419 19.7776461693548  7.85266633064516 19.7082459677419  7.74449092741936 19.6000705645161  L 0.867943548387097 12.7235231854839  C 0.72914314516129 12.5847227822581  0.659742943548387 12.4110987903226  0.659742943548387 12.2026512096774  C 0.659742943548387 11.9942036290323  0.72914314516129 11.8205796370968  0.867943548387097 11.681779233871  C 1.02255040322581 11.5271723790323  1.19617439516129 11.4498689516129  1.38881552419355 11.4498689516129  C 1.58145665322581 11.4498689516129  1.75508064516129 11.5271723790323  1.9096875 11.681779233871  L 7.53629032258065 17.3083820564516  L 7.53629032258065 0.868684475806451  Z M 12 1.90894657258065  L 11.9818548387097 1.9096875  C 11.9818548387097 1.75508064516129  12.0243346774194 1.61998487903226  12.1092943548387 1.5044002016129  C 12.1942540322581 1.38881552419355  12.3061340725806 1.30015120967742  12.4449344758065 1.23840725806452  C 12.5837348790323 1.17666330645161  12.7264868951613 1.16110383064516  12.8731905241935 1.19172883064516  C 13.0198941532258 1.22235383064516  13.1473336693548 1.29175403225806  13.2555090725806 1.39992943548387  L 20.1320564516129 8.27647681451613  C 20.2708568548387 8.41527721774194  20.3402570564516 8.58890120967742  20.3402570564516 8.79734879032258  C 20.3402570564516 9.00579637096774  20.2708568548387 9.17942036290323  20.1320564516129 9.31822076612903  C 19.9774495967742 9.47282762096774  19.8038256048387 9.5501310483871  19.6111844758064 9.5501310483871  C 19.4185433467742 9.5501310483871  19.2449193548387 9.47282762096774  19.0903125 9.31822076612903  L 13.4637096774194 3.69161794354839  L 13.4637096774194 20.1313155241935  C 13.4637096774194 20.3476663306452  13.3943094758065 20.5252419354839  13.2555090725806 20.6640423387097  C 13.1167086693548 20.8028427419355  12.9391330645161 20.8722429435484  12.7227822580645 20.8722429435484  C 12.5064314516129 20.8722429435484  12.3288558467742 20.8028427419355  12.1900554435484 20.6640423387097  C 12.0512550403226 20.5252419354839  11.9818548387097 20.3476663306452  12 20.1313155241935  L 12 1.90894657258065  Z " fill-rule="nonzero" fill="#000000" stroke="none" transform="matrix(1 0 0 1 344 69 )" />
  </g>
</svg>