<?xml version="1.0" encoding="utf-8"?>
<svg version="1.1" xmlns:xlink="http://www.w3.org/1999/xlink" width="10px" height="12px" xmlns="http://www.w3.org/2000/svg">
  <g transform="matrix(1 0 0 1 -132 -220 )">
    <path d="M 8.93797554347826 6.45977678571428  L 5.47554347826087 10.0925892857143  L 5.47554347826087 0.746651785714286  C 5.47554347826087 0.609776785714286  5.4310009057971 0.497433035714286  5.34191576086957 0.409620535714285  C 5.25283061594203 0.321808035714285  5.13885869565217 0.277901785714286  5 0.277901785714286  C 4.86114130434783 0.277901785714286  4.74716938405797 0.321808035714286  4.65808423913044 0.409620535714285  C 4.5689990942029 0.497433035714285  4.52445652173913 0.609776785714285  4.52445652173913 0.746651785714286  L 4.52445652173913 10.0925892857143  L 1.06202445652174 6.45977678571428  C 0.962794384057971 6.36196428571429  0.848822463768116 6.31305803571428  0.720108695652174 6.31305803571428  C 0.591394927536232 6.31305803571428  0.479959239130434 6.36430803571429  0.385801630434782 6.46680803571429  C 0.291644021739131 6.56930803571429  0.244565217391304 6.68399553571429  0.244565217391304 6.81087053571428  C 0.244565217391304 6.93774553571429  0.289107789855073 7.05493303571429  0.378192934782608 7.16243303571428  L 4.65808423913043 11.6450892857143  C 4.7573143115942 11.7429017857143  4.87128623188406 11.7918080357143  5 11.7918080357143  C 5.12871376811594 11.7918080357143  5.2426856884058 11.7429017857143  5.34191576086956 11.6450892857143  L 9.62180706521739 7.16243303571428  C 9.71089221014492 7.05493303571429  9.75543478260869 6.93774553571429  9.75543478260869 6.81087053571428  C 9.75543478260869 6.68399553571429  9.70835597826087 6.56930803571429  9.61419836956522 6.46680803571428  C 9.52004076086956 6.36430803571428  9.40860507246377 6.31305803571428  9.27989130434782 6.31305803571428  C 9.15117753623188 6.31305803571428  9.03720561594203 6.36196428571429  8.93797554347826 6.45977678571428  Z " fill-rule="nonzero" fill="#95f204" stroke="none" transform="matrix(1 0 0 1 132 220 )" />
  </g>
</svg>