<?xml version="1.0" encoding="utf-8"?>
<svg version="1.1" xmlns:xlink="http://www.w3.org/1999/xlink" width="12px" height="12px" viewBox="2274 890  12 12" xmlns="http://www.w3.org/2000/svg">
  <path d="M 2280 890  C 2283.36 890  2286 892.64  2286 896  C 2286 899.36  2283.36 902  2280 902  C 2276.64 902  2274 899.36  2274 896  C 2274 892.64  2276.64 890  2280 890  Z " fill-rule="nonzero" fill="#ffffff" stroke="none" />
  <path d="M 2280 890.5  C 2283.08 890.5  2285.5 892.92  2285.5 896  C 2285.5 899.08  2283.08 901.5  2280 901.5  C 2276.92 901.5  2274.5 899.08  2274.5 896  C 2274.5 892.92  2276.92 890.5  2280 890.5  Z " stroke-width="1" stroke="#797979" fill="none" />
  <path d="M 2280 899  C 2278.32 899  2277 897.68  2277 896  C 2277 894.32  2278.32 893  2280 893  C 2281.68 893  2283 894.32  2283 896  C 2283 897.68  2281.68 899  2280 899  " fill-rule="nonzero" fill="#797979" stroke="none" />
</svg>