<?xml version="1.0" encoding="utf-8"?>
<svg version="1.1" xmlns:xlink="http://www.w3.org/1999/xlink" width="42px" height="42px" xmlns="http://www.w3.org/2000/svg">
  <g transform="matrix(1 0 0 1 -1043 -24 )">
    <path d="M 12.84375 1.6640625  C 15.4375 0.5546875  18.15625 0  21 0  C 23.84375 0  26.5625 0.5546875  29.15625 1.6640625  C 31.75 2.7734375  33.984375 4.265625  35.859375 6.140625  C 37.734375 8.015625  39.2265625 10.25  40.3359375 12.84375  C 41.4453125 15.4375  42 18.15625  42 21  C 42 23.84375  41.4453125 26.5625  40.3359375 29.15625  C 39.2265625 31.75  37.734375 33.984375  35.859375 35.859375  C 33.984375 37.734375  31.75 39.2265625  29.15625 40.3359375  C 26.5625 41.4453125  23.84375 42  21 42  C 18.15625 42  15.4375 41.4453125  12.84375 40.3359375  C 10.25 39.2265625  8.015625 37.734375  6.140625 35.859375  C 4.265625 33.984375  2.7734375 31.75  1.6640625 29.15625  C 0.5546875 26.5625  0 23.84375  0 21  C 0 18.15625  0.5546875 15.4375  1.6640625 12.84375  C 2.7734375 10.25  4.265625 8.015625  6.140625 6.140625  C 8.015625 4.265625  10.25 2.7734375  12.84375 1.6640625  Z M 29.4609375 5.109375  C 26.7890625 3.703125  23.96875 3  21 3  C 18.03125 3  15.2109375 3.703125  12.5390625 5.109375  L 17.0859375 9.65625  C 18.3671875 9.21875  19.671875 9  21 9  C 22.328125 9  23.6328125 9.21875  24.9140625 9.65625  L 29.4609375 5.109375  Z M 3 21  C 3 23.96875  3.703125 26.7890625  5.109375 29.4609375  L 9.65625 24.9140625  C 9.21875 23.6328125  9 22.328125  9 21  C 9 19.671875  9.21875 18.3671875  9.65625 17.0859375  L 5.109375 12.5390625  C 3.703125 15.2109375  3 18.03125  3 21  Z M 12.5390625 36.890625  C 15.2109375 38.296875  18.03125 39  21 39  C 23.96875 39  26.7890625 38.296875  29.4609375 36.890625  L 24.9140625 32.34375  C 23.6328125 32.78125  22.328125 33  21 33  C 19.671875 33  18.3671875 32.78125  17.0859375 32.34375  L 12.5390625 36.890625  Z M 14.63671875 27.36328125  C 16.39453125 29.12109375  18.515625 30  21 30  C 23.484375 30  25.60546875 29.12109375  27.36328125 27.36328125  C 29.12109375 25.60546875  30 23.484375  30 21  C 30 18.515625  29.12109375 16.39453125  27.36328125 14.63671875  C 25.60546875 12.87890625  23.484375 12  21 12  C 18.515625 12  16.39453125 12.87890625  14.63671875 14.63671875  C 12.87890625 16.39453125  12 18.515625  12 21  C 12 23.484375  12.87890625 25.60546875  14.63671875 27.36328125  Z M 33 21  C 33 22.328125  32.78125 23.6328125  32.34375 24.9140625  L 36.890625 29.4609375  C 38.296875 26.7890625  39 23.96875  39 21  C 39 18.03125  38.296875 15.2109375  36.890625 12.5390625  L 32.34375 17.0859375  C 32.78125 18.3671875  33 19.671875  33 21  Z " fill-rule="nonzero" fill="#000000" stroke="none" transform="matrix(1 0 0 1 1043 24 )" />
  </g>
</svg>