<?xml version="1.0" encoding="utf-8"?>
<svg version="1.1" xmlns:xlink="http://www.w3.org/1999/xlink" width="12px" height="12px" viewBox="2388 890  12 12" xmlns="http://www.w3.org/2000/svg">
  <path d="M 2394 890  C 2397.36 890  2400 892.64  2400 896  C 2400 899.36  2397.36 902  2394 902  C 2390.64 902  2388 899.36  2388 896  C 2388 892.64  2390.64 890  2394 890  Z " fill-rule="nonzero" fill="#f0f0f0" stroke="none" />
  <path d="M 2394 890.5  C 2397.08 890.5  2399.5 892.92  2399.5 896  C 2399.5 899.08  2397.08 901.5  2394 901.5  C 2390.92 901.5  2388.5 899.08  2388.5 896  C 2388.5 892.92  2390.92 890.5  2394 890.5  Z " stroke-width="1" stroke="#797979" fill="none" />
  <path d="M 2394 899  C 2392.32 899  2391 897.68  2391 896  C 2391 894.32  2392.32 893  2394 893  C 2395.68 893  2397 894.32  2397 896  C 2397 897.68  2395.68 899  2394 899  " fill-rule="nonzero" fill="#797979" stroke="none" />
</svg>