<?xml version="1.0" encoding="utf-8"?>
<svg version="1.1" xmlns:xlink="http://www.w3.org/1999/xlink" width="12px" height="12px" viewBox="2274 1018  12 12" xmlns="http://www.w3.org/2000/svg">
  <path d="M 2280 1018  C 2283.36 1018  2286 1020.64  2286 1024  C 2286 1027.36  2283.36 1030  2280 1030  C 2276.64 1030  2274 1027.36  2274 1024  C 2274 1020.64  2276.64 1018  2280 1018  Z " fill-rule="nonzero" fill="#f0f0f0" stroke="none" />
  <path d="M 2280 1018.5  C 2283.08 1018.5  2285.5 1020.92  2285.5 1024  C 2285.5 1027.08  2283.08 1029.5  2280 1029.5  C 2276.92 1029.5  2274.5 1027.08  2274.5 1024  C 2274.5 1020.92  2276.92 1018.5  2280 1018.5  Z " stroke-width="1" stroke="#797979" fill="none" />
  <path d="M 2280 1027  C 2278.32 1027  2277 1025.68  2277 1024  C 2277 1022.32  2278.32 1021  2280 1021  C 2281.68 1021  2283 1022.32  2283 1024  C 2283 1025.68  2281.68 1027  2280 1027  " fill-rule="nonzero" fill="#797979" stroke="none" />
</svg>