<?xml version="1.0" encoding="utf-8"?>
<svg version="1.1" xmlns:xlink="http://www.w3.org/1999/xlink" width="12px" height="12px" viewBox="2388 1018  12 12" xmlns="http://www.w3.org/2000/svg">
  <path d="M 2394 1018  C 2397.36 1018  2400 1020.64  2400 1024  C 2400 1027.36  2397.36 1030  2394 1030  C 2390.64 1030  2388 1027.36  2388 1024  C 2388 1020.64  2390.64 1018  2394 1018  Z " fill-rule="nonzero" fill="#ffffff" stroke="none" />
  <path d="M 2394 1018.5  C 2397.08 1018.5  2399.5 1020.92  2399.5 1024  C 2399.5 1027.08  2397.08 1029.5  2394 1029.5  C 2390.92 1029.5  2388.5 1027.08  2388.5 1024  C 2388.5 1020.92  2390.92 1018.5  2394 1018.5  Z " stroke-width="1" stroke="#797979" fill="none" />
  <path d="M 2394 1027  C 2392.32 1027  2391 1025.68  2391 1024  C 2391 1022.32  2392.32 1021  2394 1021  C 2395.68 1021  2397 1022.32  2397 1024  C 2397 1025.68  2395.68 1027  2394 1027  " fill-rule="nonzero" fill="#797979" stroke="none" />
</svg>