<?xml version="1.0" encoding="utf-8"?>
<svg version="1.1" xmlns:xlink="http://www.w3.org/1999/xlink" width="12px" height="12px" viewBox="2388 1152  12 12" xmlns="http://www.w3.org/2000/svg">
  <path d="M 2394 1152  C 2397.36 1152  2400 1154.64  2400 1158  C 2400 1161.36  2397.36 1164  2394 1164  C 2390.64 1164  2388 1161.36  2388 1158  C 2388 1154.64  2390.64 1152  2394 1152  Z " fill-rule="nonzero" fill="#f0f0f0" stroke="none" />
  <path d="M 2394 1152.5  C 2397.08 1152.5  2399.5 1154.92  2399.5 1158  C 2399.5 1161.08  2397.08 1163.5  2394 1163.5  C 2390.92 1163.5  2388.5 1161.08  2388.5 1158  C 2388.5 1154.92  2390.92 1152.5  2394 1152.5  Z " stroke-width="1" stroke="#797979" fill="none" />
  <path d="M 2394 1161  C 2392.32 1161  2391 1159.68  2391 1158  C 2391 1156.32  2392.32 1155  2394 1155  C 2395.68 1155  2397 1156.32  2397 1158  C 2397 1159.68  2395.68 1161  2394 1161  " fill-rule="nonzero" fill="#797979" stroke="none" />
</svg>