<?xml version="1.0" encoding="utf-8"?>
<svg version="1.1" xmlns:xlink="http://www.w3.org/1999/xlink" width="12px" height="12px" viewBox="2274 1239  12 12" xmlns="http://www.w3.org/2000/svg">
  <path d="M 2280 1239  C 2283.36 1239  2286 1241.64  2286 1245  C 2286 1248.36  2283.36 1251  2280 1251  C 2276.64 1251  2274 1248.36  2274 1245  C 2274 1241.64  2276.64 1239  2280 1239  Z " fill-rule="nonzero" fill="#ffffff" stroke="none" />
  <path d="M 2280 1239.5  C 2283.08 1239.5  2285.5 1241.92  2285.5 1245  C 2285.5 1248.08  2283.08 1250.5  2280 1250.5  C 2276.92 1250.5  2274.5 1248.08  2274.5 1245  C 2274.5 1241.92  2276.92 1239.5  2280 1239.5  Z " stroke-width="1" stroke="#797979" fill="none" />
  <path d="M 2280 1248  C 2278.32 1248  2277 1246.68  2277 1245  C 2277 1243.32  2278.32 1242  2280 1242  C 2281.68 1242  2283 1243.32  2283 1245  C 2283 1246.68  2281.68 1248  2280 1248  " fill-rule="nonzero" fill="#797979" stroke="none" />
</svg>