<?xml version="1.0" encoding="utf-8"?>
<svg version="1.1" xmlns:xlink="http://www.w3.org/1999/xlink" width="12px" height="12px" viewBox="2274 1280  12 12" xmlns="http://www.w3.org/2000/svg">
  <path d="M 2280 1280  C 2283.36 1280  2286 1282.64  2286 1286  C 2286 1289.36  2283.36 1292  2280 1292  C 2276.64 1292  2274 1289.36  2274 1286  C 2274 1282.64  2276.64 1280  2280 1280  Z " fill-rule="nonzero" fill="#f0f0f0" stroke="none" />
  <path d="M 2280 1280.5  C 2283.08 1280.5  2285.5 1282.92  2285.5 1286  C 2285.5 1289.08  2283.08 1291.5  2280 1291.5  C 2276.92 1291.5  2274.5 1289.08  2274.5 1286  C 2274.5 1282.92  2276.92 1280.5  2280 1280.5  Z " stroke-width="1" stroke="#797979" fill="none" />
  <path d="M 2280 1289  C 2278.32 1289  2277 1287.68  2277 1286  C 2277 1284.32  2278.32 1283  2280 1283  C 2281.68 1283  2283 1284.32  2283 1286  C 2283 1287.68  2281.68 1289  2280 1289  " fill-rule="nonzero" fill="#797979" stroke="none" />
</svg>