<?xml version="1.0" encoding="utf-8"?>
<svg version="1.1" xmlns:xlink="http://www.w3.org/1999/xlink" width="12px" height="12px" viewBox="2494 1152  12 12" xmlns="http://www.w3.org/2000/svg">
  <path d="M 2500 1152  C 2503.36 1152  2506 1154.64  2506 1158  C 2506 1161.36  2503.36 1164  2500 1164  C 2496.64 1164  2494 1161.36  2494 1158  C 2494 1154.64  2496.64 1152  2500 1152  Z " fill-rule="nonzero" fill="#ffffff" stroke="none" />
  <path d="M 2500 1152.5  C 2503.08 1152.5  2505.5 1154.92  2505.5 1158  C 2505.5 1161.08  2503.08 1163.5  2500 1163.5  C 2496.92 1163.5  2494.5 1161.08  2494.5 1158  C 2494.5 1154.92  2496.92 1152.5  2500 1152.5  Z " stroke-width="1" stroke="#797979" fill="none" />
  <path d="M 2500 1161  C 2498.32 1161  2497 1159.68  2497 1158  C 2497 1156.32  2498.32 1155  2500 1155  C 2501.68 1155  2503 1156.32  2503 1158  C 2503 1159.68  2501.68 1161  2500 1161  " fill-rule="nonzero" fill="#797979" stroke="none" />
</svg>