<?xml version="1.0" encoding="utf-8"?>
<svg version="1.1" xmlns:xlink="http://www.w3.org/1999/xlink" width="12px" height="12px" viewBox="2494 1239  12 12" xmlns="http://www.w3.org/2000/svg">
  <path d="M 2500 1239  C 2503.36 1239  2506 1241.64  2506 1245  C 2506 1248.36  2503.36 1251  2500 1251  C 2496.64 1251  2494 1248.36  2494 1245  C 2494 1241.64  2496.64 1239  2500 1239  Z " fill-rule="nonzero" fill="#f0f0f0" stroke="none" />
  <path d="M 2500 1239.5  C 2503.08 1239.5  2505.5 1241.92  2505.5 1245  C 2505.5 1248.08  2503.08 1250.5  2500 1250.5  C 2496.92 1250.5  2494.5 1248.08  2494.5 1245  C 2494.5 1241.92  2496.92 1239.5  2500 1239.5  Z " stroke-width="1" stroke="#797979" fill="none" />
  <path d="M 2500 1248  C 2498.32 1248  2497 1246.68  2497 1245  C 2497 1243.32  2498.32 1242  2500 1242  C 2501.68 1242  2503 1243.32  2503 1245  C 2503 1246.68  2501.68 1248  2500 1248  " fill-rule="nonzero" fill="#797979" stroke="none" />
</svg>