<?xml version="1.0" encoding="utf-8"?>
<svg version="1.1" xmlns:xlink="http://www.w3.org/1999/xlink" width="12px" height="12px" viewBox="2494 1280  12 12" xmlns="http://www.w3.org/2000/svg">
  <path d="M 2500 1280  C 2503.36 1280  2506 1282.64  2506 1286  C 2506 1289.36  2503.36 1292  2500 1292  C 2496.64 1292  2494 1289.36  2494 1286  C 2494 1282.64  2496.64 1280  2500 1280  Z " fill-rule="nonzero" fill="#f0f0f0" stroke="none" />
  <path d="M 2500 1280.5  C 2503.08 1280.5  2505.5 1282.92  2505.5 1286  C 2505.5 1289.08  2503.08 1291.5  2500 1291.5  C 2496.92 1291.5  2494.5 1289.08  2494.5 1286  C 2494.5 1282.92  2496.92 1280.5  2500 1280.5  Z " stroke-width="1" stroke="#797979" fill="none" />
  <path d="M 2500 1289  C 2498.32 1289  2497 1287.68  2497 1286  C 2497 1284.32  2498.32 1283  2500 1283  C 2501.68 1283  2503 1284.32  2503 1286  C 2503 1287.68  2501.68 1289  2500 1289  " fill-rule="nonzero" fill="#797979" stroke="none" />
</svg>