<?xml version="1.0" encoding="utf-8"?>
<svg version="1.1" xmlns:xlink="http://www.w3.org/1999/xlink" width="10px" height="11px" xmlns="http://www.w3.org/2000/svg">
  <g transform="matrix(1 0 0 1 -1355 -251 )">
    <path d="M 8.94402452415813 9.72822565885798  L 5.24530563689605 5.65938323572474  L 8.94391471449488 1.5905508784773  C 9.1309084845505 1.38328469427664  9.1309084845505 1.04890509342467  8.94391471449488 0.841638909224011  L 8.92362737920937 0.819322840409955  C 8.73513933630165 0.61368691323094  8.43117654949631 0.61368691323094  8.24268850658858 0.819322840409955  L 4.54385065885798 4.89328879941435  L 0.8449121522694 0.817611639824304  C 0.656463699729814 0.611984315548212  0.352531541851447 0.611984315548212  0.16408308931186 0.817611639824304  L 0.143795754026355 0.83992770863836  C 0.0518851976054081 0.938306775474439  3.71530777430888E-05 1.07338184412186  3.71530777430888E-05 1.21444912152269  C 3.71530777430888E-05 1.35551639892353  0.0518851976054081 1.49059146757095  0.143795754026355 1.58897053440703  L 3.84273426061494 5.65938323572474  L 0.143795754026355 9.72821559297218  C -0.0431442287225059 9.93551007358262  -0.043144228722505 10.2698431475008  0.143795754026355 10.4771376281113  L 0.16408308931186 10.4994536969253  C 0.352506893130642 10.7051468439865  0.656488348450618 10.7051468439865  0.8449121522694 10.4994536969253  L 4.54385065885798 6.43062133967789  L 8.24278916544656 10.4994536969253  C 8.43125158939306 10.7051675727691  8.73527476492612 10.7051675727691  8.92373718887262 10.4994536969253  L 8.94402452415813 10.4771376281113  C 9.13101829421375 10.2698714439106  9.13101829421375 9.93549184305864  8.94402452415813 9.72822565885798  Z " fill-rule="nonzero" fill="#aaaaaa" stroke="none" transform="matrix(1 0 0 1 1355 251 )" />
  </g>
</svg>