<?xml version="1.0" encoding="utf-8"?>
<svg version="1.1" xmlns:xlink="http://www.w3.org/1999/xlink" width="359px" height="33px" viewBox="8 67  359 33" xmlns="http://www.w3.org/2000/svg">
  <path d="M 9 71  A 3 3 0 0 1 12 68 L 363 68  A 3 3 0 0 1 366 71 L 366 96  A 3 3 0 0 1 363 99 L 12 99  A 3 3 0 0 1 9 96 L 9 71  Z " fill-rule="nonzero" fill="#f0f0f0" stroke="none" />
  <path d="M 8.5 71  A 3.5 3.5 0 0 1 12 67.5 L 363 67.5  A 3.5 3.5 0 0 1 366.5 71 L 366.5 96  A 3.5 3.5 0 0 1 363 99.5 L 12 99.5  A 3.5 3.5 0 0 1 8.5 96 L 8.5 71  Z " stroke-width="1" stroke="#797979" fill="none" stroke-opacity="0.462745098039216" />
</svg>