<?xml version="1.0" encoding="utf-8"?>
<svg version="1.1" xmlns:xlink="http://www.w3.org/1999/xlink" width="16px" height="21px" xmlns="http://www.w3.org/2000/svg">
  <g transform="matrix(1 0 0 1 -8 -114 )">
    <path d="M 0.727272727272727 0  L 15.2727272727273 0  C 15.469696969697 0  15.6401515151515 0.0742187500000018  15.7840909090909 0.222656250000001  C 15.9280303030303 0.371093749999997  16 0.546874999999999  16 0.75  L 16 20.25  C 16 20.453125  15.9280303030303 20.62890625  15.7840909090909 20.77734375  C 15.6401515151515 20.92578125  15.469696969697 21  15.2727272727273 21  L 0.727272727272727 21  C 0.53030303030303 21  0.359848484848485 20.92578125  0.215909090909091 20.77734375  C 0.071969696969697 20.62890625  0 20.453125  0 20.25  L 0 0.75  C 0 0.546874999999999  0.071969696969697 0.371093749999997  0.215909090909091 0.222656250000001  C 0.359848484848485 0.0742187500000018  0.53030303030303 0  0.727272727272727 0  Z M 5.92045454545455 3.10546875  C 5.85227272727273 3.17578125  5.81818181818182 3.265625  5.81818181818182 3.375  L 5.81818181818182 4.125  C 5.81818181818182 4.234375  5.85227272727273 4.32421875  5.92045454545455 4.39453125  C 5.98863636363636 4.46484375  6.07575757575758 4.5  6.18181818181818 4.5  L 6.90909090909091 4.5  C 7.01515151515152 4.5  7.10227272727273 4.46484375  7.17045454545455 4.39453125  C 7.23863636363636 4.32421875  7.27272727272727 4.234375  7.27272727272727 4.125  L 7.27272727272727 3.375  C 7.27272727272727 3.265625  7.23863636363636 3.17578125  7.17045454545455 3.10546875  C 7.10227272727273 3.03515625  7.01515151515152 3  6.90909090909091 3  L 6.18181818181818 3  C 6.07575757575758 3  5.98863636363636 3.03515625  5.92045454545455 3.10546875  Z M 5.92045454545455 6.10546875  C 5.85227272727273 6.17578125  5.81818181818182 6.265625  5.81818181818182 6.375  L 5.81818181818182 7.125  C 5.81818181818182 7.234375  5.85227272727273 7.32421875  5.92045454545455 7.39453125  C 5.98863636363636 7.46484375  6.07575757575758 7.5  6.18181818181818 7.5  L 6.90909090909091 7.5  C 7.01515151515152 7.5  7.10227272727273 7.46484375  7.17045454545455 7.39453125  C 7.23863636363636 7.32421875  7.27272727272727 7.234375  7.27272727272727 7.125  L 7.27272727272727 6.375  C 7.27272727272727 6.265625  7.23863636363636 6.17578125  7.17045454545455 6.10546875  C 7.10227272727273 6.03515625  7.01515151515152 6  6.90909090909091 6  L 6.18181818181818 6  C 6.07575757575758 6  5.98863636363636 6.03515625  5.92045454545455 6.10546875  Z M 5.92045454545455 9.10546875  C 5.85227272727273 9.17578125  5.81818181818182 9.265625  5.81818181818182 9.375  L 5.81818181818182 10.125  C 5.81818181818182 10.234375  5.85227272727273 10.32421875  5.92045454545455 10.39453125  C 5.98863636363636 10.46484375  6.07575757575758 10.5  6.18181818181818 10.5  L 6.90909090909091 10.5  C 7.01515151515152 10.5  7.10227272727273 10.46484375  7.17045454545455 10.39453125  C 7.23863636363636 10.32421875  7.27272727272727 10.234375  7.27272727272727 10.125  L 7.27272727272727 9.375  C 7.27272727272727 9.265625  7.23863636363636 9.17578125  7.17045454545455 9.10546875  C 7.10227272727273 9.03515625  7.01515151515152 9  6.90909090909091 9  L 6.18181818181818 9  C 6.07575757575758 9  5.98863636363636 9.03515625  5.92045454545455 9.10546875  Z M 5.92045454545455 12.10546875  C 5.85227272727273 12.17578125  5.81818181818182 12.265625  5.81818181818182 12.375  L 5.81818181818182 13.125  C 5.81818181818182 13.234375  5.85227272727273 13.32421875  5.92045454545455 13.39453125  C 5.98863636363636 13.46484375  6.07575757575758 13.5  6.18181818181818 13.5  L 6.90909090909091 13.5  C 7.01515151515152 13.5  7.10227272727273 13.46484375  7.17045454545455 13.39453125  C 7.23863636363636 13.32421875  7.27272727272727 13.234375  7.27272727272727 13.125  L 7.27272727272727 12.375  C 7.27272727272727 12.265625  7.23863636363636 12.17578125  7.17045454545455 12.10546875  C 7.10227272727273 12.03515625  7.01515151515152 12  6.90909090909091 12  L 6.18181818181818 12  C 6.07575757575758 12  5.98863636363636 12.03515625  5.92045454545455 12.10546875  Z M 4.26136363636364 16.39453125  C 4.32954545454545 16.32421875  4.36363636363636 16.234375  4.36363636363636 16.125  L 4.36363636363636 15.375  C 4.36363636363636 15.265625  4.32954545454545 15.17578125  4.26136363636364 15.10546875  C 4.19318181818182 15.03515625  4.10606060606061 15  4 15  L 3.27272727272727 15  C 3.16666666666667 15  3.07954545454545 15.03515625  3.01136363636364 15.10546875  C 2.94318181818182 15.17578125  2.90909090909091 15.265625  2.90909090909091 15.375  L 2.90909090909091 16.125  C 2.90909090909091 16.234375  2.94318181818182 16.32421875  3.01136363636364 16.39453125  C 3.07954545454545 16.46484375  3.16666666666667 16.5  3.27272727272727 16.5  L 4 16.5  C 4.10606060606061 16.5  4.19318181818182 16.46484375  4.26136363636364 16.39453125  Z M 4.26136363636364 13.39453125  C 4.32954545454545 13.32421875  4.36363636363636 13.234375  4.36363636363636 13.125  L 4.36363636363636 12.375  C 4.36363636363636 12.265625  4.32954545454545 12.17578125  4.26136363636364 12.10546875  C 4.19318181818182 12.03515625  4.10606060606061 12  4 12  L 3.27272727272727 12  C 3.16666666666667 12  3.07954545454545 12.03515625  3.01136363636364 12.10546875  C 2.94318181818182 12.17578125  2.90909090909091 12.265625  2.90909090909091 12.375  L 2.90909090909091 13.125  C 2.90909090909091 13.234375  2.94318181818182 13.32421875  3.01136363636364 13.39453125  C 3.07954545454545 13.46484375  3.16666666666667 13.5  3.27272727272727 13.5  L 4 13.5  C 4.10606060606061 13.5  4.19318181818182 13.46484375  4.26136363636364 13.39453125  Z M 4.26136363636364 10.39453125  C 4.32954545454545 10.32421875  4.36363636363636 10.234375  4.36363636363636 10.125  L 4.36363636363636 9.375  C 4.36363636363636 9.265625  4.32954545454545 9.17578125  4.26136363636364 9.10546875  C 4.19318181818182 9.03515625  4.10606060606061 9  4 9  L 3.27272727272727 9  C 3.16666666666667 9  3.07954545454545 9.03515625  3.01136363636364 9.10546875  C 2.94318181818182 9.17578125  2.90909090909091 9.265625  2.90909090909091 9.375  L 2.90909090909091 10.125  C 2.90909090909091 10.234375  2.94318181818182 10.32421875  3.01136363636364 10.39453125  C 3.07954545454545 10.46484375  3.16666666666667 10.5  3.27272727272727 10.5  L 4 10.5  C 4.10606060606061 10.5  4.19318181818182 10.46484375  4.26136363636364 10.39453125  Z M 4.26136363636364 7.39453125  C 4.32954545454545 7.32421875  4.36363636363636 7.234375  4.36363636363636 7.125  L 4.36363636363636 6.375  C 4.36363636363636 6.265625  4.32954545454545 6.17578125  4.26136363636364 6.10546875  C 4.19318181818182 6.03515625  4.10606060606061 6  4 6  L 3.27272727272727 6  C 3.16666666666667 6  3.07954545454545 6.03515625  3.01136363636364 6.10546875  C 2.94318181818182 6.17578125  2.90909090909091 6.265625  2.90909090909091 6.375  L 2.90909090909091 7.125  C 2.90909090909091 7.234375  2.94318181818182 7.32421875  3.01136363636364 7.39453125  C 3.07954545454545 7.46484375  3.16666666666667 7.5  3.27272727272727 7.5  L 4 7.5  C 4.10606060606061 7.5  4.19318181818182 7.46484375  4.26136363636364 7.39453125  Z M 4.26136363636364 4.39453125  C 4.32954545454545 4.32421875  4.36363636363636 4.234375  4.36363636363636 4.125  L 4.36363636363636 3.375  C 4.36363636363636 3.265625  4.32954545454545 3.17578125  4.26136363636364 3.10546875  C 4.19318181818182 3.03515625  4.10606060606061 3  4 3  L 3.27272727272727 3  C 3.16666666666667 3  3.07954545454545 3.03515625  3.01136363636364 3.10546875  C 2.94318181818182 3.17578125  2.90909090909091 3.265625  2.90909090909091 3.375  L 2.90909090909091 4.125  C 2.90909090909091 4.234375  2.94318181818182 4.32421875  3.01136363636364 4.39453125  C 3.07954545454545 4.46484375  3.16666666666667 4.5  3.27272727272727 4.5  L 4 4.5  C 4.10606060606061 4.5  4.19318181818182 4.46484375  4.26136363636364 4.39453125  Z M 10.0795454545455 19.39453125  C 10.1477272727273 19.32421875  10.1818181818182 19.234375  10.1818181818182 19.125  L 10.1818181818182 16.875  C 10.1818181818182 16.765625  10.1477272727273 16.67578125  10.0795454545455 16.60546875  C 10.0113636363636 16.53515625  9.92424242424242 16.5  9.81818181818182 16.5  L 6.18181818181818 16.5  C 6.07575757575758 16.5  5.98863636363636 16.53515625  5.92045454545455 16.60546875  C 5.85227272727273 16.67578125  5.81818181818182 16.765625  5.81818181818182 16.875  L 5.81818181818182 19.125  C 5.81818181818182 19.234375  5.85227272727273 19.32421875  5.92045454545455 19.39453125  C 5.98863636363636 19.46484375  6.07575757575758 19.5  6.18181818181818 19.5  L 9.81818181818182 19.5  C 9.92424242424242 19.5  10.0113636363636 19.46484375  10.0795454545455 19.39453125  Z M 10.0795454545455 13.39453125  C 10.1477272727273 13.32421875  10.1818181818182 13.234375  10.1818181818182 13.125  L 10.1818181818182 12.375  C 10.1818181818182 12.265625  10.1477272727273 12.17578125  10.0795454545455 12.10546875  C 10.0113636363636 12.03515625  9.92424242424242 12  9.81818181818182 12  L 9.09090909090909 12  C 8.98484848484849 12  8.89772727272727 12.03515625  8.82954545454546 12.10546875  C 8.76136363636364 12.17578125  8.72727272727273 12.265625  8.72727272727273 12.375  L 8.72727272727273 13.125  C 8.72727272727273 13.234375  8.76136363636364 13.32421875  8.82954545454546 13.39453125  C 8.89772727272727 13.46484375  8.98484848484849 13.5  9.09090909090909 13.5  L 9.81818181818182 13.5  C 9.92424242424242 13.5  10.0113636363636 13.46484375  10.0795454545455 13.39453125  Z M 10.0795454545455 10.39453125  C 10.1477272727273 10.32421875  10.1818181818182 10.234375  10.1818181818182 10.125  L 10.1818181818182 9.375  C 10.1818181818182 9.265625  10.1477272727273 9.17578125  10.0795454545455 9.10546875  C 10.0113636363636 9.03515625  9.92424242424242 9  9.81818181818182 9  L 9.09090909090909 9  C 8.98484848484849 9  8.89772727272727 9.03515625  8.82954545454546 9.10546875  C 8.76136363636364 9.17578125  8.72727272727273 9.265625  8.72727272727273 9.375  L 8.72727272727273 10.125  C 8.72727272727273 10.234375  8.76136363636364 10.32421875  8.82954545454546 10.39453125  C 8.89772727272727 10.46484375  8.98484848484849 10.5  9.09090909090909 10.5  L 9.81818181818182 10.5  C 9.92424242424242 10.5  10.0113636363636 10.46484375  10.0795454545455 10.39453125  Z M 10.0795454545455 7.39453125  C 10.1477272727273 7.32421875  10.1818181818182 7.234375  10.1818181818182 7.125  L 10.1818181818182 6.375  C 10.1818181818182 6.265625  10.1477272727273 6.17578125  10.0795454545455 6.10546875  C 10.0113636363636 6.03515625  9.92424242424242 6  9.81818181818182 6  L 9.09090909090909 6  C 8.98484848484849 6  8.89772727272727 6.03515625  8.82954545454546 6.10546875  C 8.76136363636364 6.17578125  8.72727272727273 6.265625  8.72727272727273 6.375  L 8.72727272727273 7.125  C 8.72727272727273 7.234375  8.76136363636364 7.32421875  8.82954545454546 7.39453125  C 8.89772727272727 7.46484375  8.98484848484849 7.5  9.09090909090909 7.5  L 9.81818181818182 7.5  C 9.92424242424242 7.5  10.0113636363636 7.46484375  10.0795454545455 7.39453125  Z M 10.0795454545455 4.39453125  C 10.1477272727273 4.32421875  10.1818181818182 4.234375  10.1818181818182 4.125  L 10.1818181818182 3.375  C 10.1818181818182 3.265625  10.1477272727273 3.17578125  10.0795454545455 3.10546875  C 10.0113636363636 3.03515625  9.92424242424242 3  9.81818181818182 3  L 9.09090909090909 3  C 8.98484848484849 3  8.89772727272727 3.03515625  8.82954545454546 3.10546875  C 8.76136363636364 3.17578125  8.72727272727273 3.265625  8.72727272727273 3.375  L 8.72727272727273 4.125  C 8.72727272727273 4.234375  8.76136363636364 4.32421875  8.82954545454546 4.39453125  C 8.89772727272727 4.46484375  8.98484848484849 4.5  9.09090909090909 4.5  L 9.81818181818182 4.5  C 9.92424242424242 4.5  10.0113636363636 4.46484375  10.0795454545455 4.39453125  Z M 12.9886363636364 16.39453125  C 13.0568181818182 16.32421875  13.0909090909091 16.234375  13.0909090909091 16.125  L 13.0909090909091 15.375  C 13.0909090909091 15.265625  13.0568181818182 15.17578125  12.9886363636364 15.10546875  C 12.9204545454545 15.03515625  12.8333333333333 15  12.7272727272727 15  L 12 15  C 11.8939393939394 15  11.8068181818182 15.03515625  11.7386363636364 15.10546875  C 11.6704545454545 15.17578125  11.6363636363636 15.265625  11.6363636363636 15.375  L 11.6363636363636 16.125  C 11.6363636363636 16.234375  11.6704545454545 16.32421875  11.7386363636364 16.39453125  C 11.8068181818182 16.46484375  11.8939393939394 16.5  12 16.5  L 12.7272727272727 16.5  C 12.8333333333333 16.5  12.9204545454545 16.46484375  12.9886363636364 16.39453125  Z M 12.9886363636364 13.39453125  C 13.0568181818182 13.32421875  13.0909090909091 13.234375  13.0909090909091 13.125  L 13.0909090909091 12.375  C 13.0909090909091 12.265625  13.0568181818182 12.17578125  12.9886363636364 12.10546875  C 12.9204545454545 12.03515625  12.8333333333333 12  12.7272727272727 12  L 12 12  C 11.8939393939394 12  11.8068181818182 12.03515625  11.7386363636364 12.10546875  C 11.6704545454545 12.17578125  11.6363636363636 12.265625  11.6363636363636 12.375  L 11.6363636363636 13.125  C 11.6363636363636 13.234375  11.6704545454545 13.32421875  11.7386363636364 13.39453125  C 11.8068181818182 13.46484375  11.8939393939394 13.5  12 13.5  L 12.7272727272727 13.5  C 12.8333333333333 13.5  12.9204545454545 13.46484375  12.9886363636364 13.39453125  Z M 12.9886363636364 10.39453125  C 13.0568181818182 10.32421875  13.0909090909091 10.234375  13.0909090909091 10.125  L 13.0909090909091 9.375  C 13.0909090909091 9.265625  13.0568181818182 9.17578125  12.9886363636364 9.10546875  C 12.9204545454545 9.03515625  12.8333333333333 9  12.7272727272727 9  L 12 9  C 11.8939393939394 9  11.8068181818182 9.03515625  11.7386363636364 9.10546875  C 11.6704545454545 9.17578125  11.6363636363636 9.265625  11.6363636363636 9.375  L 11.6363636363636 10.125  C 11.6363636363636 10.234375  11.6704545454545 10.32421875  11.7386363636364 10.39453125  C 11.8068181818182 10.46484375  11.8939393939394 10.5  12 10.5  L 12.7272727272727 10.5  C 12.8333333333333 10.5  12.9204545454545 10.46484375  12.9886363636364 10.39453125  Z M 12.9886363636364 7.39453125  C 13.0568181818182 7.32421875  13.0909090909091 7.234375  13.0909090909091 7.125  L 13.0909090909091 6.375  C 13.0909090909091 6.265625  13.0568181818182 6.17578125  12.9886363636364 6.10546875  C 12.9204545454545 6.03515625  12.8333333333333 6  12.7272727272727 6  L 12 6  C 11.8939393939394 6  11.8068181818182 6.03515625  11.7386363636364 6.10546875  C 11.6704545454545 6.17578125  11.6363636363636 6.265625  11.6363636363636 6.375  L 11.6363636363636 7.125  C 11.6363636363636 7.234375  11.6704545454545 7.32421875  11.7386363636364 7.39453125  C 11.8068181818182 7.46484375  11.8939393939394 7.5  12 7.5  L 12.7272727272727 7.5  C 12.8333333333333 7.5  12.9204545454545 7.46484375  12.9886363636364 7.39453125  Z M 12.9886363636364 4.39453125  C 13.0568181818182 4.32421875  13.0909090909091 4.234375  13.0909090909091 4.125  L 13.0909090909091 3.375  C 13.0909090909091 3.265625  13.0568181818182 3.17578125  12.9886363636364 3.10546875  C 12.9204545454545 3.03515625  12.8333333333333 3  12.7272727272727 3  L 12 3  C 11.8939393939394 3  11.8068181818182 3.03515625  11.7386363636364 3.10546875  C 11.6704545454545 3.17578125  11.6363636363636 3.265625  11.6363636363636 3.375  L 11.6363636363636 4.125  C 11.6363636363636 4.234375  11.6704545454545 4.32421875  11.7386363636364 4.39453125  C 11.8068181818182 4.46484375  11.8939393939394 4.5  12 4.5  L 12.7272727272727 4.5  C 12.8333333333333 4.5  12.9204545454545 4.46484375  12.9886363636364 4.39453125  Z " fill-rule="nonzero" fill="#000000" stroke="none" transform="matrix(1 0 0 1 8 114 )" />
  </g>
</svg>