<?xml version="1.0" encoding="utf-8"?>
<svg version="1.1" xmlns:xlink="http://www.w3.org/1999/xlink" width="23px" height="24px" xmlns="http://www.w3.org/2000/svg">
  <g transform="matrix(1 0 0 1 -24 -6 )">
    <path d="M 22.7604166666667 23.0358333333333  C 22.73046875 21.6416666666667  22.433984375 20.2854166666667  21.876953125 19.005  C 21.3109375 17.6983333333333  20.4963541666667 16.5258333333333  19.4631510416667 15.5195833333333  C 18.4299479166667 14.5133333333333  17.2260416666666 13.7229166666667  15.884375 13.16875  C 15.8723958333333 13.1629166666667  15.8604166666667 13.16  15.8484375 13.1541666666667  C 17.7141927083333 11.8416666666667  18.9270833333333 9.70374999999999  18.9270833333333 7.29166666666665  C 18.9270833333333 3.29583333333335  15.6028645833333 0.0583333333333485  11.5 0.0583333333333485  C 7.39713541666665 0.0583333333333485  4.07291666666665 3.29583333333335  4.07291666666665 7.29166666666665  C 4.07291666666665 9.70374999999999  5.28580729166665 11.8416666666667  7.15156250000001 13.1570833333333  C 7.13958333333333 13.1629166666667  7.12760416666665 13.1658333333333  7.11562500000002 13.1716666666667  C 5.77395833333331 13.7229166666667  4.57005208333332 14.5133333333333  3.53684895833332 15.5225  C 2.50364583333332 16.52875  1.69205729166665 17.70125  1.123046875 19.0079166666666  C 0.566015624999981 20.2854166666667  0.26953125 21.6416666666667  0.239583333333349 23.0358333333333  C 0.236588541666679 23.1670833333333  0.344401041666651 23.275  0.479166666666651 23.275  L 2.27604166666665 23.275  C 2.40781249999998 23.275  2.51263020833333 23.1729166666667  2.515625 23.0475  C 2.57552083333335 20.7958333333333  3.50390625 18.6870833333333  5.14505208333331 17.08875  C 6.84309895833335 15.435  9.09817708333331 14.525  11.5 14.525  C 13.9018229166667 14.525  16.1569010416667 15.435  17.8549479166667 17.08875  C 19.49609375 18.6870833333333  20.4244791666667 20.7958333333333  20.484375 23.0475  C 20.4873697916667 23.1758333333333  20.5921875 23.275  20.7239583333333 23.275  L 22.5208333333333 23.275  C 22.6555989583333 23.275  22.7634114583333 23.1670833333333  22.7604166666667 23.0358333333333  Z M 15.1416666666667 10.8383333333333  C 14.168359375 11.78625  12.874609375 12.3083333333333  11.5 12.3083333333333  C 10.125390625 12.3083333333333  8.83164062499998 11.78625  7.85833333333333 10.8383333333333  C 6.88502604166668 9.89041666666667  6.34895833333335 8.63041666666663  6.34895833333335 7.29166666666665  C 6.34895833333335 5.95291666666667  6.88502604166668 4.69291666666668  7.85833333333333 3.74499999999998  C 8.83164062499998 2.79708333333333  10.125390625 2.275  11.5 2.275  C 12.874609375 2.275  14.168359375 2.79708333333333  15.1416666666667 3.74499999999998  C 16.1149739583333 4.69291666666668  16.6510416666667 5.95291666666667  16.6510416666667 7.29166666666665  C 16.6510416666667 8.63041666666663  16.1149739583333 9.89041666666667  15.1416666666667 10.8383333333333  Z " fill-rule="nonzero" fill="#606266" stroke="none" transform="matrix(1 0 0 1 24 6 )" />
  </g>
</svg>