<?xml version="1.0" encoding="utf-8"?>
<svg version="1.1" xmlns:xlink="http://www.w3.org/1999/xlink" width="24px" height="24px" xmlns="http://www.w3.org/2000/svg">
  <g transform="matrix(1 0 0 1 -326 -131 )">
    <path d="M 4.36363636363636 17.4545454545455  L 6.54545454545454 17.4545454545455  L 6.54545454545454 19.6363636363636  L 4.36363636363636 19.6363636363636  L 4.36363636363636 17.4545454545455  Z M 4.36363636363636 4.36363636363636  L 6.54545454545454 4.36363636363636  L 6.54545454545454 6.54545454545454  L 4.36363636363636 6.54545454545454  L 4.36363636363636 4.36363636363636  Z M 17.4545454545455 4.36363636363636  L 19.6363636363636 4.36363636363636  L 19.6363636363636 6.54545454545454  L 17.4545454545455 6.54545454545454  L 17.4545454545455 4.36363636363636  Z M 2.18181818181818 15.2727272727273  L 2.18181818181818 21.8011363636364  L 8.72727272727273 21.8011363636364  L 8.72727272727273 15.2727272727273  L 2.18181818181818 15.2727272727273  Z M 2.18181818181818 2.18181818181818  L 2.18181818181818 8.72727272727273  L 8.72727272727273 8.72727272727273  L 8.72727272727273 2.18181818181818  L 2.18181818181818 2.18181818181818  Z M 15.2727272727273 2.18181818181818  L 15.2727272727273 8.72727272727273  L 21.8181818181818 8.72727272727273  L 21.8181818181818 2.18181818181818  L 15.2727272727273 2.18181818181818  Z M 0 13  L 11 13  L 11 24  L 0 24  L 0 13  Z M 17.4545454545455 21.8181818181818  L 19.6363636363636 21.8181818181818  L 19.6363636363636 24  L 17.4545454545455 24  L 17.4545454545455 21.8181818181818  Z M 21.8181818181818 21.8181818181818  L 24 21.8181818181818  L 24 24  L 21.8181818181818 24  L 21.8181818181818 21.8181818181818  Z M 21.8181818181818 13.0909090909091  L 24 13.0909090909091  L 24 19.6363636363636  L 17.4545454545455 19.6363636363636  L 17.4545454545455 17.4545454545455  L 15.2727272727273 17.4545454545455  L 15.2727272727273 24  L 13 24  L 13 13.0909090909091  L 19.6363636363636 13.0909090909091  L 19.6363636363636 15.2727272727273  L 21.8181818181818 15.2727272727273  L 21.8181818181818 13.0909090909091  Z M 0 0  L 11 0  L 11 11  L 0 11  L 0 0  Z M 13 0  L 24 0  L 24 11  L 13 11  L 13 0  Z " fill-rule="nonzero" fill="#ffffff" stroke="none" transform="matrix(1 0 0 1 326 131 )" />
  </g>
</svg>