<?xml version="1.0" encoding="utf-8"?>
<svg version="1.1" xmlns:xlink="http://www.w3.org/1999/xlink" width="108px" height="34px" viewBox="8 71  108 34" xmlns="http://www.w3.org/2000/svg">
  <path d="M 9 76  A 4 4 0 0 1 13 72 L 111 72  A 4 4 0 0 1 115 76 L 115 100  A 4 4 0 0 1 111 104 L 13 104  A 4 4 0 0 1 9 100 L 9 76  Z " fill-rule="nonzero" fill="#ffffff" stroke="none" />
  <path d="M 8.5 76  A 4.5 4.5 0 0 1 13 71.5 L 111 71.5  A 4.5 4.5 0 0 1 115.5 76 L 115.5 100  A 4.5 4.5 0 0 1 111 104.5 L 13 104.5  A 4.5 4.5 0 0 1 8.5 100 L 8.5 76  Z " stroke-width="1" stroke="#797979" fill="none" stroke-opacity="0.447058823529412" />
</svg>