<?xml version="1.0" encoding="utf-8"?>
<svg version="1.1" xmlns:xlink="http://www.w3.org/1999/xlink" width="233px" height="34px" viewBox="134 71  233 34" xmlns="http://www.w3.org/2000/svg">
  <path d="M 135 76  A 4 4 0 0 1 139 72 L 362 72  A 4 4 0 0 1 366 76 L 366 100  A 4 4 0 0 1 362 104 L 139 104  A 4 4 0 0 1 135 100 L 135 76  Z " fill-rule="nonzero" fill="#ffffff" stroke="none" />
  <path d="M 134.5 76  A 4.5 4.5 0 0 1 139 71.5 L 362 71.5  A 4.5 4.5 0 0 1 366.5 76 L 366.5 100  A 4.5 4.5 0 0 1 362 104.5 L 139 104.5  A 4.5 4.5 0 0 1 134.5 100 L 134.5 76  Z " stroke-width="1" stroke="#797979" fill="none" stroke-opacity="0.447058823529412" />
</svg>