<?xml version="1.0" encoding="utf-8"?>
<svg version="1.1" xmlns:xlink="http://www.w3.org/1999/xlink" width="95px" height="95px" xmlns="http://www.w3.org/2000/svg">
  <g transform="matrix(1 0 0 1 -140 -100 )">
    <path d="M 187.5 100  C 214.1 100  235 120.9  235 147.5  C 235 174.1  214.1 195  187.5 195  C 160.9 195  140 174.1  140 147.5  C 140 120.9  160.9 100  187.5 100  Z " fill-rule="nonzero" fill="#ffffff" stroke="none" />
    <path d="M 187.5 100.5  C 213.82 100.5  234.5 121.18  234.5 147.5  C 234.5 173.82  213.82 194.5  187.5 194.5  C 161.18 194.5  140.5 173.82  140.5 147.5  C 140.5 121.18  161.18 100.5  187.5 100.5  Z " stroke-width="1" stroke="#797979" fill="none" />
  </g>
</svg>