<?xml version="1.0" encoding="utf-8"?>
<svg version="1.1" xmlns:xlink="http://www.w3.org/1999/xlink" width="37px" height="37px" xmlns="http://www.w3.org/2000/svg">
  <g transform="matrix(1 0 0 1 -1124 -26 )">
    <path d="M 36.9211647727273 28.6697443181818  C 36.9737215909091 28.7923768939394  37 28.9763257575758  37 29.2215909090909  C 37 29.6946022727273  36.9124053030303 30.3121448863636  36.7372159090909 31.07421875  C 36.5620265151515 31.8362926136364  36.3780776515152 32.4363162878788  36.1853693181818 32.8742897727273  C 35.8174715909091 33.7502367424242  34.7488162878788 34.678740530303  32.9794034090909 35.6598011363636  C 31.3326231060606 36.5532670454545  29.7033617424242 37  28.0916193181818 37  C 27.6186079545455 37  27.1543560606061 36.9693418560606  26.6988636363636 36.9080255681818  C 26.2433712121212 36.846709280303  25.7397017045455 36.7372159090909  25.1878551136364 36.5795454545455  C 24.6360085227273 36.421875  24.2243134469697 36.2948626893939  23.9527698863636 36.1985085227273  C 23.6812263257576 36.1021543560606  23.1950757575758 35.9225852272727  22.4943181818182 35.6598011363636  C 21.7935606060606 35.3970170454545  21.3643465909091 35.2393465909091  21.2066761363636 35.1867897727273  C 19.4898200757576 34.5736268939394  17.9569128787879 33.8465909090909  16.6079545454545 33.0056818181818  C 14.3830492424242 31.6216856060606  12.0705492424242 29.7296401515151  9.67045454545455 27.3295454545455  C 7.27035984848485 24.9294507575758  5.37831439393939 22.6169507575758  3.99431818181818 20.3920454545455  C 3.15340909090909 19.0430871212121  2.42637310606061 17.5101799242424  1.81321022727273 15.7933238636364  C 1.76065340909091 15.6356534090909  1.60298295454545 15.2064393939394  1.34019886363636 14.5056818181818  C 1.07741477272727 13.8049242424242  0.897845643939394 13.3187736742424  0.801491477272727 13.0472301136364  C 0.705137310606061 12.7756865530303  0.578125 12.3639914772727  0.420454545454545 11.8121448863636  C 0.262784090909091 11.2602982954545  0.15329071969697 10.7566287878788  0.0919744318181818 10.3011363636364  C 0.0306581439393939 9.84564393939394  0 9.38139204545455  0 8.90838068181818  C 0 7.29663825757576  0.446732954545455 5.66737689393939  1.34019886363636 4.02059659090909  C 2.32125946969697 2.25118371212121  3.24976325757576 1.18252840909091  4.12571022727273 0.81463068181818  C 4.56368371212121 0.621922348484846  5.16370738636364 0.437973484848481  5.92578125 0.26278409090909  C 6.68785511363636 0.0875946969696954  7.30539772727273 0  7.77840909090909 0  C 8.02367424242424 0  8.20762310606061 0.0262784090909098  8.33025568181818 0.0788352272727254  C 8.64559659090909 0.183948863636365  9.10984848484848 0.84966856060606  9.72301136363636 2.07599431818182  C 9.9157196969697 2.40885416666666  10.1785037878788 2.88186553030303  10.5113636363636 3.49502840909091  C 10.8442234848485 4.10819128787879  11.1508049242424 4.66441761363637  11.4311079545455 5.16370738636363  C 11.7114109848485 5.66299715909091  11.9829545454545 6.13162878787879  12.2457386363636 6.56960227272727  C 12.2982954545455 6.63967803030303  12.4515861742424 6.85866477272727  12.7056107954545 7.2265625  C 12.9596354166667 7.59446022727273  13.1479640151515 7.90542140151515  13.2705965909091 8.15944602272728  C 13.3932291666667 8.41347064393939  13.4545454545455 8.66311553030303  13.4545454545455 8.90838068181818  C 13.4545454545455 9.25875946969697  13.2049005681818 9.69673295454546  12.7056107954545 10.2223011363636  C 12.2063210227273 10.7478693181818  11.6632339015152 11.2296401515152  11.0763494318182 11.6676136363636  C 10.4894649621212 12.1055871212121  9.94637784090909 12.5698390151515  9.44708806818182 13.0603693181818  C 8.94779829545455 13.5508996212121  8.69815340909091 13.9538352272727  8.69815340909091 14.2691761363636  C 8.69815340909091 14.4268465909091  8.74195075757576 14.6239346590909  8.82954545454546 14.8604403409091  C 8.91714015151515 15.0969460227273  8.99159564393939 15.2765151515152  9.05291193181818 15.3991477272727  C 9.11422821969697 15.5217803030303  9.23686079545455 15.7320075757576  9.42080965909091 16.0298295454545  C 9.60475852272727 16.3276515151515  9.70549242424243 16.4940814393939  9.72301136363636 16.5291193181818  C 11.0544507575758 18.9292140151515  12.5785984848485 20.9876893939394  14.2954545454545 22.7045454545455  C 16.0123106060606 24.4214015151515  18.0707859848485 25.9455492424242  20.4708806818182 27.2769886363636  C 20.5059185606061 27.2945075757576  20.6723484848485 27.3952414772727  20.9701704545455 27.5791903409091  C 21.2679924242424 27.7631392045455  21.4782196969697 27.885771780303  21.6008522727273 27.9470880681818  C 21.7234848484849 28.0084043560606  21.9030539772727 28.0828598484848  22.1395596590909 28.1704545454545  C 22.3760653409091 28.2580492424242  22.5731534090909 28.3018465909091  22.7308238636364 28.3018465909091  C 23.0461647727273 28.3018465909091  23.4491003787879 28.0522017045455  23.9396306818182 27.5529119318182  C 24.4301609848485 27.0536221590909  24.8944128787879 26.5105350378788  25.3323863636364 25.9236505681818  C 25.7703598484849 25.3367660984848  26.2521306818182 24.7936789772727  26.7776988636364 24.2943892045455  C 27.3032670454545 23.7950994318182  27.741240530303 23.5454545454545  28.0916193181818 23.5454545454545  C 28.336884469697 23.5454545454545  28.5865293560606 23.6067708333333  28.8405539772727 23.7294034090909  C 29.0945785984849 23.8520359848485  29.4055397727273 24.0403645833333  29.7734375 24.2943892045455  C 30.1413352272727 24.5484138257576  30.360321969697 24.7017045454545  30.4303977272727 24.7542613636364  C 30.8683712121212 25.0170454545455  31.3370028409091 25.2885890151515  31.8362926136364 25.5688920454545  C 32.3355823863636 25.8491950757576  32.8918087121212 26.1557765151515  33.5049715909091 26.4886363636364  C 34.118134469697 26.8214962121212  34.5911458333333 27.0842803030303  34.9240056818182 27.2769886363636  C 36.1503314393939 27.8901515151515  36.8160511363636 28.3544034090909  36.9211647727273 28.6697443181818  Z " fill-rule="nonzero" fill="#000000" stroke="none" transform="matrix(1 0 0 1 1124 26 )" />
  </g>
</svg>