<?xml version="1.0" encoding="utf-8"?>
<svg version="1.1" xmlns:xlink="http://www.w3.org/1999/xlink" width="50px" height="50px" xmlns="http://www.w3.org/2000/svg">
  <g transform="matrix(1 0 0 1 -25 -59 )">
    <path d="M 50 59  C 64 59  75 70  75 84  C 75 98  64 109  50 109  C 36 109  25 98  25 84  C 25 70  36 59  50 59  Z " fill-rule="nonzero" fill="#ffffff" stroke="none" />
    <path d="M 50 59.5  C 63.72 59.5  74.5 70.28  74.5 84  C 74.5 97.72  63.72 108.5  50 108.5  C 36.28 108.5  25.5 97.72  25.5 84  C 25.5 70.28  36.28 59.5  50 59.5  Z " stroke-width="1" stroke="#797979" fill="none" />
  </g>
</svg>