<?xml version="1.0" encoding="utf-8"?>
<svg version="1.1" xmlns:xlink="http://www.w3.org/1999/xlink" width="74px" height="70px" xmlns="http://www.w3.org/2000/svg">
  <g transform="matrix(1 0 0 1 -17 -623 )">
    <path d="M 17 623  L 91 623  L 91 693  L 17 693  L 17 623  " fill-rule="nonzero" fill="#cccccc" stroke="none" />
    <path d="M 22 628  L 86 628  L 86 688  L 22 688  L 22 628  " fill-rule="nonzero" fill="#ffffff" stroke="none" />
    <path d="M 60.73 644  C 57.79 644  55.48 641.69  55.48 638.75  C 55.48 635.81  57.79 633.5  60.73 633.5  C 63.67 633.5  65.98 635.81  65.98 638.75  C 65.98 641.69  63.67 644  60.73 644  " fill-rule="nonzero" fill="#cccccc" stroke="none" />
    <path d="M 24 686  L 24 655.2  L 39 641.2  L 60 654.216216216216  L 72 649.6  L 84 654.216216216216  L 84 686  L 24 686  " fill-rule="nonzero" fill="#169bd5" stroke="none" />
  </g>
</svg>