<?xml version="1.0" encoding="utf-8"?>
<svg version="1.1" xmlns:xlink="http://www.w3.org/1999/xlink" width="17px" height="20px" xmlns="http://www.w3.org/2000/svg">
  <g transform="matrix(1 0 0 1 -1503 -35 )">
    <path d="M 16.8212025 15.9895474137931  C 16.752114925 14.3649978448276  15.953771125 12.9246982758621  14.751135875 11.9982327586207  L 14.751135875 7.59172413793103  C 14.751135875 5.04849137931035  12.957419125 2.90752155172414  10.585413375 2.40146551724138  L 10.585413375 2.30025560344828  C 10.585413375 1.14023405172414  9.6463355 0.19041724137931  8.49999575 0.19041724137931  C 7.353656 0.19041724137931  6.414578125 1.14023405172414  6.414578125 2.30025560344828  L 6.414578125 2.40146551724138  C 4.042568125 2.9075150862069  2.248855625 5.04849137931035  2.248855625 7.59172413793103  L 2.248855625 11.9956465517241  C 1.0462225 12.9247025862069  0.247877000000002 14.365  0.178789000000002 15.9869612068966  L 2.248855625 15.9869612068966  L 2.248855625 16  L 14.753694375 16  L 14.753694375 15.9895563362069  L 16.821200375 15.9895563362069  Z M 8.425795 19.8173706896552  L 8.05989125 19.8173706896552  L 8.57676775 19.8173706896552  C 9.93293 19.8173706896552  11.06136025 18.7793189655172  11.22511275 17.4480172413793  L 5.77745 17.4480172413793  C 5.9412129125 18.7793168103448  7.06964125 19.8173706896552  8.425795 19.8173706896552  Z " fill-rule="nonzero" fill="#b0b0b0" stroke="none" transform="matrix(1 0 0 1 1503 35 )" />
  </g>
</svg>