<?xml version="1.0" encoding="utf-8"?>
<svg version="1.1" xmlns:xlink="http://www.w3.org/1999/xlink" width="15px" height="15px" xmlns="http://www.w3.org/2000/svg">
  <g>
    <path d="M 14.7671343283582 13.61004  L 8.69002985074627 7.5  L 14.7671343283582 1.38999  C 15.0738805970149 1.08156  15.0738805970149 0.57309  14.7671343283582 0.26469  L 14.734 0.23133  C 14.427223880597 -0.0770700000000001  13.9214626865672 -0.0770700000000001  13.6147164179104 0.23133  L 7.53761194029851 6.34968  L 1.46050746268657 0.2313  C 1.15376119402985 -0.0771  0.648029850746269 -0.0771  0.341283582089552 0.2313  L 0.308119402985075 0.26466  C -0.00692537313432831 0.57306  -0.00692537313432831 1.08153  0.308119402985075 1.38996  L 6.38522388059701 7.5  L 0.308119402985075 13.61004  C 0.00137313432835822 13.91844  0.00137313432835822 14.42691  0.308119402985075 14.73534  L 0.341283582089552 14.76867  C 0.648059701492537 15.0771  1.15379104477612 15.0771  1.46053731343284 14.76867  L 7.53761194029851 8.65866  L 13.6147164179104 14.76867  C 13.9214626865672 15.0771  14.427223880597 15.0771  14.734 14.76867  L 14.7671343283582 14.73534  C 15.0738805970149 14.42694  15.0738805970149 13.91847  14.7671343283582 13.61004  Z " fill-rule="nonzero" fill="#a6a6a6" stroke="none" />
  </g>
</svg>