<?xml version="1.0" encoding="utf-8"?>
<svg version="1.1" xmlns:xlink="http://www.w3.org/1999/xlink" width="29px" height="29px" xmlns="http://www.w3.org/2000/svg">
  <defs>
    <filter x="1360px" y="362px" width="29px" height="29px" filterUnits="userSpaceOnUse" id="filter149">
      <feOffset dx="0" dy="2" in="SourceAlpha" result="shadowOffsetInner" />
      <feGaussianBlur stdDeviation="1.5" in="shadowOffsetInner" result="shadowGaussian" />
      <feComposite in2="shadowGaussian" operator="atop" in="SourceAlpha" result="shadowComposite" />
      <feColorMatrix type="matrix" values="0 0 0 0 0.6  0 0 0 0 0.6  0 0 0 0 0.6  0 0 0 0.349019607843137 0  " in="shadowComposite" />
    </filter>
    <g id="widget150">
      <path d="M 1374.5 363  C 1380.94 363  1386 368.06  1386 374.5  C 1386 380.94  1380.94 386  1374.5 386  C 1368.06 386  1363 380.94  1363 374.5  C 1363 368.06  1368.06 363  1374.5 363  Z " fill-rule="nonzero" fill="#ffffff" stroke="none" />
      <path d="M 1374.5 363.5  C 1380.66 363.5  1385.5 368.34  1385.5 374.5  C 1385.5 380.66  1380.66 385.5  1374.5 385.5  C 1368.34 385.5  1363.5 380.66  1363.5 374.5  C 1363.5 368.34  1368.34 363.5  1374.5 363.5  Z " stroke-width="1" stroke="#ffffff" fill="none" />
    </g>
  </defs>
  <g transform="matrix(1 0 0 1 -1360 -362 )">
    <use xlink:href="#widget150" filter="url(#filter149)" />
    <use xlink:href="#widget150" />
  </g>
</svg>