<?xml version="1.0" encoding="utf-8"?>
<svg version="1.1" xmlns:xlink="http://www.w3.org/1999/xlink" width="16px" height="16px" xmlns="http://www.w3.org/2000/svg">
  <g transform="matrix(1 0 0 1 -1112 -386 )">
    <path d="M 14.310439238653 14.1501464128843  L 8.39248901903368 8.23183016105417  L 14.3102635431918 2.31352855051244  C 14.6094535752808 2.01205046440239  14.6094535752808 1.52568013589043  14.3102635431918 1.22420204978038  L 14.277803806735 1.19174231332357  C 13.9762229380826 0.892635510154094  13.4898824791941 0.892635510154094  13.1883016105417 1.19174231332357  L 7.27016105417277 7.11751098096632  L 1.35185944363104 1.1892532942899  C 1.0503419195677 0.890159004433763  0.564050466962315 0.890159004433763  0.262532942898976 1.1892532942899  L 0.230073206442168 1.22171303074671  C 0.0830163161686529 1.36480985523555  5.94449243889421E-05 1.56128268235907  5.94449243889421E-05 1.76647144948755  C 5.94449243889421E-05 1.97166021661604  0.0830163161686529 2.16813304373956  0.230073206442168 2.3112298682284  L 6.1483748169839 8.23183016105417  L 0.230073206442168 14.1501317715959  C -0.0690307659560095 14.4516510161202  -0.069030765956008 14.9379536690921  0.230073206442168 15.2394729136164  L 0.262532942898976 15.2719326500732  C 0.564011029009027 15.5711226821622  1.05038135752099 15.5711226821622  1.35185944363104 15.2719326500732  L 7.27016105417277 9.35363103953148  L 13.1884626647145 15.2719326500732  C 13.4900025430289 15.5711528331187  13.9764396238818 15.5711528331187  14.2779795021962 15.2719326500732  L 14.310439238653 15.2394729136164  C 14.609629270742 14.9379948275064  14.609629270742 14.4516244989944  14.310439238653 14.1501464128843  Z " fill-rule="nonzero" fill="#aaaaaa" stroke="none" transform="matrix(1 0 0 1 1112 386 )" />
  </g>
</svg>