<?xml version="1.0" encoding="utf-8"?>
<svg version="1.1" xmlns:xlink="http://www.w3.org/1999/xlink" width="17px" height="17px" xmlns="http://www.w3.org/2000/svg">
  <g transform="matrix(1 0 0 1 -1110 -385 )">
    <path d="M 15.2048416910688 15.0345305636896  L 8.91701958272328 8.74631954612006  L 15.2046550146413 2.45812408491947  C 15.5225444237358 2.13780361842754  15.5225444237358 1.62103514438358  15.2046550146413 1.30071467789165  L 15.1701665446559 1.26622620790629  C 14.8497368717128 0.948425229538725  14.3330001341437 0.948425229538725  14.0125704612006 1.26622620790629  L 7.72454612005857 7.56235541727672  L 1.43635065885798 1.26358162518302  C 1.11598828954068 0.945793942210873  0.599303621147459 0.945793942210873  0.278941251830162 1.26358162518302  L 0.244452781844803 1.29807009516837  C 0.0882048359291937 1.45011047118777  6.31602321632509E-05 1.65886285000651  6.31602321632509E-05 1.87687591508053  C 6.31602321632509E-05 2.09488898015454  0.0882048359291937 2.30364135897328  0.244452781844803 2.45568173499268  L 6.53264824304539 8.74631954612006  L 0.244452781844803 15.0345150073206  C -0.07334518882826 15.3548792046277  -0.0733451888282585 15.8715757734104  0.244452781844803 16.1919399707174  L 0.278941251830162 16.2264284407028  C 0.599261718322091 16.5443178497973  1.11603019236605 16.5443178497973  1.43635065885798 16.2264284407028  L 7.72454612005857 9.9382329795022  L 14.0127415812592 16.2264284407028  C 14.3331277019682 16.5443498851886  14.8499671003744 16.5443498851886  15.1703532210835 16.2264284407028  L 15.2048416910688 16.1919399707174  C 15.5227311001634 15.8716195042255  15.5227311001634 15.3548510301815  15.2048416910688 15.0345305636896  Z " fill-rule="nonzero" fill="#aaaaaa" stroke="none" transform="matrix(1 0 0 1 1110 385 )" />
  </g>
</svg>