<?xml version="1.0" encoding="utf-8"?>
<svg version="1.1" xmlns:xlink="http://www.w3.org/1999/xlink" width="12px" height="12px" xmlns="http://www.w3.org/2000/svg">
  <defs>
    <linearGradient gradientUnits="userSpaceOnUse" x1="6" y1="0" x2="6" y2="12" id="LinearGradient166">
      <stop id="Stop167" stop-color="#007afe" stop-opacity="0.988235294117647" offset="0" />
      <stop id="Stop168" stop-color="#007afe" stop-opacity="0.988235294117647" offset="1" />
    </linearGradient>
    <linearGradient gradientUnits="userSpaceOnUse" x1="6" y1="0" x2="6" y2="12" id="LinearGradient169">
      <stop id="Stop170" stop-color="#007afe" stop-opacity="0.988235294117647" offset="0" />
      <stop id="Stop171" stop-color="#007afe" stop-opacity="0.988235294117647" offset="1" />
    </linearGradient>
    <mask fill="white" id="clip172">
      <path d="M 12 6  C 12 2.64  9.36 0  6 0  C 2.64 0  0 2.64  0 6  C 0 9.36  2.64 12  6 12  C 9.36 12  12 9.36  12 6  Z " fill-rule="evenodd" />
    </mask>
  </defs>
  <g transform="matrix(1 0 0 1 -1079 -1132 )">
    <path d="M 12 6  C 12 2.64  9.36 0  6 0  C 2.64 0  0 2.64  0 6  C 0 9.36  2.64 12  6 12  C 9.36 12  12 9.36  12 6  Z " fill-rule="nonzero" fill="url(#LinearGradient166)" stroke="none" transform="matrix(1 0 0 1 1079 1132 )" />
    <path d="M 12 6  C 12 2.64  9.36 0  6 0  C 2.64 0  0 2.64  0 6  C 0 9.36  2.64 12  6 12  C 9.36 12  12 9.36  12 6  Z " stroke-width="2" stroke="url(#LinearGradient169)" fill="none" transform="matrix(1 0 0 1 1079 1132 )" mask="url(#clip172)" />
  </g>
</svg>