<?xml version="1.0" encoding="utf-8"?>
<svg version="1.1" xmlns:xlink="http://www.w3.org/1999/xlink" width="210px" height="210px" xmlns="http://www.w3.org/2000/svg">
  <g transform="matrix(1 0 0 1 -497 -227 )">
    <path d="M 202.911392405063 150.632911392405  L 196.443037974684 150.632911392405  C 204.772151898734 136.012658227848  209.556962025316 119.088607594937  209.556962025316 101.012658227848  C 209.556962025316 45.4556962025316  164.544303797468 0.443037974683544  108.987341772152 0.443037974683544  C 81.3417721518988 0.443037974683544  56.2658227848101 11.6075949367089  39 29.6835443037975  L 39 18.253164556962  C 14.7974683544304 38.2784810126582  0 67.873417721519  0 101.012658227848  C 5.31645569620253 104.556962025316  5.31645569620253 104.556962025316  5.31645569620253 104.556962025316  L 8.86075949367089 126.708860759494  C 8.86075949367089 126.708860759494  8.86075949367089 126.708860759494  4.87341772151899 133.443037974684  C 18.6962025316456 177.746835443038  60.0759493670886 210  108.987341772152 210  C 150.101265822785 210  185.810126582278 187.227848101266  204.417721518987 153.73417721519  C 202.911392405063 150.632911392405  202.911392405063 150.632911392405  202.911392405063 150.632911392405  Z M 38.7215189873418 172.873417721519  C 38.1012658227848 174.379746835443  36.6835443037975 175.443037974684  35 175.443037974684  C 32.7848101265823 175.443037974684  31.0126582278481 173.670886075949  31.0126582278481 171.455696202532  C 31.0126582278481 169.683544303797  32.1645569620253 168.177215189873  33.6708860759494 167.645569620253  C 34.1139240506329 167.46835443038  34.5569620253165 167.379746835443  35 167.379746835443  C 37.2151898734177 167.379746835443  38.9873417721519 169.151898734177  38.9873417721519 171.367088607595  C 38.9873417721519 171.898734177215  38.8987341772152 172.341772151899  38.7215189873418 172.873417721519  Z M 46.9620253164557 179.430379746835  C 46.9620253164557 179.696202531646  46.9620253164557 179.873417721519  46.873417721519 180.139240506329  C 46.5189873417721 182  44.9240506329114 183.417721518987  42.9746835443038 183.417721518987  C 40.7594936708861 183.417721518987  38.9873417721519 181.645569620253  38.9873417721519 179.430379746835  C 38.9873417721519 177.658227848101  40.0506329113924 176.240506329114  41.6455696202532 175.708860759494  C 42.0886075949367 175.53164556962  42.5316455696203 175.443037974684  42.9746835443038 175.443037974684  C 45.1898734177215 175.443037974684  46.9620253164557 177.215189873418  46.9620253164557 179.430379746835  Z M 55.8227848101266 185.632911392405  C 55.8227848101266 185.898734177215  55.8227848101266 186.075949367089  55.7341772151899 186.341772151899  C 55.379746835443 188.20253164557  53.7848101265823 189.620253164557  51.8354430379747 189.620253164557  C 49.620253164557 189.620253164557  47.8481012658228 187.848101265823  47.8481012658228 185.632911392405  C 47.8481012658228 184.215189873418  48.5569620253165 182.974683544304  49.7088607594937 182.26582278481  C 50.3291139240506 181.911392405063  51.0379746835443 181.645569620253  51.8354430379747 181.645569620253  C 54.0506329113924 181.645569620253  55.8227848101266 183.417721518987  55.8227848101266 185.632911392405  Z M 64.6835443037975 190.949367088608  C 64.6835443037975 191.037974683544  64.6835443037975 191.215189873418  64.6835443037975 191.303797468354  C 64.5063291139241 193.341772151899  62.8227848101266 194.936708860759  60.6962025316456 194.936708860759  C 58.4810126582278 194.936708860759  56.7088607594937 193.164556962025  56.7088607594937 190.949367088608  C 56.7088607594937 189.708860759494  57.3291139240506 188.556962025316  58.2151898734177 187.848101265823  C 58.9240506329114 187.316455696203  59.7215189873418 186.962025316456  60.6962025316456 186.962025316456  C 62.9113924050633 186.962025316456  64.6835443037975 188.73417721519  64.6835443037975 190.949367088608  Z M 75.3164556962025 195.645569620253  C 75.4050632911392 195.73417721519  75.4050632911392 195.73417721519  75.3164556962025 195.822784810127  C 75.2278481012658 197.949367088608  73.4556962025317 199.632911392405  71.3291139240506 199.632911392405  C 69.1139240506329 199.632911392405  67.3417721518987 197.860759493671  67.3417721518987 195.645569620253  C 67.3417721518987 194.670886075949  67.6962025316456 193.696202531646  68.3164556962025 192.987341772152  C 69.0253164556962 192.101265822785  70.0886075949367 191.658227848101  71.3291139240506 191.658227848101  C 71.506329113924 191.658227848101  71.7721518987342 191.658227848101  71.9493670886076 191.658227848101  C 72.5696202531645 191.746835443038  73.1898734177215 192.012658227848  73.6329113924051 192.367088607595  C 74.6962025316456 193.075949367089  75.3164556962025 194.316455696203  75.3164556962025 195.645569620253  Z M 86.0379746835443 199.810126582278  C 85.9493670886076 202.025316455696  84.1772151898734 203.79746835443  81.9620253164557 203.79746835443  C 79.746835443038 203.79746835443  77.9746835443038 202.025316455696  77.9746835443038 199.810126582278  C 77.9746835443038 198.746835443038  78.4177215189873 197.772151898734  79.126582278481 197.063291139241  C 79.8354430379747 196.26582278481  80.8987341772152 195.822784810127  82.0506329113924 195.822784810127  C 83.9113924050633 195.822784810127  85.5063291139241 197.151898734177  85.9493670886076 198.924050632911  C 86.0379746835443 199.189873417722  86.0379746835443 199.544303797468  86.0379746835443 199.810126582278  Z M 193.430379746835 150.632911392405  L 190.329113924051 150.632911392405  C 186.430379746835 157.012658227848  181.73417721519 162.949367088608  176.329113924051 168.354430379747  C 158.341772151899 186.341772151899  134.417721518987 196.26582278481  108.987341772152 196.26582278481  C 83.5569620253165 196.26582278481  59.6329113924051 186.341772151899  41.6455696202532 168.354430379747  C 23.6582278481013 150.367088607595  13.7341772151899 126.443037974684  13.7341772151899 101.012658227848  C 13.7341772151899 77.2658227848101  22.3291139240506 54.8481012658228  38.1012658227848 37.3924050632911  L 38.1012658227848 33.4936708860759  C 38.6329113924051 32.9620253164557  39.1645569620253 32.3417721518987  39.7848101265823 31.8101265822785  C 58.2151898734177 13.2911392405063  82.8481012658228 3.10126582278481  108.987341772152 3.10126582278481  C 135.126582278481 3.10126582278481  159.759493670886 13.2911392405063  178.189873417722 31.8101265822785  C 196.620253164557 50.3291139240506  206.898734177215 74.873417721519  206.898734177215 101.012658227848  C 206.898734177215 118.73417721519  202.20253164557 135.746835443038  193.430379746835 150.632911392405  Z " fill-rule="nonzero" fill="#1acdfd" stroke="none" fill-opacity="0.8" transform="matrix(1 0 0 1 497 227 )" />
  </g>
</svg>