<?xml version="1.0" encoding="utf-8"?>
<svg version="1.1" xmlns:xlink="http://www.w3.org/1999/xlink" width="155px" height="138px" xmlns="http://www.w3.org/2000/svg">
  <g transform="matrix(1 0 0 1 -547 -233 )">
    <path d="M 154.554597701149 94.2701298701299  C 154.554597701149 42.2064935064935  112.597701149425 0  60.9310344827586 0  C 37.6810344827586 0  16.3908045977012 8.51298701298701  0 22.6714285714286  L 0 39.2493506493506  C 0.979885057471259 38.174025974026  1.95977011494253 37.0987012987013  3.02873563218391 36.0233766233766  C 18.5287356321839 20.4311688311688  39.0172413793104 11.9181818181818  60.9310344827586 11.9181818181818  C 82.7557471264368 11.9181818181818  103.333333333333 20.5207792207792  118.833333333333 36.0233766233766  C 134.333333333333 51.6155844155844  142.795977011494 72.225974025974  142.795977011494 94.2701298701299  C 142.795977011494 109.683116883117  138.609195402299 124.379220779221  130.859195402299 137  L 144.310344827586 137  C 150.902298850575 124.28961038961  154.554597701149 109.772727272727  154.554597701149 94.2701298701299  Z " fill-rule="nonzero" fill="#1acdfd" stroke="none" fill-opacity="0.4" transform="matrix(1 0 0 1 547 233 )" />
  </g>
</svg>