<?xml version="1.0" encoding="utf-8"?>
<svg version="1.1" xmlns:xlink="http://www.w3.org/1999/xlink" width="169px" height="169px" xmlns="http://www.w3.org/2000/svg">
  <g transform="matrix(1 0 0 1 -521 -243 )">
    <path d="M 168.70350877193 84.5741228070175  C 168.70350877193 131.123245614035  130.975 168.925877192982  84.5 168.925877192982  C 38.025 168.925877192982  0.296491228070159 131.123245614035  0.296491228070159 84.5741228070175  C 0.296491228070159 37.9508771929824  38.025 0.222368421052608  84.5 0.222368421052608  C 130.975 0.222368421052608  168.70350877193 38.025  168.70350877193 84.5741228070175  Z M 162.180701754386 84.5  C 162.180701754386 42.1017543859649  126.75 6.59692982456141  84.5 6.59692982456141  C 42.1758771929824 6.59692982456141  6.81929824561403 42.1017543859649  6.81929824561403 84.5  C 6.81929824561403 126.898245614035  42.25 162.403070175439  84.5 162.403070175439  C 126.824122807018 162.403070175439  162.180701754386 126.898245614035  162.180701754386 84.5  Z " fill-rule="nonzero" fill="#1acdfd" stroke="none" transform="matrix(1 0 0 1 521 243 )" />
  </g>
</svg>