<?xml version="1.0" encoding="utf-8"?>
<svg version="1.1" xmlns:xlink="http://www.w3.org/1999/xlink" width="415px" height="289px" xmlns="http://www.w3.org/2000/svg">
  <defs>
    <mask fill="white" id="clip136">
      <path d="M 0 289  L 0 11  L 30.793 11  L 50.381 0  L 415 0  L 414.004 276.848346456693  L 392.341 289  L 0 289  Z " fill-rule="evenodd" />
    </mask>
  </defs>
  <g transform="matrix(1 0 0 1 -18 -192 )">
    <path d="M 0 289  L 0 11  L 30.793 11  L 50.381 0  L 415 0  L 414.004 276.848346456693  L 392.341 289  L 0 289  Z " fill-rule="nonzero" fill="#123f73" stroke="none" fill-opacity="0.298039215686275" transform="matrix(1 0 0 1 18 192 )" />
    <path d="M 0 289  L 0 11  L 30.793 11  L 50.381 0  L 415 0  L 414.004 276.848346456693  L 392.341 289  L 0 289  Z " stroke-width="2" stroke="#064a9b" fill="none" stroke-opacity="0.996078431372549" transform="matrix(1 0 0 1 18 192 )" mask="url(#clip136)" />
  </g>
</svg>