<?xml version="1.0" encoding="utf-8"?>
<svg version="1.1" xmlns:xlink="http://www.w3.org/1999/xlink" width="1017px" height="262px" xmlns="http://www.w3.org/2000/svg">
  <defs>
    <mask fill="white" id="clip138">
      <path d="M 0 262  L 0 20  L 42.8271282633371 20  L 70.0702610669694 0  L 1017 0  L 1015.61475595914 239.578846153846  L 985.485698070374 262  L 0 262  Z " fill-rule="evenodd" />
    </mask>
  </defs>
  <g transform="matrix(1 0 0 1 -453 -195 )">
    <path d="M 0 262  L 0 20  L 42.8271282633371 20  L 70.0702610669694 0  L 1017 0  L 1015.61475595914 239.578846153846  L 985.485698070374 262  L 0 262  Z " fill-rule="nonzero" fill="#123f73" stroke="none" fill-opacity="0.298039215686275" transform="matrix(1 0 0 1 453 195 )" />
    <path d="M 0 262  L 0 20  L 42.8271282633371 20  L 70.0702610669694 0  L 1017 0  L 1015.61475595914 239.578846153846  L 985.485698070374 262  L 0 262  Z " stroke-width="2" stroke="#064a9b" fill="none" stroke-opacity="0.996078431372549" transform="matrix(1 0 0 1 453 195 )" mask="url(#clip138)" />
  </g>
</svg>