<?xml version="1.0" encoding="utf-8"?>
<svg version="1.1" xmlns:xlink="http://www.w3.org/1999/xlink" width="17px" height="17px" xmlns="http://www.w3.org/2000/svg">
  <g transform="matrix(1 0 0 1 -156 -76 )">
    <path d="M 6.1008064516129 0.702620967741935  C 6.1008064516129 0.527479838709677  6.1569875672043 0.383728158602151  6.2693497983871 0.271365927419355  C 6.38171202956989 0.159003696236559  6.52546370967742 0.102822580645162  6.70060483870968 0.102822580645161  C 6.87574596774194 0.102822580645161  7.01949764784946 0.159003696236559  7.13185987903226 0.271365927419355  C 7.24422211021505 0.383728158602151  7.30040322580645 0.527479838709678  7.30040322580645 0.702620967741935  L 7.30040322580645 15.4540625  C 7.30040322580645 15.5792204301075  7.26601478494624 15.6885836693548  7.19723790322581 15.7821522177419  C 7.12846102150538 15.875720766129  7.03789146505376 15.9474966397849  6.92552923387097 15.9974798387097  C 6.81316700268817 16.0474630376344  6.6976058467742 16.0600588037634  6.57884576612903 16.0352671370968  C 6.46008568548387 16.0104754704301  6.35692036290323 15.9542943548387  6.2693497983871 15.8667237903226  L 0.702620967741935 10.2999949596774  C 0.59025873655914 10.1876327284946  0.534077620967742 10.0470799731183  0.534077620967742 9.87833669354839  C 0.534077620967742 9.70959341397849  0.59025873655914 9.56904065860215  0.702620967741935 9.45667842741935  C 0.827778897849463 9.33152049731183  0.968331653225807 9.26894153225807  1.12427923387097 9.26894153225807  C 1.28022681451613 9.26894153225807  1.42077956989247 9.33152049731183  1.5459375 9.45667842741935  L 6.1008064516129 14.0115473790323  L 6.1008064516129 0.703220766129032  Z M 9.69959677419355 1.5459375  C 9.69959677419355 1.42077956989247  9.73398521505377 1.31141633064516  9.80276209677419 1.21784778225806  C 9.87153897849463 1.12427923387097  9.96210853494624 1.05250336021505  10.074470766129 1.00252016129032  C 10.1868329973118 0.952536962365592  10.3023941532258 0.939941196236559  10.421154233871 0.964732862903225  C 10.5399143145161 0.989524529569892  10.6430796370968 1.04570564516129  10.7306502016129 1.13327620967742  L 16.2973790322581 6.70000504032258  C 16.4097412634409 6.81236727150538  16.4659223790323 6.95292002688172  16.4659223790323 7.12166330645161  C 16.4659223790323 7.29040658602151  16.4097412634409 7.43095934139785  16.2973790322581 7.54332157258064  C 16.1722211021505 7.66847950268817  16.0316683467742 7.73105846774194  15.875720766129 7.73105846774194  C 15.7197731854839 7.73105846774194  15.5792204301075 7.66847950268817  15.4540625 7.54332157258064  L 10.8991935483871 2.98845262096774  L 10.8991935483871 16.296779233871  C 10.8991935483871 16.4719203629032  10.8430124327957 16.6156720430108  10.7306502016129 16.7280342741936  C 10.6182879704301 16.8403965053763  10.4745362903226 16.8965776209677  10.2993951612903 16.8965776209677  C 10.1242540322581 16.8965776209677  9.98050235215054 16.8403965053763  9.86814012096774 16.7280342741936  C 9.75577788978495 16.6156720430108  9.69959677419355 16.4719203629032  9.69959677419355 16.296779233871  L 9.69959677419355 1.5453377016129  Z " fill-rule="nonzero" fill="#000000" stroke="none" transform="matrix(1 0 0 1 156 76 )" />
  </g>
</svg>