<?xml version="1.0" encoding="utf-8"?>
<svg version="1.1" xmlns:xlink="http://www.w3.org/1999/xlink" width="375px" height="120px" xmlns="http://www.w3.org/2000/svg">
  <g transform="matrix(1 0 0 1 0 -71 )">
    <path d="M 0 71  L 375 71  L 375 191  L 0 191  L 0 71  " fill-rule="nonzero" fill="#cccccc" stroke="none" />
    <path d="M 8 79  L 367 79  L 367 183  L 8 183  L 8 79  " fill-rule="nonzero" fill="#ffffff" stroke="none" />
    <path d="M 204 107  C 198.96 107  195 103.04  195 98  C 195 92.96  198.96 89  204 89  C 209.04 89  213 92.96  213 98  C 213 103.04  209.04 107  204 107  " fill-rule="nonzero" fill="#cccccc" stroke="none" />
    <path d="M 11 180  L 11 126.1  L 99.25 101.6  L 222.8 161.184  L 293.4 116.3  L 364 161.184  L 364 180  L 11 180  " fill-rule="nonzero" fill="#169bd5" stroke="none" />
  </g>
</svg>