<?xml version="1.0" encoding="utf-8"?>
<svg version="1.1" xmlns:xlink="http://www.w3.org/1999/xlink" width="10px" height="16px" xmlns="http://www.w3.org/2000/svg">
  <g transform="matrix(1 0 0 1 -41 -290 )">
    <path d="M 5.73567708333333 15.10625  C 5.93967013888889 14.9104166666667  6.04166666666667 14.675  6.04166666666667 14.4  C 6.04166666666667 14.125  5.93967013888889 13.8895833333333  5.73567708333333 13.69375  C 5.53168402777778 13.4979166666667  5.28645833333333 13.4  5 13.4  C 4.71354166666667 13.4  4.46831597222222 13.4979166666667  4.26432291666667 13.69375  C 4.06032986111111 13.8895833333333  3.95833333333333 14.125  3.95833333333333 14.4  C 3.95833333333333 14.675  4.06032986111111 14.9104166666667  4.26432291666667 15.10625  C 4.46831597222222 15.3020833333333  4.71354166666667 15.4  5 15.4  C 5.28645833333333 15.4  5.53168402777778 15.3020833333333  5.73567708333333 15.10625  Z M 8.62630208333333 12.68125  C 8.70876736111111 12.6020833333333  8.75 12.5083333333333  8.75 12.4  L 8.75 3.6  C 8.75 3.49166666666667  8.70876736111111 3.39791666666667  8.62630208333333 3.31875  C 8.54383680555556 3.23958333333333  8.44618055555556 3.2  8.33333333333333 3.2  L 1.66666666666667 3.2  C 1.55381944444444 3.2  1.45616319444444 3.23958333333333  1.37369791666667 3.31875  C 1.29123263888889 3.39791666666667  1.25 3.49166666666667  1.25 3.6  L 1.25 12.4  C 1.25 12.5083333333333  1.29123263888889 12.6020833333333  1.37369791666667 12.68125  C 1.45616319444444 12.7604166666667  1.55381944444444 12.8  1.66666666666667 12.8  L 8.33333333333333 12.8  C 8.44618055555556 12.8  8.54383680555556 12.7604166666667  8.62630208333333 12.68125  Z M 6.04166666666667 2  C 6.18055555555556 2  6.25 1.93333333333333  6.25 1.8  C 6.25 1.66666666666667  6.18055555555556 1.6  6.04166666666667 1.6  L 3.95833333333333 1.6  C 3.81944444444444 1.6  3.75 1.66666666666667  3.75 1.8  C 3.75 1.93333333333333  3.81944444444444 2  3.95833333333333 2  L 6.04166666666667 2  Z M 9.50520833333333 0.475  C 9.83506944444444 0.791666666666666  10 1.16666666666667  10 1.6  L 10 14.4  C 10 14.8333333333333  9.83506944444444 15.2083333333333  9.50520833333333 15.525  C 9.17534722222222 15.8416666666667  8.78472222222222 16  8.33333333333333 16  L 1.66666666666667 16  C 1.21527777777778 16  0.824652777777778 15.8416666666667  0.494791666666667 15.525  C 0.164930555555556 15.2083333333333  0 14.8333333333333  0 14.4  L 0 1.6  C 0 1.16666666666667  0.164930555555556 0.791666666666666  0.494791666666667 0.475  C 0.824652777777778 0.158333333333331  1.21527777777778 0  1.66666666666667 0  L 8.33333333333333 0  C 8.78472222222222 0  9.17534722222222 0.158333333333331  9.50520833333333 0.475  Z " fill-rule="nonzero" fill="#000000" stroke="none" transform="matrix(1 0 0 1 41 290 )" />
  </g>
</svg>