<?xml version="1.0" encoding="utf-8"?>
<svg version="1.1" xmlns:xlink="http://www.w3.org/1999/xlink" width="10px" height="16px" xmlns="http://www.w3.org/2000/svg">
  <g transform="matrix(1 0 0 1 -41 -334 )">
    <path d="M 2.77777777777778 5.09090909090909  L 2.77777777777778 7.27272727272727  L 7.22222222222222 7.27272727272727  L 7.22222222222222 5.09090909090909  C 7.22222222222222 4.28787878787879  7.00520833333333 3.60227272727273  6.57118055555556 3.03409090909091  C 6.13715277777778 2.46590909090909  5.61342592592593 2.18181818181818  5 2.18181818181818  C 4.38657407407407 2.18181818181818  3.86284722222222 2.46590909090909  3.42881944444444 3.03409090909091  C 2.99479166666667 3.60227272727273  2.77777777777778 4.28787878787879  2.77777777777778 5.09090909090909  Z M 9.75694444444444 7.59090909090909  C 9.91898148148148 7.8030303030303  10 8.06060606060606  10 8.36363636363636  L 10 14.9090909090909  C 10 15.2121212121212  9.91898148148148 15.469696969697  9.75694444444444 15.6818181818182  C 9.59490740740741 15.8939393939394  9.39814814814815 16  9.16666666666667 16  L 0.833333333333333 16  C 0.601851851851852 16  0.405092592592593 15.8939393939394  0.243055555555556 15.6818181818182  C 0.0810185185185185 15.469696969697  0 15.2121212121212  0 14.9090909090909  L 0 8.36363636363636  C 0 8.06060606060606  0.0810185185185185 7.8030303030303  0.243055555555556 7.59090909090909  C 0.405092592592593 7.37878787878788  0.601851851851852 7.27272727272727  0.833333333333333 7.27272727272727  L 1.11111111111111 7.27272727272727  L 1.11111111111111 5.09090909090909  C 1.11111111111111 3.6969696969697  1.49305555555556 2.5  2.25694444444444 1.5  C 3.02083333333333 0.5  3.93518518518519 0  5 0  C 6.06481481481481 0  6.97916666666667 0.5  7.74305555555556 1.5  C 8.50694444444444 2.5  8.88888888888889 3.6969696969697  8.88888888888889 5.09090909090909  L 8.88888888888889 7.27272727272727  L 9.16666666666667 7.27272727272727  C 9.39814814814815 7.27272727272727  9.59490740740741 7.37878787878788  9.75694444444444 7.59090909090909  Z " fill-rule="nonzero" fill="#000000" stroke="none" transform="matrix(1 0 0 1 41 334 )" />
  </g>
</svg>