<?xml version="1.0" encoding="utf-8"?>
<svg version="1.1" xmlns:xlink="http://www.w3.org/1999/xlink" width="14px" height="14px" xmlns="http://www.w3.org/2000/svg">
  <g transform="matrix(1 0 0 1 -342 -34 )">
    <path d="M 349 35  C 352.36 35  355 37.64  355 41  C 355 44.36  352.36 47  349 47  C 345.64 47  343 44.36  343 41  C 343 37.64  345.64 35  349 35  Z " fill-rule="nonzero" fill="#333333" stroke="none" />
    <path d="M 349 35  C 352.36 35  355 37.64  355 41  C 355 44.36  352.36 47  349 47  C 345.64 47  343 44.36  343 41  C 343 37.64  345.64 35  349 35  Z " stroke-width="2" stroke="#ffffff" fill="none" />
  </g>
</svg>