<?xml version="1.0" encoding="utf-8"?>
<svg version="1.1" xmlns:xlink="http://www.w3.org/1999/xlink" width="20px" height="20px" xmlns="http://www.w3.org/2000/svg">
  <g transform="matrix(1 0 0 1 -215 -704 )">
    <path d="M 225 704  C 230.6 704  235 708.4  235 714  C 235 719.6  230.6 724  225 724  C 219.4 724  215 719.6  215 714  C 215 708.4  219.4 704  225 704  Z " fill-rule="nonzero" fill="#ffffff" stroke="none" />
    <path d="M 225 704.5  C 230.32 704.5  234.5 708.68  234.5 714  C 234.5 719.32  230.32 723.5  225 723.5  C 219.68 723.5  215.5 719.32  215.5 714  C 215.5 708.68  219.68 704.5  225 704.5  Z " stroke-width="1" stroke="#797979" fill="none" />
  </g>
</svg>