<?xml version="1.0" encoding="utf-8"?>
<svg version="1.1" xmlns:xlink="http://www.w3.org/1999/xlink" width="20px" height="20px" xmlns="http://www.w3.org/2000/svg">
  <g transform="matrix(1 0 0 1 -1548 -34 )">
    <path d="M 19.1999999921875 10  C 19.1999999921875 4.920000015625  15.0800000078125 0.8000000078125  10 0.8000000078125  C 4.9199999921875 0.8000000078125  0.8000000078125 4.9199999921875  0.8000000078125 10  C 0.8000000078125 15.0800000078125  4.920000015625 19.1999999921875  10 19.1999999921875  C 15.079999984375 19.1999999921875  19.1999999921875 15.079999984375  19.1999999921875 10  Z M 13.84 10.1999999921875  C 13.8800000078125 10.96  13.6799999921875 11.7599999921875  13.2800000078125 12.4799999921875  C 12.88 13.159999984375  12.3200000078125 13.6799999921875  11.6399999921875 14.0000000078125  C 11.119999984375 14.2400000078125  10.5599999921875 14.3600000078125  10 14.3600000078125  C 9.76 14.3600000078125  9.52 14.32  9.28 14.2799999921875  C 8.5199999921875 14.119999984375  7.84 13.759999984375  7.2800000078125 13.1999999921875  C 6.720000015625 12.64  6.360000015625 11.92  6.28 11.1599999921875  C 6.2000000078125 10.72  6.2399999921875 10.279999984375  6.3200000078125 9.8399999921875  C 6.4 9.439999984375  6.5600000078125 9.04  6.76 8.68  C 7 8.2799999921875  7.2800000078125 7.9199999921875  7.6400000078125 7.6400000078125  C 7.8800000078125 7.440000015625  8.280000015625 7.48  8.4800000078125 7.72  C 8.68 7.96  8.640000015625 8.3600000078125  8.3999999921875 8.56  C 8.1599999921875 8.7599999921875  7.96 8.9999999921875  7.7999999921875 9.28  C 7.6799999921875 9.52  7.5599999921875 9.80000000781251  7.5200000078125 10.0799999921875  C 7.48 10.36  7.48 10.6799999921875  7.5200000078125 11.0000000078125  C 7.6 11.520000015625  7.84 12.000000015625  8.2 12.3599999921875  C 8.56 12.76  9.04 13  9.56000000781249 13.12  C 10.080000015625 13.24  10.680000015625 13.1600000078125  11.2 12.9200000078125  C 11.6399999921875 12.720000015625  12.04 12.3200000078125  12.3200000078125 11.8799999921875  C 12.600000015625 11.3999999921875  12.720000015625 10.84  12.64 10.3199999921875  C 12.5600000078125 9.7199999921875  12.3200000078125 9.199999984375  11.92 8.7599999921875  C 11.8400000078125 8.68  11.8 8.63999999218751  11.7200000078125 8.6000000078125  C 11.4800000078125 8.400000015625  11.44 8.0000000078125  11.6399999921875 7.7600000078125  C 11.839999984375 7.5200000078125  12.2399999921875 7.48  12.4799999921875 7.6799999921875  C 12.559999984375 7.759999984375  12.679999984375 7.84  12.76 7.96  C 13.36 8.56  13.72 9.3599999921875  13.84 10.1999999921875  Z M 9.4 6.2399999921875  C 9.4 5.8799999921875  9.6800000078125 5.6399999921875  10 5.6399999921875  C 10.3199999921875 5.6399999921875  10.6 5.92  10.6 6.2399999921875  L 10.6 9.2000000078125  C 10.6 9.52  10.3199999921875 9.8000000078125  10 9.8000000078125  C 9.6800000078125 9.8000000078125  9.4 9.52  9.4 9.2000000078125  L 9.4 6.2399999921875  Z " fill-rule="nonzero" fill="#b0b0b0" stroke="none" transform="matrix(1 0 0 1 1548 34 )" />
  </g>
</svg>