<?xml version="1.0" encoding="utf-8"?>
<svg version="1.1" xmlns:xlink="http://www.w3.org/1999/xlink" width="74px" height="70px" xmlns="http://www.w3.org/2000/svg">
  <g transform="matrix(1 0 0 1 -1627 -507 )">
    <path d="M 1627 507  L 1701 507  L 1701 577  L 1627 577  L 1627 507  " fill-rule="nonzero" fill="#cccccc" stroke="none" />
    <path d="M 1632 512  L 1696 512  L 1696 572  L 1632 572  L 1632 512  " fill-rule="nonzero" fill="#ffffff" stroke="none" />
    <path d="M 1670.73 528  C 1667.79 528  1665.48 525.69  1665.48 522.75  C 1665.48 519.81  1667.79 517.5  1670.73 517.5  C 1673.67 517.5  1675.98 519.81  1675.98 522.75  C 1675.98 525.69  1673.67 528  1670.73 528  " fill-rule="nonzero" fill="#cccccc" stroke="none" />
    <path d="M 1634 570  L 1634 539.2  L 1649 525.2  L 1670 538.216216216216  L 1682 533.6  L 1694 538.216216216216  L 1694 570  L 1634 570  " fill-rule="nonzero" fill="#169bd5" stroke="none" />
  </g>
</svg>