<?xml version="1.0" encoding="utf-8"?>
<svg version="1.1" xmlns:xlink="http://www.w3.org/1999/xlink" width="308px" height="44px" viewBox="30 184  308 44" xmlns="http://www.w3.org/2000/svg">
  <path d="M 31 194  A 9 9 0 0 1 40 185 L 328 185  A 9 9 0 0 1 337 194 L 337 218  A 9 9 0 0 1 328 227 L 40 227  A 9 9 0 0 1 31 218 L 31 194  Z " fill-rule="nonzero" fill="#ffffff" stroke="none" />
  <path d="M 30.5 194  A 9.5 9.5 0 0 1 40 184.5 L 328 184.5  A 9.5 9.5 0 0 1 337.5 194 L 337.5 218  A 9.5 9.5 0 0 1 328 227.5 L 40 227.5  A 9.5 9.5 0 0 1 30.5 218 L 30.5 194  Z " stroke-width="1" stroke="#797979" fill="none" stroke-opacity="0.447058823529412" />
</svg>