<?xml version="1.0" encoding="utf-8"?>
<svg version="1.1" xmlns:xlink="http://www.w3.org/1999/xlink" width="6px" height="6px" xmlns="http://www.w3.org/2000/svg">
  <g transform="matrix(1 0 0 1 -346 -38 )">
    <path d="M 349 39  C 350.12 39  351 39.88  351 41  C 351 42.12  350.12 43  349 43  C 347.88 43  347 42.12  347 41  C 347 39.88  347.88 39  349 39  Z " fill-rule="nonzero" fill="#333333" stroke="none" />
    <path d="M 349 39  C 350.12 39  351 39.88  351 41  C 351 42.12  350.12 43  349 43  C 347.88 43  347 42.12  347 41  C 347 39.88  347.88 39  349 39  Z " stroke-width="2" stroke="#ffffff" fill="none" />
  </g>
</svg>