<?xml version="1.0" encoding="utf-8"?>
<svg version="1.1" xmlns:xlink="http://www.w3.org/1999/xlink" width="66px" height="66px" xmlns="http://www.w3.org/2000/svg">
  <g transform="matrix(1 0 0 1 -76 -517 )">
    <path d="M 77 523  A 5 5 0 0 1 82 518 L 136 518  A 5 5 0 0 1 141 523 L 141 577  A 5 5 0 0 1 136 582 L 82 582  A 5 5 0 0 1 77 577 L 77 523  Z " fill-rule="nonzero" fill="#ffffff" stroke="none" />
    <path d="M 76.5 523  A 5.5 5.5 0 0 1 82 517.5 L 136 517.5  A 5.5 5.5 0 0 1 141.5 523 L 141.5 577  A 5.5 5.5 0 0 1 136 582.5 L 82 582.5  A 5.5 5.5 0 0 1 76.5 577 L 76.5 523  Z " stroke-width="1" stroke-dasharray="3,1" stroke="#40a9ff" fill="none" stroke-dashoffset="0.5" />
  </g>
</svg>