<?xml version="1.0" encoding="utf-8"?>
<svg version="1.1" xmlns:xlink="http://www.w3.org/1999/xlink" width="5px" height="10px" xmlns="http://www.w3.org/2000/svg">
  <g transform="matrix(1 0 0 1 -928 -461 )">
    <path d="M 4.87538270415473 4.74704462843022  L 0.641708590512849 0.193847940173871  C 0.507306232448741 0.0493020079162281  0.305702713727896 0.0493020079162281  0.171300355663789 0.193847940173871  C 0.0368979975996808 0.338393872431513  0.0368979975996808 0.555212751055857  0.171300355663789 0.6997586833135  L 4.16977035188108 5  L 0.171300355663789 9.3002413166865  C 0.0368979975996808 9.44478724894414  0.0368979975996808 9.66160612756849  0.171300355663789 9.80615205982613  C 0.238501534695843 9.87842502595495  0.339303294056208 9.91456149913827  0.406504473088262 9.91456149913827  C 0.473705652120429 9.91456149913827  0.574507411480795 9.87842502595495  0.641708590512849 9.80615205982613  L 4.87538270415473 5.25295537156978  C 5.00978506221884 5.10840943931214  5.00978506221884 4.89159056068786  4.87538270415473 4.74704462843022  Z " fill-rule="nonzero" fill="#096dd9" stroke="none" transform="matrix(1 0 0 1 928 461 )" />
  </g>
</svg>