<?xml version="1.0" encoding="utf-8"?>
<svg version="1.1" xmlns:xlink="http://www.w3.org/1999/xlink" width="44px" height="20px" xmlns="http://www.w3.org/2000/svg">
  <g transform="matrix(1 0 0 1 -219 -387 )">
    <path d="M 220 392  A 4 4 0 0 1 224 388 L 258 388  A 4 4 0 0 1 262 392 L 262 402  A 4 4 0 0 1 258 406 L 224 406  A 4 4 0 0 1 220 402 L 220 392  Z " fill-rule="nonzero" fill="#ffffff" stroke="none" fill-opacity="0" />
    <path d="M 219.5 392  A 4.5 4.5 0 0 1 224 387.5 L 258 387.5  A 4.5 4.5 0 0 1 262.5 392 L 262.5 402  A 4.5 4.5 0 0 1 258 406.5 L 224 406.5  A 4.5 4.5 0 0 1 219.5 402 L 219.5 392  Z " stroke-width="1" stroke="#797979" fill="none" stroke-opacity="0.36078431372549" />
  </g>
</svg>