<?xml version="1.0" encoding="utf-8"?>
<svg version="1.1" xmlns:xlink="http://www.w3.org/1999/xlink" width="12px" height="12px" viewBox="818 438  12 12" xmlns="http://www.w3.org/2000/svg">
  <path d="M 824 438  C 827.36 438  830 440.64  830 444  C 830 447.36  827.36 450  824 450  C 820.64 450  818 447.36  818 444  C 818 440.64  820.64 438  824 438  Z " fill-rule="nonzero" fill="#f0f0f0" stroke="none" />
  <path d="M 824 438.5  C 827.08 438.5  829.5 440.92  829.5 444  C 829.5 447.08  827.08 449.5  824 449.5  C 820.92 449.5  818.5 447.08  818.5 444  C 818.5 440.92  820.92 438.5  824 438.5  Z " stroke-width="1" stroke="#797979" fill="none" />
  <path d="M 824 447  C 822.32 447  821 445.68  821 444  C 821 442.32  822.32 441  824 441  C 825.68 441  827 442.32  827 444  C 827 445.68  825.68 447  824 447  " fill-rule="nonzero" fill="#797979" stroke="none" />
</svg>