<?xml version="1.0" encoding="utf-8"?>
<svg version="1.1" xmlns:xlink="http://www.w3.org/1999/xlink" width="12px" height="12px" viewBox="599 323  12 12" xmlns="http://www.w3.org/2000/svg">
  <path d="M 605 323  C 608.36 323  611 325.64  611 329  C 611 332.36  608.36 335  605 335  C 601.64 335  599 332.36  599 329  C 599 325.64  601.64 323  605 323  Z " fill-rule="nonzero" fill="#f0f0f0" stroke="none" />
  <path d="M 605 323.5  C 608.08 323.5  610.5 325.92  610.5 329  C 610.5 332.08  608.08 334.5  605 334.5  C 601.92 334.5  599.5 332.08  599.5 329  C 599.5 325.92  601.92 323.5  605 323.5  Z " stroke-width="1" stroke="#797979" fill="none" />
  <path d="M 605 332  C 603.32 332  602 330.68  602 329  C 602 327.32  603.32 326  605 326  C 606.68 326  608 327.32  608 329  C 608 330.68  606.68 332  605 332  " fill-rule="nonzero" fill="#797979" stroke="none" />
</svg>