<?xml version="1.0" encoding="utf-8"?>
<svg version="1.1" xmlns:xlink="http://www.w3.org/1999/xlink" width="12px" height="12px" viewBox="485 365  12 12" xmlns="http://www.w3.org/2000/svg">
  <path d="M 491 365  C 494.36 365  497 367.64  497 371  C 497 374.36  494.36 377  491 377  C 487.64 377  485 374.36  485 371  C 485 367.64  487.64 365  491 365  Z " fill-rule="nonzero" fill="#f0f0f0" stroke="none" />
  <path d="M 491 365.5  C 494.08 365.5  496.5 367.92  496.5 371  C 496.5 374.08  494.08 376.5  491 376.5  C 487.92 376.5  485.5 374.08  485.5 371  C 485.5 367.92  487.92 365.5  491 365.5  Z " stroke-width="1" stroke="#797979" fill="none" />
  <path d="M 491 374  C 489.32 374  488 372.68  488 371  C 488 369.32  489.32 368  491 368  C 492.68 368  494 369.32  494 371  C 494 372.68  492.68 374  491 374  " fill-rule="nonzero" fill="#797979" stroke="none" />
</svg>