<?xml version="1.0" encoding="utf-8"?>
<svg version="1.1" xmlns:xlink="http://www.w3.org/1999/xlink" width="12px" height="12px" viewBox="699 410  12 12" xmlns="http://www.w3.org/2000/svg">
  <path d="M 705 410  C 708.36 410  711 412.64  711 416  C 711 419.36  708.36 422  705 422  C 701.64 422  699 419.36  699 416  C 699 412.64  701.64 410  705 410  Z " fill-rule="nonzero" fill="#f0f0f0" stroke="none" />
  <path d="M 705 410.5  C 708.08 410.5  710.5 412.92  710.5 416  C 710.5 419.08  708.08 421.5  705 421.5  C 701.92 421.5  699.5 419.08  699.5 416  C 699.5 412.92  701.92 410.5  705 410.5  Z " stroke-width="1" stroke="#797979" fill="none" />
  <path d="M 705 419  C 703.32 419  702 417.68  702 416  C 702 414.32  703.32 413  705 413  C 706.68 413  708 414.32  708 416  C 708 417.68  706.68 419  705 419  " fill-rule="nonzero" fill="#797979" stroke="none" />
</svg>