<?xml version="1.0" encoding="utf-8"?>
<svg version="1.1" xmlns:xlink="http://www.w3.org/1999/xlink" width="12px" height="12px" viewBox="485 410  12 12" xmlns="http://www.w3.org/2000/svg">
  <path d="M 491 410  C 494.36 410  497 412.64  497 416  C 497 419.36  494.36 422  491 422  C 487.64 422  485 419.36  485 416  C 485 412.64  487.64 410  491 410  Z " fill-rule="nonzero" fill="#f0f0f0" stroke="none" />
  <path d="M 491 410.5  C 494.08 410.5  496.5 412.92  496.5 416  C 496.5 419.08  494.08 421.5  491 421.5  C 487.92 421.5  485.5 419.08  485.5 416  C 485.5 412.92  487.92 410.5  491 410.5  Z " stroke-width="1" stroke="#797979" fill="none" />
  <path d="M 491 419  C 489.32 419  488 417.68  488 416  C 488 414.32  489.32 413  491 413  C 492.68 413  494 414.32  494 416  C 494 417.68  492.68 419  491 419  " fill-rule="nonzero" fill="#797979" stroke="none" />
</svg>