<?xml version="1.0" encoding="utf-8"?>
<svg version="1.1" xmlns:xlink="http://www.w3.org/1999/xlink" width="12px" height="12px" viewBox="485 451  12 12" xmlns="http://www.w3.org/2000/svg">
  <path d="M 491 451  C 494.36 451  497 453.64  497 457  C 497 460.36  494.36 463  491 463  C 487.64 463  485 460.36  485 457  C 485 453.64  487.64 451  491 451  Z " fill-rule="nonzero" fill="#f0f0f0" stroke="none" />
  <path d="M 491 451.5  C 494.08 451.5  496.5 453.92  496.5 457  C 496.5 460.08  494.08 462.5  491 462.5  C 487.92 462.5  485.5 460.08  485.5 457  C 485.5 453.92  487.92 451.5  491 451.5  Z " stroke-width="1" stroke="#797979" fill="none" />
  <path d="M 491 460  C 489.32 460  488 458.68  488 457  C 488 455.32  489.32 454  491 454  C 492.68 454  494 455.32  494 457  C 494 458.68  492.68 460  491 460  " fill-rule="nonzero" fill="#797979" stroke="none" />
</svg>