<?xml version="1.0" encoding="utf-8"?>
<svg version="1.1" xmlns:xlink="http://www.w3.org/1999/xlink" width="12px" height="12px" viewBox="699 535  12 12" xmlns="http://www.w3.org/2000/svg">
  <path d="M 705 535  C 708.36 535  711 537.64  711 541  C 711 544.36  708.36 547  705 547  C 701.64 547  699 544.36  699 541  C 699 537.64  701.64 535  705 535  Z " fill-rule="nonzero" fill="#ffffff" stroke="none" />
  <path d="M 705 535.5  C 708.08 535.5  710.5 537.92  710.5 541  C 710.5 544.08  708.08 546.5  705 546.5  C 701.92 546.5  699.5 544.08  699.5 541  C 699.5 537.92  701.92 535.5  705 535.5  Z " stroke-width="1" stroke="#797979" fill="none" />
  <path d="M 705 544  C 703.32 544  702 542.68  702 541  C 702 539.32  703.32 538  705 538  C 706.68 538  708 539.32  708 541  C 708 542.68  706.68 544  705 544  " fill-rule="nonzero" fill="#797979" stroke="none" />
</svg>