<?xml version="1.0" encoding="utf-8"?>
<svg version="1.1" xmlns:xlink="http://www.w3.org/1999/xlink" width="12px" height="12px" viewBox="699 490  12 12" xmlns="http://www.w3.org/2000/svg">
  <path d="M 705 490  C 708.36 490  711 492.64  711 496  C 711 499.36  708.36 502  705 502  C 701.64 502  699 499.36  699 496  C 699 492.64  701.64 490  705 490  Z " fill-rule="nonzero" fill="#ffffff" stroke="none" />
  <path d="M 705 490.5  C 708.08 490.5  710.5 492.92  710.5 496  C 710.5 499.08  708.08 501.5  705 501.5  C 701.92 501.5  699.5 499.08  699.5 496  C 699.5 492.92  701.92 490.5  705 490.5  Z " stroke-width="1" stroke="#797979" fill="none" />
  <path d="M 705 499  C 703.32 499  702 497.68  702 496  C 702 494.32  703.32 493  705 493  C 706.68 493  708 494.32  708 496  C 708 497.68  706.68 499  705 499  " fill-rule="nonzero" fill="#797979" stroke="none" />
</svg>