<?xml version="1.0" encoding="utf-8"?>
<svg version="1.1" xmlns:xlink="http://www.w3.org/1999/xlink" width="12px" height="12px" viewBox="699 365  12 12" xmlns="http://www.w3.org/2000/svg">
  <path d="M 705 365  C 708.36 365  711 367.64  711 371  C 711 374.36  708.36 377  705 377  C 701.64 377  699 374.36  699 371  C 699 367.64  701.64 365  705 365  Z " fill-rule="nonzero" fill="#f0f0f0" stroke="none" />
  <path d="M 705 365.5  C 708.08 365.5  710.5 367.92  710.5 371  C 710.5 374.08  708.08 376.5  705 376.5  C 701.92 376.5  699.5 374.08  699.5 371  C 699.5 367.92  701.92 365.5  705 365.5  Z " stroke-width="1" stroke="#797979" fill="none" />
  <path d="M 705 374  C 703.32 374  702 372.68  702 371  C 702 369.32  703.32 368  705 368  C 706.68 368  708 369.32  708 371  C 708 372.68  706.68 374  705 374  " fill-rule="nonzero" fill="#797979" stroke="none" />
</svg>