<?xml version="1.0" encoding="utf-8"?>
<svg version="1.1" xmlns:xlink="http://www.w3.org/1999/xlink" width="12px" height="12px" viewBox="485 535  12 12" xmlns="http://www.w3.org/2000/svg">
  <path d="M 491 535  C 494.36 535  497 537.64  497 541  C 497 544.36  494.36 547  491 547  C 487.64 547  485 544.36  485 541  C 485 537.64  487.64 535  491 535  Z " fill-rule="nonzero" fill="#ffffff" stroke="none" />
  <path d="M 491 535.5  C 494.08 535.5  496.5 537.92  496.5 541  C 496.5 544.08  494.08 546.5  491 546.5  C 487.92 546.5  485.5 544.08  485.5 541  C 485.5 537.92  487.92 535.5  491 535.5  Z " stroke-width="1" stroke="#797979" fill="none" />
  <path d="M 491 544  C 489.32 544  488 542.68  488 541  C 488 539.32  489.32 538  491 538  C 492.68 538  494 539.32  494 541  C 494 542.68  492.68 544  491 544  " fill-rule="nonzero" fill="#797979" stroke="none" />
</svg>