<?xml version="1.0" encoding="utf-8"?>
<svg version="1.1" xmlns:xlink="http://www.w3.org/1999/xlink" width="87px" height="87px" xmlns="http://www.w3.org/2000/svg">
  <g transform="matrix(1 0 0 1 -1383 -1535 )">
    <path d="M 1426.5 1535  C 1450.86 1535  1470 1554.14  1470 1578.5  C 1470 1602.86  1450.86 1622  1426.5 1622  C 1402.14 1622  1383 1602.86  1383 1578.5  C 1383 1554.14  1402.14 1535  1426.5 1535  Z " fill-rule="nonzero" fill="#ffffff" stroke="none" />
    <path d="M 1426.5 1535.5  C 1450.58 1535.5  1469.5 1554.42  1469.5 1578.5  C 1469.5 1602.58  1450.58 1621.5  1426.5 1621.5  C 1402.42 1621.5  1383.5 1602.58  1383.5 1578.5  C 1383.5 1554.42  1402.42 1535.5  1426.5 1535.5  Z " stroke-width="1" stroke="#797979" fill="none" />
  </g>
</svg>