<?xml version="1.0" encoding="utf-8"?>
<svg version="1.1" xmlns:xlink="http://www.w3.org/1999/xlink" width="12px" height="12px" viewBox="1733 482  12 12" xmlns="http://www.w3.org/2000/svg">
  <path d="M 1739 482  C 1742.36 482  1745 484.64  1745 488  C 1745 491.36  1742.36 494  1739 494  C 1735.64 494  1733 491.36  1733 488  C 1733 484.64  1735.64 482  1739 482  Z " fill-rule="nonzero" fill="#f0f0f0" stroke="none" />
  <path d="M 1739 482.5  C 1742.08 482.5  1744.5 484.92  1744.5 488  C 1744.5 491.08  1742.08 493.5  1739 493.5  C 1735.92 493.5  1733.5 491.08  1733.5 488  C 1733.5 484.92  1735.92 482.5  1739 482.5  Z " stroke-width="1" stroke="#797979" fill="none" />
  <path d="M 1739 491  C 1737.32 491  1736 489.68  1736 488  C 1736 486.32  1737.32 485  1739 485  C 1740.68 485  1742 486.32  1742 488  C 1742 489.68  1740.68 491  1739 491  " fill-rule="nonzero" fill="#797979" stroke="none" />
</svg>