<?xml version="1.0" encoding="utf-8"?>
<svg version="1.1" xmlns:xlink="http://www.w3.org/1999/xlink" width="300px" height="139px" xmlns="http://www.w3.org/2000/svg">
  <g>
    <path d="M 0 0  L 300 0  L 300 139  L 0 139  L 0 0  " fill-rule="nonzero" fill="#cccccc" stroke="none" />
    <path d="M 10 10  L 290 10  L 290 129  L 10 129  L 10 10  " fill-rule="nonzero" fill="#ffffff" stroke="none" />
    <path d="M 166.425 41.7  C 160.587 41.7  156 37.113  156 31.275  C 156 25.437  160.587 20.85  166.425 20.85  C 172.263 20.85  176.85 25.437  176.85 31.275  C 176.85 37.113  172.263 41.7  166.425 41.7  " fill-rule="nonzero" fill="#cccccc" stroke="none" />
    <path d="M 14 126  L 14 64.4  L 82.25 36.4  L 177.8 94.864  L 232.4 53.2  L 287 94.864  L 287 126  L 14 126  " fill-rule="nonzero" fill="#169bd5" stroke="none" />
  </g>
</svg>