<?xml version="1.0" encoding="utf-8"?>
<svg version="1.1" xmlns:xlink="http://www.w3.org/1999/xlink" width="85px" height="81px" xmlns="http://www.w3.org/2000/svg">
  <g transform="matrix(1 0 0 1 -813 -301 )">
    <path d="M 813 301  L 898 301  L 898 382  L 813 382  L 813 301  " fill-rule="nonzero" fill="#cccccc" stroke="none" />
    <path d="M 819 307  L 892 307  L 892 376  L 819 376  L 819 307  " fill-rule="nonzero" fill="#ffffff" stroke="none" />
    <path d="M 863.275 325.3  C 859.873 325.3  857.2 322.627  857.2 319.225  C 857.2 315.823  859.873 313.15  863.275 313.15  C 866.677 313.15  869.35 315.823  869.35 319.225  C 869.35 322.627  866.677 325.3  863.275 325.3  " fill-rule="nonzero" fill="#cccccc" stroke="none" />
    <path d="M 821 374  L 821 338.25  L 838.25 322  L 862.4 336.835294117647  L 876.2 331.75  L 890 336.835294117647  L 890 374  L 821 374  " fill-rule="nonzero" fill="#169bd5" stroke="none" />
  </g>
</svg>