<?xml version="1.0" encoding="utf-8"?>
<svg version="1.1" xmlns:xlink="http://www.w3.org/1999/xlink" width="12px" height="12px" viewBox="812 1293  12 12" xmlns="http://www.w3.org/2000/svg">
  <path d="M 818 1293  C 821.36 1293  824 1295.64  824 1299  C 824 1302.36  821.36 1305  818 1305  C 814.64 1305  812 1302.36  812 1299  C 812 1295.64  814.64 1293  818 1293  Z " fill-rule="nonzero" fill="#f0f0f0" stroke="none" />
  <path d="M 818 1293.5  C 821.08 1293.5  823.5 1295.92  823.5 1299  C 823.5 1302.08  821.08 1304.5  818 1304.5  C 814.92 1304.5  812.5 1302.08  812.5 1299  C 812.5 1295.92  814.92 1293.5  818 1293.5  Z " stroke-width="1" stroke="#797979" fill="none" />
  <path d="M 818 1302  C 816.32 1302  815 1300.68  815 1299  C 815 1297.32  816.32 1296  818 1296  C 819.68 1296  821 1297.32  821 1299  C 821 1300.68  819.68 1302  818 1302  " fill-rule="nonzero" fill="#797979" stroke="none" />
</svg>