<?xml version="1.0" encoding="utf-8"?>
<svg version="1.1" xmlns:xlink="http://www.w3.org/1999/xlink" width="12px" height="12px" viewBox="939 1293  12 12" xmlns="http://www.w3.org/2000/svg">
  <path d="M 945 1293  C 948.36 1293  951 1295.64  951 1299  C 951 1302.36  948.36 1305  945 1305  C 941.64 1305  939 1302.36  939 1299  C 939 1295.64  941.64 1293  945 1293  Z " fill-rule="nonzero" fill="#ffffff" stroke="none" />
  <path d="M 945 1293.5  C 948.08 1293.5  950.5 1295.92  950.5 1299  C 950.5 1302.08  948.08 1304.5  945 1304.5  C 941.92 1304.5  939.5 1302.08  939.5 1299  C 939.5 1295.92  941.92 1293.5  945 1293.5  Z " stroke-width="1" stroke="#797979" fill="none" />
  <path d="M 945 1302  C 943.32 1302  942 1300.68  942 1299  C 942 1297.32  943.32 1296  945 1296  C 946.68 1296  948 1297.32  948 1299  C 948 1300.68  946.68 1302  945 1302  " fill-rule="nonzero" fill="#797979" stroke="none" />
</svg>