<?xml version="1.0" encoding="utf-8"?>
<svg version="1.1" xmlns:xlink="http://www.w3.org/1999/xlink" width="12px" height="12px" viewBox="1091 1293  12 12" xmlns="http://www.w3.org/2000/svg">
  <path d="M 1097 1293  C 1100.36 1293  1103 1295.64  1103 1299  C 1103 1302.36  1100.36 1305  1097 1305  C 1093.64 1305  1091 1302.36  1091 1299  C 1091 1295.64  1093.64 1293  1097 1293  Z " fill-rule="nonzero" fill="#ffffff" stroke="none" />
  <path d="M 1097 1293.5  C 1100.08 1293.5  1102.5 1295.92  1102.5 1299  C 1102.5 1302.08  1100.08 1304.5  1097 1304.5  C 1093.92 1304.5  1091.5 1302.08  1091.5 1299  C 1091.5 1295.92  1093.92 1293.5  1097 1293.5  Z " stroke-width="1" stroke="#797979" fill="none" />
  <path d="M 1097 1302  C 1095.32 1302  1094 1300.68  1094 1299  C 1094 1297.32  1095.32 1296  1097 1296  C 1098.68 1296  1100 1297.32  1100 1299  C 1100 1300.68  1098.68 1302  1097 1302  " fill-rule="nonzero" fill="#797979" stroke="none" />
</svg>