<?xml version="1.0" encoding="utf-8"?>
<svg version="1.1" xmlns:xlink="http://www.w3.org/1999/xlink" width="12px" height="12px" viewBox="812 1342  12 12" xmlns="http://www.w3.org/2000/svg">
  <path d="M 818 1342  C 821.36 1342  824 1344.64  824 1348  C 824 1351.36  821.36 1354  818 1354  C 814.64 1354  812 1351.36  812 1348  C 812 1344.64  814.64 1342  818 1342  Z " fill-rule="nonzero" fill="#f0f0f0" stroke="none" />
  <path d="M 818 1342.5  C 821.08 1342.5  823.5 1344.92  823.5 1348  C 823.5 1351.08  821.08 1353.5  818 1353.5  C 814.92 1353.5  812.5 1351.08  812.5 1348  C 812.5 1344.92  814.92 1342.5  818 1342.5  Z " stroke-width="1" stroke="#797979" fill="none" />
  <path d="M 818 1351  C 816.32 1351  815 1349.68  815 1348  C 815 1346.32  816.32 1345  818 1345  C 819.68 1345  821 1346.32  821 1348  C 821 1349.68  819.68 1351  818 1351  " fill-rule="nonzero" fill="#797979" stroke="none" />
</svg>