<?xml version="1.0" encoding="utf-8"?>
<svg version="1.1" xmlns:xlink="http://www.w3.org/1999/xlink" width="12px" height="12px" viewBox="1196 1342  12 12" xmlns="http://www.w3.org/2000/svg">
  <path d="M 1202 1342  C 1205.36 1342  1208 1344.64  1208 1348  C 1208 1351.36  1205.36 1354  1202 1354  C 1198.64 1354  1196 1351.36  1196 1348  C 1196 1344.64  1198.64 1342  1202 1342  Z " fill-rule="nonzero" fill="#ffffff" stroke="none" />
  <path d="M 1202 1342.5  C 1205.08 1342.5  1207.5 1344.92  1207.5 1348  C 1207.5 1351.08  1205.08 1353.5  1202 1353.5  C 1198.92 1353.5  1196.5 1351.08  1196.5 1348  C 1196.5 1344.92  1198.92 1342.5  1202 1342.5  Z " stroke-width="1" stroke="#797979" fill="none" />
  <path d="M 1202 1351  C 1200.32 1351  1199 1349.68  1199 1348  C 1199 1346.32  1200.32 1345  1202 1345  C 1203.68 1345  1205 1346.32  1205 1348  C 1205 1349.68  1203.68 1351  1202 1351  " fill-rule="nonzero" fill="#797979" stroke="none" />
</svg>