<?xml version="1.0" encoding="utf-8"?>
<svg version="1.1" xmlns:xlink="http://www.w3.org/1999/xlink" width="12px" height="12px" viewBox="1007 2246  12 12" xmlns="http://www.w3.org/2000/svg">
  <path d="M 1013 2246  C 1016.36 2246  1019 2248.64  1019 2252  C 1019 2255.36  1016.36 2258  1013 2258  C 1009.64 2258  1007 2255.36  1007 2252  C 1007 2248.64  1009.64 2246  1013 2246  Z " fill-rule="nonzero" fill="#f0f0f0" stroke="none" />
  <path d="M 1013 2246.5  C 1016.08 2246.5  1018.5 2248.92  1018.5 2252  C 1018.5 2255.08  1016.08 2257.5  1013 2257.5  C 1009.92 2257.5  1007.5 2255.08  1007.5 2252  C 1007.5 2248.92  1009.92 2246.5  1013 2246.5  Z " stroke-width="1" stroke="#797979" fill="none" />
  <path d="M 1013 2255  C 1011.32 2255  1010 2253.68  1010 2252  C 1010 2250.32  1011.32 2249  1013 2249  C 1014.68 2249  1016 2250.32  1016 2252  C 1016 2253.68  1014.68 2255  1013 2255  " fill-rule="nonzero" fill="#797979" stroke="none" />
</svg>