<?xml version="1.0" encoding="utf-8"?>
<svg version="1.1" xmlns:xlink="http://www.w3.org/1999/xlink" width="112px" height="40px" xmlns="http://www.w3.org/2000/svg">
  <defs>
    <mask fill="white" id="clip9">
      <path d="M 0 35  L 0 5  C 0 2.20000000000005  2.20000000000005 0  5 0  L 107 0  C 109.8 0  112 2.20000000000005  112 5  L 112 35  C 112 37.8  109.8 40  107 40  L 46.75 40  L 5 40  C 2.20000000000005 40  0 37.8  0 35  Z " fill-rule="evenodd" />
    </mask>
  </defs>
  <g transform="matrix(1 0 0 1 -1032 -1773 )">
    <path d="M 0 35  L 0 5  C 0 2.20000000000005  2.20000000000005 0  5 0  L 107 0  C 109.8 0  112 2.20000000000005  112 5  L 112 35  C 112 37.8  109.8 40  107 40  L 46.75 40  L 5 40  C 2.20000000000005 40  0 37.8  0 35  Z " fill-rule="nonzero" fill="#ffffff" stroke="none" transform="matrix(1 0 0 1 1032 1773 )" />
    <path d="M 0 35  L 0 5  C 0 2.20000000000005  2.20000000000005 0  5 0  L 107 0  C 109.8 0  112 2.20000000000005  112 5  L 112 35  C 112 37.8  109.8 40  107 40  L 46.75 40  L 5 40  C 2.20000000000005 40  0 37.8  0 35  Z " stroke-width="2" stroke="#797979" fill="none" transform="matrix(1 0 0 1 1032 1773 )" mask="url(#clip9)" />
  </g>
</svg>