<?xml version="1.0" encoding="utf-8"?>
<svg version="1.1" xmlns:xlink="http://www.w3.org/1999/xlink" width="84px" height="78px" xmlns="http://www.w3.org/2000/svg">
  <g transform="matrix(1 0 0 1 -76 -424 )">
    <path d="M 76 424  L 160 424  L 160 502  L 76 502  L 76 424  " fill-rule="nonzero" fill="#cccccc" stroke="none" />
    <path d="M 81 429  L 155 429  L 155 497  L 81 497  L 81 429  " fill-rule="nonzero" fill="#ffffff" stroke="none" />
    <path d="M 125.53 447.4  C 122.254 447.4  119.68 444.826  119.68 441.55  C 119.68 438.274  122.254 435.7  125.53 435.7  C 128.806 435.7  131.38 438.274  131.38 441.55  C 131.38 444.826  128.806 447.4  125.53 447.4  " fill-rule="nonzero" fill="#cccccc" stroke="none" />
    <path d="M 83 495  L 83 459.8  L 100.5 443.8  L 125 459.342857142857  L 139 453.4  L 153 459.342857142857  L 153 495  L 83 495  " fill-rule="nonzero" fill="#169bd5" stroke="none" />
  </g>
</svg>