<?xml version="1.0" encoding="utf-8"?>
<svg version="1.1" xmlns:xlink="http://www.w3.org/1999/xlink" width="12px" height="12px" viewBox="1737 502  12 12" xmlns="http://www.w3.org/2000/svg">
  <path d="M 1743 502  C 1746.36 502  1749 504.64  1749 508  C 1749 511.36  1746.36 514  1743 514  C 1739.64 514  1737 511.36  1737 508  C 1737 504.64  1739.64 502  1743 502  Z " fill-rule="nonzero" fill="#ffffff" stroke="none" />
  <path d="M 1743 502.5  C 1746.08 502.5  1748.5 504.92  1748.5 508  C 1748.5 511.08  1746.08 513.5  1743 513.5  C 1739.92 513.5  1737.5 511.08  1737.5 508  C 1737.5 504.92  1739.92 502.5  1743 502.5  Z " stroke-width="1" stroke="#797979" fill="none" />
  <path d="M 1743 511  C 1741.32 511  1740 509.68  1740 508  C 1740 506.32  1741.32 505  1743 505  C 1744.68 505  1746 506.32  1746 508  C 1746 509.68  1744.68 511  1743 511  " fill-rule="nonzero" fill="#797979" stroke="none" />
</svg>