<?xml version="1.0" encoding="utf-8"?>
<svg version="1.1" xmlns:xlink="http://www.w3.org/1999/xlink" width="12px" height="12px" viewBox="1837 502  12 12" xmlns="http://www.w3.org/2000/svg">
  <path d="M 1843 502  C 1846.36 502  1849 504.64  1849 508  C 1849 511.36  1846.36 514  1843 514  C 1839.64 514  1837 511.36  1837 508  C 1837 504.64  1839.64 502  1843 502  Z " fill-rule="nonzero" fill="#f0f0f0" stroke="none" />
  <path d="M 1843 502.5  C 1846.08 502.5  1848.5 504.92  1848.5 508  C 1848.5 511.08  1846.08 513.5  1843 513.5  C 1839.92 513.5  1837.5 511.08  1837.5 508  C 1837.5 504.92  1839.92 502.5  1843 502.5  Z " stroke-width="1" stroke="#797979" fill="none" />
  <path d="M 1843 511  C 1841.32 511  1840 509.68  1840 508  C 1840 506.32  1841.32 505  1843 505  C 1844.68 505  1846 506.32  1846 508  C 1846 509.68  1844.68 511  1843 511  " fill-rule="nonzero" fill="#797979" stroke="none" />
</svg>