<?xml version="1.0" encoding="utf-8"?>
<svg version="1.1" xmlns:xlink="http://www.w3.org/1999/xlink" width="12px" height="11px" xmlns="http://www.w3.org/2000/svg">
  <g transform="matrix(1 0 0 1 -430 -161 )">
    <path d="M 10.7328294289898 9.72822565885798  L 6.29436676427526 5.65938323572474  L 10.7326976573939 1.5905508784773  C 10.9570901814606 1.38328469427664  10.9570901814606 1.04890509342467  10.7326976573939 0.841638909224011  L 10.7083528550512 0.819322840409955  C 10.482167203562 0.61368691323094  10.1174118593956 0.61368691323094  9.8912262079063 0.819322840409955  L 5.45262079062958 4.89328879941435  L 1.01389458272328 0.817611639824304  C 0.787756439675776 0.611984315548212  0.423037850221736 0.611984315548212  0.196899707174232 0.817611639824304  L 0.172554904831626 0.83992770863836  C 0.0622622371264897 0.938306775474439  4.45836932917065E-05 1.07338184412186  4.45836932917065E-05 1.21444912152269  C 4.45836932917065E-05 1.35551639892353  0.0622622371264897 1.49059146757095  0.172554904831626 1.58897053440703  L 4.61128111273792 5.65938323572474  L 0.172554904831626 9.72821559297218  C -0.0517730744670071 9.93551007358262  -0.051773074467006 10.2698431475008  0.172554904831626 10.4771376281113  L 0.196899707174232 10.4994536969253  C 0.42300827175677 10.7051468439865  0.787786018140742 10.7051468439865  1.01389458272328 10.4994536969253  L 5.45262079062958 6.43062133967789  L 9.89134699853587 10.4994536969253  C 10.1175019072717 10.7051675727691  10.4823297179113 10.7051675727691  10.7084846266471 10.4994536969253  L 10.7328294289898 10.4771376281113  C 10.9572219530565 10.2698714439106  10.9572219530565 9.93549184305864  10.7328294289898 9.72822565885798  Z " fill-rule="nonzero" fill="#aaaaaa" stroke="none" transform="matrix(1 0 0 1 430 161 )" />
  </g>
</svg>