<?xml version="1.0" encoding="utf-8"?>
<svg version="1.1" xmlns:xlink="http://www.w3.org/1999/xlink" width="17px" height="17px" xmlns="http://www.w3.org/2000/svg">
  <g transform="matrix(1 0 0 1 -1672 -747 )">
    <path d="M 1680.5 751  C 1683.02 751  1685 752.98  1685 755.5  C 1685 758.02  1683.02 760  1680.5 760  C 1677.98 760  1676 758.02  1676 755.5  C 1676 752.98  1677.98 751  1680.5 751  Z " fill-rule="nonzero" fill="#ffffff" stroke="none" />
    <path d="M 1680.5 749.5  C 1683.86 749.5  1686.5 752.14  1686.5 755.5  C 1686.5 758.86  1683.86 761.5  1680.5 761.5  C 1677.14 761.5  1674.5 758.86  1674.5 755.5  C 1674.5 752.14  1677.14 749.5  1680.5 749.5  Z " stroke-width="5" stroke="#20b9b0" fill="none" />
  </g>
</svg>