<?xml version="1.0" encoding="utf-8"?>
<svg version="1.1" xmlns:xlink="http://www.w3.org/1999/xlink" width="17px" height="17px" xmlns="http://www.w3.org/2000/svg">
  <g transform="matrix(1 0 0 1 -1774 -747 )">
    <path d="M 1782.5 747  C 1787.26 747  1791 750.74  1791 755.5  C 1791 760.26  1787.26 764  1782.5 764  C 1777.74 764  1774 760.26  1774 755.5  C 1774 750.74  1777.74 747  1782.5 747  Z " fill-rule="nonzero" fill="#ffffff" stroke="none" />
    <path d="M 1782.5 747.5  C 1786.98 747.5  1790.5 751.02  1790.5 755.5  C 1790.5 759.98  1786.98 763.5  1782.5 763.5  C 1778.02 763.5  1774.5 759.98  1774.5 755.5  C 1774.5 751.02  1778.02 747.5  1782.5 747.5  Z " stroke-width="1" stroke="#409eff" fill="none" />
  </g>
</svg>