<?xml version="1.0" encoding="utf-8"?>
<svg version="1.1" xmlns:xlink="http://www.w3.org/1999/xlink" width="10px" height="10px" xmlns="http://www.w3.org/2000/svg">
  <g>
    <path d="M 9.84475621890547 9.07336  L 5.79335323383085 5  L 9.84475621890547 0.92666  C 10.0492537313433 0.72104  10.0492537313433 0.38206  9.84475621890547 0.17646  L 9.82266666666667 0.15422  C 9.61814925373134 -0.05138  9.28097512437811 -0.05138  9.0764776119403 0.15422  L 5.02507462686567 4.23312  L 0.973671641791045 0.1542  C 0.769174129353234 -0.0514  0.432019900497512 -0.0514  0.227522388059701 0.1542  L 0.205412935323383 0.17644  C -0.00461691542288554 0.38204  -0.00461691542288554 0.72102  0.205412935323383 0.92664  L 4.25681592039801 5  L 0.205412935323383 9.07336  C 0.000915422885572149 9.27896  0.000915422885572149 9.61794  0.205412935323383 9.82356  L 0.227522388059701 9.84578  C 0.432039800995025 10.0514  0.769194029850746 10.0514  0.973691542288557 9.84578  L 5.02507462686567 5.77244  L 9.0764776119403 9.84578  C 9.28097512437811 10.0514  9.61814925373134 10.0514  9.82266666666667 9.84578  L 9.84475621890547 9.82356  C 10.0492537313433 9.61796  10.0492537313433 9.27898  9.84475621890547 9.07336  Z " fill-rule="nonzero" fill="#555555" stroke="none" />
  </g>
</svg>