<?xml version="1.0" encoding="utf-8"?>
<svg version="1.1" xmlns:xlink="http://www.w3.org/1999/xlink" width="31px" height="24px" xmlns="http://www.w3.org/2000/svg">
  <g>
    <path d="M 30 3.8064453125  C 30.59990234375 2.23828125  29.32802734375 0.966406249999999  27.7634765625 1  L 3.3810546875 1  C 1.81650390625 0.96640625  0.541015625 2.23828125  1 3.8064453125  L 1 21.04541015625  C 0.541015625 22.6099609375  1.812890625 23.88544921875  3.3810546875 23.88544921875  L 27.7634765625 23.88544921875  C 29.32802734375 23.88544921875  30.603515625 22.61357421875  30 21.04541015625  L 30 3.8064453125  Z M 29 3.8064453125  L 29 21.04541015625  C 29.042578125 21.75  28.46806640625 22.32451171875  27.7634765625 22  L 3.3810546875 22  C 2.67646484375 22.32451171875  2.101953125 21.75  2.101953125 21.04541015625  L 2.101953125 3.8064453125  C 2.101953125 3.10185546875  2.67646484375 2.52734375  3.3810546875 3  L 27.7634765625 3  C 28.46806640625 2.52734375  29.042578125 3.10185546875  29 3.8064453125  Z " fill-rule="nonzero" fill="#20b9b0" stroke="none" />
  </g>
</svg>