<?xml version="1.0" encoding="utf-8"?>
<svg version="1.1" xmlns:xlink="http://www.w3.org/1999/xlink" width="38px" height="41px" xmlns="http://www.w3.org/2000/svg">
  <g transform="matrix(1 0 0 1 -30 -27 )">
    <path d="M 33.9614138719512 3.08911546610169  C 36.0838891006098 3.0936396539548  37.817168445122 4.82640360169491  37.817168445122 6.95277189265537  C 37.817168445122 8.64029396186441  36.44140625 10.015647069209  34.7533822408537 10.015647069209  L 33.526962652439 10.015647069209  C 32.9431688262195 10.6173640536723  32.2055068597561 11.0516860875706  31.3999618902439 11.2733712923729  L 31.3999618902439 20.9868026129944  C 31.3999618902439 23.1584127824859  30.4043445121951 25.0992893714689  28.8475609756098 26.3841587217514  L 28.8475609756098 37.4684189618644  C 28.8475609756098 37.9479828742938  28.4583650914634 38.337063029661  27.9786585365854 38.337063029661  L 25.2859660823171 38.337063029661  L 25.2859660823171 40.0472060381356  C 25.2859660823171 40.526769950565  24.8967701981707 40.9158501059322  24.4170636432927 40.9158501059322  L 20.8509432164634 40.9158501059322  C 20.3712366615854 40.9158501059322  19.982040777439 40.526769950565  20 40.0472060381356  L 20 29.4606064618644  L 13.542206554878 29.4606064618644  C 13.4924256859756 29.5329934675141  13.43359375 29.5963320974576  13.3611852134146 29.655146539548  C 12.7276105182927 30.1482830155367  12.026152820122 30.537363170904  11.2703887195122 30.8088144420904  L 11.2703887195122 37.4684189618644  C 11.2703887195122 37.9479828742938  10.8811928353659 38.337063029661  10.4014862804878 38.337063029661  L 7.70879382621951 38.337063029661  L 7.70879382621951 40.0472060381356  C 7.70879382621951 40.526769950565  7.31959794207317 40.9158501059322  6.83989138719512 40.9158501059322  L 3.27377096036585 40.9158501059322  C 2.79406440548781 40.9158501059322  2.40486852134146 40.526769950565  3 40.0472060381356  L 3 24.4478063206215  C 2.30983231707317 24.4613788841808  2.21479611280488 24.470427259887  2.11975990853659 24.470427259887  C 1.83465129573171 24.470427259887  1.56311928353659 24.4116128177966  1.3096894054878 24.2894597457627  C 0.608231707317073 23.9501456567797  0.178306021341463 23.1810337217514  0.128525152439024 22.1766640183616  C 0.0877953506097561 21.3306408898305  0.309546493902439 20.3579405014124  0.753048780487805 19.4395303672316  C 1.45903201219512 17.9872660663842  2.55421112804878 16.9828963629943  3.62676257621951 16.7476385946328  C 4.91653963414634 14.8339071327684  7.10237233231708 13.5716587217514  9.58236471036585 14  L 21.3940072408537 14  C 22.3217416158537 13.5716587217514  23.0729801829268 12.8206435381356  23.0729801829268 11.8931850282486  L 23.0729801829268 6.48678054378531  C 22.4891863567073 5.82624911723164  22.1452458079268 4.98927436440678  22.1045160060976 4.09348516949153  C 22.0547351371951 3.06197033898305  22.4032012195122 2.07117319915254  23.0865567835366 1.30206126412429  C 23.5255335365854 0.804400600282485  24.086699695122 0.428893008474575  24.7112233231707 0.207207803672316  C 24.860565929878 0.152917549435027  25.0280106707317 0.134820798022598  25.199980945122 0.171014300847457  C 25.6706364329268 0.275070621468926  25.9647961128049 0.741061970338982  25.8607088414634 1.20705331920904  C 25.7928258384146 1.51017390536723  25.7928258384146 1.81781867937853  25.8516577743902 2.11189088983051  C 26.0326791158537 1.78162517655367  26.2634813262195 1.47850459039548  26.5440644054878 1.20705331920904  C 27.0101943597561 0.754634533898304  27.5804115853658 0.41984463276836  28.2049352134146 0.243401306497174  L 28.2456650152439 0.229828742937852  C 28.2501905487805 0.229828742937852  28.2501905487805 0.229828742937852  28.2547160823171 0.225304555084745  C 28.4040586890244 0.184586864406779  28.571503429878 0.184586864406779  28.7298971036585 0.229828742937852  C 29.1915015243902 0.365554378531073  29.4539824695122 0.849642478813558  29.3182164634146 1.31110963983051  C 29.1371951219512 1.921875  29.2322313262195 2.56430967514124  29.5625952743902 3.08911546610169  L 33.9614138719512 3.08911546610169  Z " fill-rule="nonzero" fill="#663333" stroke="none" transform="matrix(1 0 0 1 30 27 )" />
  </g>
</svg>