<?xml version="1.0" encoding="utf-8"?>
<svg version="1.1" xmlns:xlink="http://www.w3.org/1999/xlink" width="22px" height="20px" xmlns="http://www.w3.org/2000/svg">
  <g transform="matrix(1 0 0 1 -32 -46 )">
    <path d="M 0.538240131578947 0.667696220930233  C 0.646792763157896 0.445130813953488  0.764391447368421 0.240734011627907  0.891036184210526 0.0545058139534884  C 0.818667763157895 0.45875726744186  0.782483552631578 3.39752906976745  0.782483552631578 3.39752906976745  C 0.610608552631577 3.46566133720931  0.461348684210525 3.47928779069767  0.366365131578947 3.43386627906977  C 0.203536184210526 3.35664970930232  0.0904605263157895 3.04778343023256  0.0678453947368421 2.65261627906976  C 0.0407072368421053 2.07122093023256  0.212582236842104 1.34901889534883  0.538240131578947 0.667696220930233  Z M 2.51932565789474 19.7946947674419  L 2.51932565789474 19.1542514534884  L 4.34210526315789 19.1542514534884  L 4.34210526315789 19.7946947674419  L 2.51932565789474 19.7946947674419  Z M 20.0867598684211 19.7946947674419  L 20.0867598684211 19.1542514534884  L 21.9095394736842 19.1542514534884  L 21.9095394736842 19.7946947674419  L 20.0867598684211 19.7946947674419  Z " fill-rule="nonzero" fill="#b88d5b" stroke="none" transform="matrix(1 0 0 1 32 46 )" />
  </g>
</svg>