<?xml version="1.0" encoding="utf-8"?>
<svg version="1.1" xmlns:xlink="http://www.w3.org/1999/xlink" width="32px" height="34px" xmlns="http://www.w3.org/2000/svg">
  <g transform="matrix(1 0 0 1 -34 -30 )">
    <path d="M 29.8291366906475 2.24889890939597  C 30.9847122302158 2.24889890939597  31.9289568345324 3.18482592281879  31.9289568345324 4.33913590604027  C 31.9289568345324 5.05667994966443  31.339928057554 5.64052013422819  30.6160071942446 5.64052013422819  L 28.9928057553957 5.64052013422819  C 28.7095323741007 5.6449769295302  28.4622302158273 5.78313758389262  28.3048561151079 5.99260696308725  C 27.8147482014388 6.58090394295302  27.1043165467626 6.95973154362416  26.339928057554 7.03104026845637  C 26.1196043165468 7.04886744966443  25.9262589928058 7.15137374161074  25.7823741007194 7.30736157718121  C 25.6429856115108 7.45889261744966  25.5530575539568 7.66390520134228  25 7.88674496644295  L 25 18.1685717281879  C 25.5530575539568 21.0164639261745  23.2194244604317 23.3339974832215  20.3462230215827 23.3384542785235  L 20.341726618705 23.3384542785235  C 19.8651079136691 23.3384542785235  19.4784172661871 23.7217386744966  19.4784172661871 24.1941589765101  L 19.4739208633093 33.9188863255034  L 17.6663669064748 33.9188863255034  L 17.6663669064748 25.6559878355705  C 17.6663669064748 25.183567533557  17.2796762589928 24.8002831375839  16.8030575539568 24.8002831375839  L 8.65107913669065 24.8002831375839  C 8.83992805755396 23.9401216442953  8.88938848920863 23.0309354026846  8.76348920863309 22.1172923657718  C 8.70053956834533 21.6493288590604  8.26438848920863 21.3195260067114  7.79226618705036 21.3819211409396  C 7.32014388489209 21.4443162751678  6.98741007194245 21.8766254194631  7.05035971223022 22.3445889261745  C 7.45953237410072 25.3172713926175  5.57104316546763 28.142879614094  2.65737410071942 28.9228187919463  C 2.2886690647482 29.0208682885906  2.01888489208633 29.3551279362416  2.01888489208633 29.7473259228188  L 2.01888489208633 33.9055159395973  L 0.206834532374101 33.9055159395973  L 0.206834532374101 17.9323615771812  C 0.206834532374101 14.9775062919463  2.63039568345324 12.5752936241611  5.60701438848921 13  L 17.3426258992806 13  C 19.2176258992806 12.5752936241611  20.7419064748201 11.0644400167785  20.7419064748201 9.20595637583893  L 20.7419064748201 3.53691275167785  C 20.7419064748201 3.2873322147651  20.6339928057554 3.06449244966443  20.4631294964029 2.90850461409396  C 19.6807553956835 2.1909605704698  19.5593525179856 1.00545302013423  20.1348920863309 0.149748322147651  C 20.3282374100719 0.867292365771812  20.7284172661871 1.53135486577181  21.3129496402878 2.03942953020134  C 21.4793165467626 2.18204697986577  21.681654676259 2.25335570469799  21.8839928057554 2.25335570469799  L 29.8291366906475 2.24889890939597  Z " fill-rule="nonzero" fill="#ffcc66" stroke="none" transform="matrix(1 0 0 1 34 30 )" />
  </g>
</svg>