<?xml version="1.0" encoding="utf-8"?>
<svg version="1.1" xmlns:xlink="http://www.w3.org/1999/xlink" width="16px" height="18px" xmlns="http://www.w3.org/2000/svg">
  <g transform="matrix(1 0 0 1 -40 -39 )">
    <path d="M 15.7618323858008 4.05812173148438  C 15.7651296871484 3.75147329783203  15.5178325634961 3.50417617417969  15.211184129668 3.50417617417969  L 12.4315644584375 3.50417617417969  L 12.4315644584375 1.28179936160156  C 12.4315644584375 0.668502494472656  11.9336729094336 0.170610945820312  11.3203760423047 0.17061094546875  L 4.65654288640625 0.17061094546875  C 4.04324601927734 0.17061094546875  3.545354470625 0.668502494472656  3.54535447027344 1.28179936160156  L 3.54535447027344 3.50417617417969  L 0.769032100390625 3.50417617417969  C 0.462383666738281 3.50417617417969  0.215086543085937 3.75147329800781  0.215086543261719 4.05812173148438  C 0.2150865434375 4.36477016496094  0.462383667089844 4.61206728878906  0.769032100390625 4.61206728878906  L 1.32297765751953 4.61206728878906  L 1.32297765751953 15.7206540893555  C 1.32297765751953 16.9472478232617  2.31876073601563 17.9397336199219  3.54535447027344 17.9397336199219  L 12.4315644584375 17.9397336199219  C 13.6581581923438 17.9397336199219  14.6539412711914 16.9439505414258  14.6539412710156 15.7206540893555  L 14.6539412710156 4.61206728878906  L 15.2078868281445 4.61206728878906  C 15.5145352617969 4.61206728878906  15.7618323854492 4.36477016496094  15.7618323858008 4.05812173148438  Z M 4.65654288640625 3.50417617417969  L 4.65654288640625 1.28179936160156  L 11.3203760423047 1.28179936160156  L 11.3203760423047 3.50417617417969  L 4.65654288640625 3.50417617417969  Z M 13.5427528743945 4.61206728878906  L 13.5427528743945 15.7239513907031  C 13.5427528743945 16.337248257832  13.0448613253906 16.8351398064844  12.4315644584375 16.8351398070117  L 3.54535447027344 16.8351398070117  C 2.93205760314453 16.8351398070117  2.43416605449219 16.3372482580078  2.43416607382813 15.7239513907031  L 2.43416607382813 4.61206728878906  L 13.5427528743945 4.61206728878906  Z M 9.10129653107422 12.9443317194727  C 9.10129653107422 13.250980153125  9.34859365490234 13.5015745783008  9.65524208837891 13.5015745783008  C 9.96189052203125 13.5015745783008  10.2091876456836 13.2542774544727  10.2091876455078 12.9443317194727  L 10.2091876455078 7.39168696019531  C 10.2091876455078 7.08503852654297  9.96189052167969 6.83774140289063  9.65524208837891 6.83774140289063  C 9.34859365507812 6.83774140289063  9.10129653107422 7.08503852671875  9.10129653107422 7.39168696019531  L 9.10129653107422 12.9443317194727  Z M 5.77102858455078 12.9443317194727  C 5.76773128320313 13.250980153125  6.01832570837891 13.5015745783008  6.32497414185547 13.5015745783008  C 6.63162257550781 13.5015745783008  6.87891969916016 13.2542774544727  6.87891969916016 12.9443317194727  L 6.87891969916016 7.39168696019531  C 6.87891969916016 7.08503852654297  6.63162257533203 6.83774140289063  6.32497414185547 6.83774140289063  C 6.01832570837891 6.83774140289063  5.77102858455078 7.08503852671875  5.77102858455078 7.39168696019531  L 5.77102858455078 12.9443317194727  Z " fill-rule="nonzero" fill="#e3e3e3" stroke="none" transform="matrix(1 0 0 1 40 39 )" />
  </g>
</svg>