<?xml version="1.0" encoding="utf-8"?>
<svg version="1.1" xmlns:xlink="http://www.w3.org/1999/xlink" width="29px" height="29px" xmlns="http://www.w3.org/2000/svg">
  <defs>
    <filter x="1091px" y="350px" width="29px" height="29px" filterUnits="userSpaceOnUse" id="filter6">
      <feOffset dx="0" dy="2" in="SourceAlpha" result="shadowOffsetInner" />
      <feGaussianBlur stdDeviation="1.5" in="shadowOffsetInner" result="shadowGaussian" />
      <feComposite in2="shadowGaussian" operator="atop" in="SourceAlpha" result="shadowComposite" />
      <feColorMatrix type="matrix" values="0 0 0 0 0.6  0 0 0 0 0.6  0 0 0 0 0.6  0 0 0 0.349019607843137 0  " in="shadowComposite" />
    </filter>
    <g id="widget7">
      <path d="M 1105.5 351  C 1111.94 351  1117 356.06  1117 362.5  C 1117 368.94  1111.94 374  1105.5 374  C 1099.06 374  1094 368.94  1094 362.5  C 1094 356.06  1099.06 351  1105.5 351  Z " fill-rule="nonzero" fill="#ffffff" stroke="none" />
      <path d="M 1105.5 351.5  C 1111.66 351.5  1116.5 356.34  1116.5 362.5  C 1116.5 368.66  1111.66 373.5  1105.5 373.5  C 1099.34 373.5  1094.5 368.66  1094.5 362.5  C 1094.5 356.34  1099.34 351.5  1105.5 351.5  Z " stroke-width="1" stroke="#ffffff" fill="none" />
    </g>
  </defs>
  <g transform="matrix(1 0 0 1 -1091 -350 )">
    <use xlink:href="#widget7" filter="url(#filter6)" />
    <use xlink:href="#widget7" />
  </g>
</svg>