<?xml version="1.0" encoding="utf-8"?>
<svg version="1.1" xmlns:xlink="http://www.w3.org/1999/xlink" width="184px" height="104px" xmlns="http://www.w3.org/2000/svg">
  <g transform="matrix(1 0 0 1 -99 -149 )">
    <path d="M 99 149  L 283 149  L 283 253  L 99 253  L 99 149  " fill-rule="nonzero" fill="#cccccc" stroke="none" />
    <path d="M 106 156  L 276 156  L 276 246  L 106 246  L 106 156  " fill-rule="nonzero" fill="#ffffff" stroke="none" />
    <path d="M 202.48 180.2  C 198.112 180.2  194.68 176.768  194.68 172.4  C 194.68 168.032  198.112 164.6  202.48 164.6  C 206.848 164.6  210.28 168.032  210.28 172.4  C 210.28 176.768  206.848 180.2  202.48 180.2  " fill-rule="nonzero" fill="#cccccc" stroke="none" />
    <path d="M 109 244  L 109 197.25  L 150.25 176  L 208 215.173913043478  L 241 188.75  L 274 215.173913043478  L 274 244  L 109 244  " fill-rule="nonzero" fill="#169bd5" stroke="none" />
  </g>
</svg>