<?xml version="1.0" encoding="utf-8"?>
<svg version="1.1" xmlns:xlink="http://www.w3.org/1999/xlink" width="10px" height="10px" xmlns="http://www.w3.org/2000/svg">
  <g transform="matrix(1 0 0 1 -656 -1063 )">
    <path d="M 3.50050403225806 5.99178427419355  L 4.5039314516129 5  L 3.50050403225806 4.00751008064516  C 3.43440860215054 3.9338877688172  3.40136088709677 3.84932795698925  3.40136088709677 3.75383064516129  C 3.40136088709677 3.65833333333333  3.43629032258065 3.57565524193548  3.50614919354839 3.50579637096774  C 3.57600806451613 3.4359375  3.65868615591398 3.40100806451613  3.75418346774194 3.40100806451613  C 3.84968077956989 3.40100806451613  3.93424059139785 3.43405577956989  4.00786290322581 3.50015120967742  L 5.00035282258064 4.50357862903226  L 5.99284274193548 3.50015120967742  C 6.09586693548387 3.40465389784946  6.21159274193548 3.37525201612903  6.34002016129032 3.41194556451613  C 6.46844758064516 3.44863911290323  6.55112567204301 3.53131720430108  6.58805443548387 3.65997983870968  C 6.62498319892473 3.78864247311828  6.5955813172043 3.90436827956989  6.49984879032258 4.00715725806452  L 5.49642137096774 4.99964717741936  L 6.49984879032258 5.99213709677419  C 6.59534610215054 6.09516129032258  6.62474798387097 6.21088709677419  6.58805443548387 6.33931451612903  C 6.55136088709677 6.46774193548387  6.46868279569892 6.55042002688172  6.34002016129032 6.58734879032258  C 6.21135752688172 6.62427755376344  6.09563172043011 6.59487567204301  5.99284274193548 6.49914314516129  L 5.00035282258064 5.49571572580645  L 4.0078629032258 6.49914314516129  C 3.93424059139785 6.56523857526882  3.84968077956989 6.59828629032258  3.75418346774193 6.59828629032258  C 3.65868615591398 6.59828629032258  3.57600806451613 6.56335685483871  3.50614919354839 6.49349798387097  C 3.43629032258064 6.42363911290322  3.40136088709677 6.34096102150538  3.40136088709677 6.24546370967742  C 3.40136088709677 6.14996639784946  3.43440860215054 6.0654065860215  3.50050403225806 5.99178427419355  Z M 2.00665322580645 7.99334677419355  C 2.80426747311828 8.79072580645161  3.8020497311828 9.20423387096774  5 9.23387096774194  C 6.19818548387097 9.20446908602151  7.19596774193549 8.79096102150538  7.99334677419355 7.99334677419355  C 8.79072580645161 7.19573252688172  9.20423387096774 6.19795026881721  9.23387096774194 5  C 9.20446908602151 3.80181451612903  8.79096102150538 2.80403225806452  7.99334677419355 2.00665322580645  C 7.19573252688172 1.20927419354839  6.19795026881721 0.795766129032259  5 0.766129032258065  C 3.80181451612903 0.795530913978495  2.80403225806452 1.20903897849462  2.00665322580645 2.00665322580645  C 1.20927419354839 2.80426747311828  0.795766129032259 3.8020497311828  0.766129032258065 5  C 0.795530913978495 6.19818548387097  1.20903897849462 7.19596774193549  2.00665322580645 7.99334677419355  Z M 8.48976814516129 8.48976814516129  C 7.55996303763441 9.41957325268817  6.39670698924731 9.90282258064516  5 9.93951612903226  C 3.60329301075269 9.90282258064516  2.44003696236559 9.41957325268817  1.51023185483871 8.48976814516129  C 0.580426747311828 7.55996303763441  0.0971774193548384 6.39670698924731  0.0604838709677419 5  C 0.0971774193548387 3.60329301075269  0.580426747311828 2.44003696236559  1.51023185483871 1.51023185483871  C 2.44003696236559 0.580426747311828  3.60329301075269 0.0971774193548384  5 0.0604838709677419  C 6.39670698924731 0.0971774193548387  7.55996303763441 0.580426747311828  8.48976814516129 1.51023185483871  C 9.41957325268817 2.44003696236559  9.90282258064516 3.60329301075269  9.93951612903226 5  C 9.90282258064516 6.39670698924731  9.41957325268817 7.55996303763441  8.48976814516129 8.48976814516129  Z " fill-rule="nonzero" fill="#000000" stroke="none" transform="matrix(1 0 0 1 656 1063 )" />
  </g>
</svg>