<?xml version="1.0" encoding="utf-8"?>
<svg version="1.1" xmlns:xlink="http://www.w3.org/1999/xlink" width="50px" height="51px" xmlns="http://www.w3.org/2000/svg">
  <g transform="matrix(1 0 0 1 -1724 -474 )">
    <path d="M 1724 474  L 1774 474  L 1774 525  L 1724 525  L 1724 474  " fill-rule="nonzero" fill="#cccccc" stroke="none" />
    <path d="M 1728 478  L 1770 478  L 1770 521  L 1728 521  L 1728 478  " fill-rule="nonzero" fill="#ffffff" stroke="none" />
    <path d="M 1753.75 489.15  C 1751.65 489.15  1750 487.5  1750 485.4  C 1750 483.3  1751.65 481.65  1753.75 481.65  C 1755.85 481.65  1757.5 483.3  1757.5 485.4  C 1757.5 487.5  1755.85 489.15  1753.75 489.15  " fill-rule="nonzero" fill="#cccccc" stroke="none" />
    <path d="M 1730 520  L 1730 498  L 1739.75 488  L 1753.4 496  L 1761.2 494  L 1769 496  L 1769 520  L 1730 520  " fill-rule="nonzero" fill="#169bd5" stroke="none" />
  </g>
</svg>