<?xml version="1.0" encoding="utf-8"?>
<svg version="1.1" xmlns:xlink="http://www.w3.org/1999/xlink" width="16px" height="16px" xmlns="http://www.w3.org/2000/svg">
  <g transform="matrix(1 0 0 1 -274 -133 )">
    <path d="M 2.90909090909091 11.6363636363636  L 4.36363636363636 11.6363636363636  L 4.36363636363636 13.0909090909091  L 2.90909090909091 13.0909090909091  L 2.90909090909091 11.6363636363636  Z M 2.90909090909091 2.90909090909091  L 4.36363636363636 2.90909090909091  L 4.36363636363636 4.36363636363636  L 2.90909090909091 4.36363636363636  L 2.90909090909091 2.90909090909091  Z M 11.6363636363636 2.90909090909091  L 13.0909090909091 2.90909090909091  L 13.0909090909091 4.36363636363636  L 11.6363636363636 4.36363636363636  L 11.6363636363636 2.90909090909091  Z M 1.45454545454545 10.1818181818182  L 1.45454545454545 14.5340909090909  L 5.81818181818182 14.5340909090909  L 5.81818181818182 10.1818181818182  L 1.45454545454545 10.1818181818182  Z M 1.45454545454545 1.45454545454546  L 1.45454545454545 5.81818181818182  L 5.81818181818182 5.81818181818182  L 5.81818181818182 1.45454545454546  L 1.45454545454545 1.45454545454546  Z M 10.1818181818182 1.45454545454546  L 10.1818181818182 5.81818181818182  L 14.5454545454545 5.81818181818182  L 14.5454545454545 1.45454545454546  L 10.1818181818182 1.45454545454546  Z M 0 8.72727272727273  L 7.27272727272727 8.72727272727273  L 7.27272727272727 16  L 0 16  L 0 8.72727272727273  Z M 11.6363636363636 14.5454545454545  L 13.0909090909091 14.5454545454545  L 13.0909090909091 16  L 11.6363636363636 16  L 11.6363636363636 14.5454545454545  Z M 14.5454545454545 14.5454545454545  L 16 14.5454545454545  L 16 16  L 14.5454545454545 16  L 14.5454545454545 14.5454545454545  Z M 14.5454545454545 8.72727272727273  L 16 8.72727272727273  L 16 13.0909090909091  L 11.6363636363636 13.0909090909091  L 11.6363636363636 11.6363636363636  L 10.1818181818182 11.6363636363636  L 10.1818181818182 16  L 8.72727272727273 16  L 8.72727272727273 8.72727272727273  L 13.0909090909091 8.72727272727273  L 13.0909090909091 10.1818181818182  L 14.5454545454545 10.1818181818182  L 14.5454545454545 8.72727272727273  Z M 0 0  L 7.27272727272727 0  L 7.27272727272727 7.27272727272727  L 0 7.27272727272727  L 0 0  Z M 8.72727272727273 0  L 16 0  L 16 7.27272727272727  L 8.72727272727273 7.27272727272727  L 8.72727272727273 0  Z " fill-rule="nonzero" fill="#ffffff" stroke="none" transform="matrix(1 0 0 1 274 133 )" />
  </g>
</svg>