<?xml version="1.0" encoding="utf-8"?>
<svg version="1.1" xmlns:xlink="http://www.w3.org/1999/xlink" width="49px" height="55px" xmlns="http://www.w3.org/2000/svg">
  <g transform="matrix(1 0 0 1 -97 -173 )">
    <path d="M 97 173  L 146 173  L 146 228  L 97 228  L 97 173  " fill-rule="nonzero" fill="#cccccc" stroke="none" />
    <path d="M 100 176  L 143 176  L 143 225  L 100 225  L 100 176  " fill-rule="nonzero" fill="#ffffff" stroke="none" />
    <path d="M 126.155 188.6  C 124.097 188.6  122.48 186.983  122.48 184.925  C 122.48 182.867  124.097 181.25  126.155 181.25  C 128.213 181.25  129.83 182.867  129.83 184.925  C 129.83 186.983  128.213 188.6  126.155 188.6  " fill-rule="nonzero" fill="#cccccc" stroke="none" />
    <path d="M 101 224  L 101 198.15  L 111.25 186.4  L 125.6 195.8  L 133.8 193.45  L 142 195.8  L 142 224  L 101 224  " fill-rule="nonzero" fill="#169bd5" stroke="none" />
  </g>
</svg>