<?xml version="1.0" encoding="utf-8"?>
<svg version="1.1" xmlns:xlink="http://www.w3.org/1999/xlink" width="15px" height="9px" xmlns="http://www.w3.org/2000/svg">
  <g transform="matrix(1 0 0 1 -1391 -30 )">
    <path d="M 13.8257635416667 8.6280136875  C 12.8021982638889 9.11169549264706  9.7750171875 9.02342216911765  0.315770138888889 8.57811358455882  C 0.315770138888889 8.57811358455882  -0.677947465277779 3.63356136397059  1.36305645833333 2.93940089338235  C 1.36305645833333 2.93940089338235  0.800401875000001 1.21954361029412  3.35290045138889 0.993296514705884  C 3.35290045138889 0.993296514705884  5.0183475 -1.08000324264706  11.2075477430556 0.793696069852943  C 11.2075477430556 0.793696069852943  12.2199070486111 1.211859  12.8308415277778 2.14099908088235  C 12.8308415277778 2.14099908088235  14.4137624305556 3.06115716176471  14.5588639583333 3.58810236397059  C 14.7039654861111 4.11504756617647  15.287618125 6.44203948897059  14.6635925694444 7.1809104375  C 14.6635925694444 7.1809104375  14.7797889930556 8.17721609558824  13.8257635416667 8.6280136875  Z " fill-rule="nonzero" fill="#714b20" stroke="none" transform="matrix(1 0 0 1 1391 30 )" />
  </g>
</svg>