<?xml version="1.0" encoding="utf-8"?>
<svg version="1.1" xmlns:xlink="http://www.w3.org/1999/xlink" width="17px" height="17px" xmlns="http://www.w3.org/2000/svg">
  <g transform="matrix(1 0 0 1 -1390 -34 )">
    <path d="M 8.28305991532258 16.5734314415323  C 11.354761125 16.5734314758065  11.5394446693548 13.6086740443548  11.5394446693548 12.7484715766129  C 11.5394446693548 12.7484715766129  13.1007519516129 13.0110499092742  14.5373861693548 9.0268889858871  C 14.5373861693548 9.0268889858871  18.2663085443548 7.07853711693549  15.7262250625 5.20192912096774  C 15.7262250625 5.20192912096774  14.9329077237903 2.28612085887097  12.676594891129 0.808394145161291  C 10.4202820584677 -0.669332568548388  7.95985080846774 1.0288979233871  7.81786207862903 2.25567625806452  C 7.81786207862903 2.25567625806452  3.07444664112903 1.93195026209678  1.40846987903225 4.99517453830645  C 1.40846987903225 4.99517453830645  -1.31583194354839 6.46230507661291  2.4422428266129 8.76844576612903  C 2.4422428266129 8.76844576612903  4.03999060282258 12.3721782217742  5.54356163508064 12.6967829052419  C 5.54356163508064 12.6967829052419  5.21135870564516 16.5734314072581  8.28305991532258 16.5734314415323  Z " fill-rule="nonzero" fill="#efd7b5" stroke="none" transform="matrix(1 0 0 1 1390 34 )" />
  </g>
</svg>