<?xml version="1.0" encoding="utf-8"?>
<svg version="1.1" xmlns:xlink="http://www.w3.org/1999/xlink" width="17px" height="17px" xmlns="http://www.w3.org/2000/svg">
  <g transform="matrix(1 0 0 1 -577 -560 )">
    <path d="M 585.5 560  C 590.26 560  594 563.74  594 568.5  C 594 573.26  590.26 577  585.5 577  C 580.74 577  577 573.26  577 568.5  C 577 563.74  580.74 560  585.5 560  Z " fill-rule="nonzero" fill="#ffffff" stroke="none" />
    <path d="M 585.5 560.5  C 589.98 560.5  593.5 564.02  593.5 568.5  C 593.5 572.98  589.98 576.5  585.5 576.5  C 581.02 576.5  577.5 572.98  577.5 568.5  C 577.5 564.02  581.02 560.5  585.5 560.5  Z " stroke-width="1" stroke="#409eff" fill="none" />
  </g>
</svg>