<?xml version="1.0" encoding="utf-8"?>
<svg version="1.1" xmlns:xlink="http://www.w3.org/1999/xlink" width="14px" height="16px" xmlns="http://www.w3.org/2000/svg">
  <g transform="matrix(1 0 0 1 -556 -1609 )">
    <path d="M 13.99253125 7.97736283185841  C 13.99253125 12.347982300885  10.8645 15.8913274336283  7.006 15.8913274336283  C 3.147359375 15.8913274336283  0.0194531250000054 12.3479646017699  0.0194531250000054 7.97734513274335  C 0.0194531250000054 3.60667256637169  3.147359375 0.0633982300884952  7.006 0.0633982300884952  C 10.8645 0.0633982300884952  13.99253125 3.60667256637169  13.99253125 7.97736283185841  Z M 13.20078125 7.97736283185841  C 13.20078125 4.10192920353981  10.42728125 0.960230088495564  7.006 0.960230088495564  C 3.58471875000001 0.960230088495564  0.811187499999996 4.10185840707965  0.811187499999996 7.97736283185841  C 0.811187499999996 11.852796460177  3.58471875000001 14.9944778761062  7.006 14.9944778761062  C 10.42728125 14.9944778761062  13.20078125 11.852796460177  13.20078125 7.97736283185841  Z M 10.3863125 9.34044247787611  C 10.592828125 9.44989380530973  10.681390625 9.72769911504426  10.584765625 9.96164601769911  C 10.488546875 10.1951504424779  10.242890625 10.2954513274336  10.03675 10.1860353982301  L 6.75368750000001 8.94277876106196  C 6.59665625 8.8597168141593  6.50923437499999 8.67906194690266  6.51806249999999 8.49438938053098  C 6.51607812500001 8.47569911504425  6.5085 8.46017699115043  6.5085 8.44093805309734  L 6.5085 3.30368141592919  C 6.5085 3.04552212389382  6.692875 2.83660176991151  6.92078125000002 2.83660176991151  C 7.14867187500001 2.83660176991151  7.33304687500001 3.04552212389382  7.33304687500001 3.30368141592919  L 7.33304687500001 8.18380530973451  L 10.3863125 9.34044247787611  Z " fill-rule="nonzero" fill="#d7d7d7" stroke="none" transform="matrix(1 0 0 1 556 1609 )" />
  </g>
</svg>