<?xml version="1.0" encoding="utf-8"?>
<svg version="1.1" xmlns:xlink="http://www.w3.org/1999/xlink" width="11px" height="11px" xmlns="http://www.w3.org/2000/svg">
  <g transform="matrix(1 0 0 1 -432 -161 )">
    <path d="M 9.83842697657394 9.72822565885798  L 5.76983620058565 5.65938323572474  L 9.83830618594437 1.5905508784773  C 10.0439993330055 1.38328469427664  10.0439993330055 1.04890509342467  9.83830618594436 0.841638909224011  L 9.81599011713031 0.819322840409955  C 9.60865326993181 0.61368691323094  9.27429420444594 0.61368691323094  9.06695735724744 0.819322840409955  L 4.99823572474378 4.89328879941435  L 0.92940336749634 0.817611639824304  C 0.722110069702795 0.611984315548212  0.387784696036591 0.611984315548212  0.180491398243046 0.817611639824304  L 0.15817532942899 0.83992770863836  C 0.0570737173659489 0.938306775474439  4.08683855173977E-05 1.07338184412186  4.08683855173977E-05 1.21444912152269  C 4.08683855173977E-05 1.35551639892353  0.0570737173659489 1.49059146757095  0.15817532942899 1.58897053440703  L 4.22700768667643 5.65938323572474  L 0.15817532942899 9.72821559297218  C -0.0474586515947565 9.93551007358262  -0.0474586515947555 10.2698431475008  0.15817532942899 10.4771376281113  L 0.180491398243046 10.4994536969253  C 0.387757582443706 10.7051468439865  0.72213718329568 10.7051468439865  0.92940336749634 10.4994536969253  L 4.99823572474378 6.43062133967789  L 9.06706808199122 10.4994536969253  C 9.27437674833237 10.7051675727691  9.60880224141874 10.7051675727691  9.81611090775989 10.4994536969253  L 9.83842697657394 10.4771376281113  C 10.0441201236351 10.2698714439106  10.0441201236351 9.93549184305864  9.83842697657394 9.72822565885798  Z " fill-rule="nonzero" fill="#aaaaaa" stroke="none" transform="matrix(1 0 0 1 432 161 )" />
  </g>
</svg>