<?xml version="1.0" encoding="utf-8"?>
<svg version="1.1" xmlns:xlink="http://www.w3.org/1999/xlink" width="394px" height="224px" xmlns="http://www.w3.org/2000/svg">
  <g transform="matrix(1 0 0 1 -508 -199 )">
    <path d="M 509 209  A 9 9 0 0 1 518 200 L 892 200  A 9 9 0 0 1 901 209 L 901 413  A 9 9 0 0 1 892 422 L 518 422  A 9 9 0 0 1 509 413 L 509 209  Z " fill-rule="nonzero" fill="#ffffff" stroke="none" />
    <path d="M 508.5 209  A 9.5 9.5 0 0 1 518 199.5 L 892 199.5  A 9.5 9.5 0 0 1 901.5 209 L 901.5 413  A 9.5 9.5 0 0 1 892 422.5 L 518 422.5  A 9.5 9.5 0 0 1 508.5 413 L 508.5 209  Z " stroke-width="1" stroke="#797979" fill="none" stroke-opacity="0.388235294117647" />
  </g>
</svg>