<?xml version="1.0" encoding="utf-8"?>
<svg version="1.1" xmlns:xlink="http://www.w3.org/1999/xlink" width="12px" height="12px" viewBox="695 323  12 12" xmlns="http://www.w3.org/2000/svg">
  <path d="M 701 323  C 704.36 323  707 325.64  707 329  C 707 332.36  704.36 335  701 335  C 697.64 335  695 332.36  695 329  C 695 325.64  697.64 323  701 323  Z " fill-rule="nonzero" fill="#ffffff" stroke="none" />
  <path d="M 701 323.5  C 704.08 323.5  706.5 325.92  706.5 329  C 706.5 332.08  704.08 334.5  701 334.5  C 697.92 334.5  695.5 332.08  695.5 329  C 695.5 325.92  697.92 323.5  701 323.5  Z " stroke-width="1" stroke="#797979" fill="none" />
  <path d="M 701 332  C 699.32 332  698 330.68  698 329  C 698 327.32  699.32 326  701 326  C 702.68 326  704 327.32  704 329  C 704 330.68  702.68 332  701 332  " fill-rule="nonzero" fill="#797979" stroke="none" />
</svg>