<svg t="1557213076683" class="icon" viewBox="0 0 1024 1024" version="1.1" xmlns="http://www.w3.org/2000/svg" p-id="3213" height="14" width="14"><path d="M924 337.3c-22.5-53.3-54.8-101.1-95.9-142.2-41.1-41.1-88.9-73.3-142.2-95.9C630.8 76 572.2 64.1 511.8 64.1c-60.4 0-119 11.8-174.1 35.2-53.3 22.5-101.1 54.8-142.2 95.9-41.1 41.1-73.3 88.9-95.9 142.2-23.3 55.2-35.2 113.7-35.2 174.1 0 60.4 11.8 119 35.2 174.1 22.5 53.3 54.8 101.1 95.9 142.2 41.1 41.1 88.9 73.3 142.2 95.9 55.2 23.3 113.7 35.2 174.1 35.2 60.4 0 119-11.8 174.1-35.2 53.3-22.5 101.1-54.8 142.2-95.9 41.1-41.1 73.3-88.9 95.9-142.2 23.3-55.2 35.2-113.7 35.2-174.1-0.1-60.4-11.9-119-35.2-174.2z m-57.4 324c-19.4 45.8-47.2 87-82.5 122.4-35.1 35.2-76.6 63.2-122.4 82.5-47.5 20.1-97.9 30.3-149.9 30.3s-102.4-10.2-149.9-30.3c-45.9-19.4-87-47.2-122.4-82.5-35.2-35.1-63.2-76.7-82.5-122.4-20.1-47.5-30.3-97.9-30.3-149.9S136.9 409 157 361.5c19.3-45.8 47.4-87.3 82.5-122.4 35.1-35.2 76.6-63.2 122.4-82.5 47.5-20.1 97.9-30.3 149.9-30.3s102.4 10.2 149.9 30.3c45.9 19.4 87 47.2 122.4 82.5 35.2 35.1 63.2 76.6 82.5 122.4 20.1 47.5 30.3 97.9 30.3 149.9s-10.2 102.5-30.3 149.9z m0 0" fill="#999999" p-id="3214"></path><path d="M549.7 580.2c-2.6 28.1-20.4 41.2-38 41.2-13.1 0 0 0 0 0-16.7-3.2-29.7-10.3-35.4-38.7l-23-265.4c0-26.7 32.4-50.3 59.9-50.3s57.2 24.7 57.2 51.3l-20.7 261.9z m-37.9 75.9c-27.5 0-49.9 22.3-49.9 49.9 0 27.5 22.3 49.9 49.9 49.9 27.5 0 49.9-22.3 49.9-49.9-0.1-27.5-22.4-49.9-49.9-49.9z m0 0" fill="#999999" p-id="3215"></path></svg>