<?xml version="1.0" encoding="utf-8"?>
<svg version="1.1" xmlns:xlink="http://www.w3.org/1999/xlink" width="181px" height="29px" xmlns="http://www.w3.org/2000/svg">
  <defs>
    <mask fill="white" id="clip197">
      <path d="M 0 24  L 0 5  C 0 2.2  2.31511627906977 0  5.26162790697674 0  L 175.738372093023 0  C 178.68488372093 0  181 2.2  181 5  L 181 24  C 181 26.8  178.68488372093 29  175.738372093023 29  L 66.672342192691 29  L 5.26162790697674 29  C 2.31511627906977 29  0 26.8  0 24  Z " fill-rule="evenodd" />
    </mask>
  </defs>
  <g transform="matrix(1 0 0 1 0 -1 )">
    <path d="M 0 24  L 0 5  C 0 2.2  2.31511627906977 0  5.26162790697674 0  L 175.738372093023 0  C 178.68488372093 0  181 2.2  181 5  L 181 24  C 181 26.8  178.68488372093 29  175.738372093023 29  L 66.672342192691 29  L 5.26162790697674 29  C 2.31511627906977 29  0 26.8  0 24  Z " fill-rule="nonzero" fill="#ffffff" stroke="none" transform="matrix(1 0 0 1 0 1 )" />
    <path d="M 0 24  L 0 5  C 0 2.2  2.31511627906977 0  5.26162790697674 0  L 175.738372093023 0  C 178.68488372093 0  181 2.2  181 5  L 181 24  C 181 26.8  178.68488372093 29  175.738372093023 29  L 66.672342192691 29  L 5.26162790697674 29  C 2.31511627906977 29  0 26.8  0 24  Z " stroke-width="2" stroke="#dedfe2" fill="none" transform="matrix(1 0 0 1 0 1 )" mask="url(#clip197)" />
  </g>
</svg>