<?xml version="1.0" encoding="utf-8"?>
<svg version="1.1" xmlns:xlink="http://www.w3.org/1999/xlink" width="191px" height="39px" xmlns="http://www.w3.org/2000/svg">
  <defs>
    <mask fill="white" id="clip155">
      <path d="M 0 24  L 0 5  C 0 2.2  2.31511627906977 0  5.26162790697674 0  L 175.738372093023 0  C 178.68488372093 0  181 2.2  181 5  L 181 24  C 181 26.8  178.68488372093 29  175.738372093023 29  L 66.672342192691 29  L 5.26162790697674 29  C 2.31511627906977 29  0 26.8  0 24  Z " fill-rule="evenodd" />
    </mask>
    <filter x="-5px" y="-4px" width="191px" height="39px" filterUnits="userSpaceOnUse" id="filter156">
      <feOffset dx="0" dy="0" in="SourceAlpha" result="shadowOffsetInner" />
      <feGaussianBlur stdDeviation="2.5" in="shadowOffsetInner" result="shadowGaussian" />
      <feComposite in2="shadowGaussian" operator="atop" in="SourceAlpha" result="shadowComposite" />
      <feColorMatrix type="matrix" values="0 0 0 0 0.188235294117647  0 0 0 0 0.815686274509804  0 0 0 0 0.776470588235294  0 0 0 1 0  " in="shadowComposite" />
    </filter>
    <g id="widget157">
      <path d="M 0 24  L 0 5  C 0 2.2  2.31511627906977 0  5.26162790697674 0  L 175.738372093023 0  C 178.68488372093 0  181 2.2  181 5  L 181 24  C 181 26.8  178.68488372093 29  175.738372093023 29  L 66.672342192691 29  L 5.26162790697674 29  C 2.31511627906977 29  0 26.8  0 24  Z " fill-rule="nonzero" fill="#ffffff" stroke="none" transform="matrix(1 0 0 1 0 1 )" />
      <path d="M 0 24  L 0 5  C 0 2.2  2.31511627906977 0  5.26162790697674 0  L 175.738372093023 0  C 178.68488372093 0  181 2.2  181 5  L 181 24  C 181 26.8  178.68488372093 29  175.738372093023 29  L 66.672342192691 29  L 5.26162790697674 29  C 2.31511627906977 29  0 26.8  0 24  Z " stroke-width="2" stroke="#20b9b0" fill="none" transform="matrix(1 0 0 1 0 1 )" mask="url(#clip155)" />
    </g>
  </defs>
  <g transform="matrix(1 0 0 1 5 4 )">
    <use xlink:href="#widget157" filter="url(#filter156)" />
    <use xlink:href="#widget157" />
  </g>
</svg>