<?xml version="1.0" encoding="utf-8"?>
<svg version="1.1" xmlns:xlink="http://www.w3.org/1999/xlink" width="92px" height="26px" xmlns="http://www.w3.org/2000/svg">
  <g transform="matrix(1 0 0 1 -272 -80 )">
    <path d="M 273 93  A 12 12 0 0 1 285 81 L 351 81  A 12 12 0 0 1 363 93 A 12 12 0 0 1 351 105 L 285 105  A 12 12 0 0 1 273 93 Z " fill-rule="nonzero" fill="#ffffff" stroke="none" />
    <path d="M 272.5 93  A 12.5 12.5 0 0 1 285 80.5 L 351 80.5  A 12.5 12.5 0 0 1 363.5 93 A 12.5 12.5 0 0 1 351 105.5 L 285 105.5  A 12.5 12.5 0 0 1 272.5 93 Z " stroke-width="1" stroke="#797979" fill="none" stroke-opacity="0.607843137254902" />
  </g>
</svg>