<?xml version="1.0" encoding="utf-8"?>
<svg version="1.1" xmlns:xlink="http://www.w3.org/1999/xlink" width="86px" height="26px" xmlns="http://www.w3.org/2000/svg">
  <g transform="matrix(1 0 0 1 -10 -80 )">
    <path d="M 11 93  A 12 12 0 0 1 23 81 L 83 81  A 12 12 0 0 1 95 93 A 12 12 0 0 1 83 105 L 23 105  A 12 12 0 0 1 11 93 Z " fill-rule="nonzero" fill="#ffffff" stroke="none" />
    <path d="M 10.5 93  A 12.5 12.5 0 0 1 23 80.5 L 83 80.5  A 12.5 12.5 0 0 1 95.5 93 A 12.5 12.5 0 0 1 83 105.5 L 23 105.5  A 12.5 12.5 0 0 1 10.5 93 Z " stroke-width="1" stroke="#797979" fill="none" stroke-opacity="0.607843137254902" />
  </g>
</svg>