<?xml version="1.0" encoding="utf-8"?>
<svg version="1.1" xmlns:xlink="http://www.w3.org/1999/xlink" width="61px" height="61px" xmlns="http://www.w3.org/2000/svg">
  <g transform="matrix(1 0 0 1 -820 -182 )">
    <path d="M 42.6183035714286 53.6643415178571  C 46.3627232142857 51.6786644345238  49.4376860119048 48.9838169642857  51.8431919642857 45.5797991071429  C 51.3439360119048 42.0623139880952  50.3510974702381 39.1405319940476  48.8646763392857 36.814453125  C 47.3782552083333 34.4883742559524  45.2847842261905 33.1437872023809  42.5842633928571 32.7806919642857  C 41.0638020833333 34.4600074404762  39.2539992559524 35.7705543154762  37.1548549107143 36.7123325892857  C 35.0557105654762 37.6541108630952  32.8374255952381 38.125  30.5 38.125  C 28.1625744047619 38.125  25.9442894345238 37.6541108630952  23.8451450892857 36.7123325892857  C 21.7460007440476 35.7705543154762  19.9361979166667 34.4600074404762  18.4157366071429 32.7806919642857  C 15.7152157738095 33.1437872023809  13.6217447916667 34.4883742559524  12.1353236607143 36.814453125  C 10.6489025297619 39.1405319940476  9.65606398809524 42.0623139880952  9.15680803571429 45.5797991071429  C 11.5623139880952 48.9838169642857  14.6372767857143 51.6786644345238  18.3816964285714 53.6643415178571  C 22.1261160714286 55.6500186011905  26.1655505952381 56.6428571428571  30.5 56.6428571428571  C 34.8344494047619 56.6428571428571  38.8738839285714 55.6500186011905  42.6183035714286 53.6643415178571  Z M 39.7419084821429 31.0276227678571  C 42.294921875 28.474609375  43.5714285714286 25.3939732142857  43.5714285714286 21.7857142857143  C 43.5714285714286 18.1774553571429  42.294921875 15.0968191964286  39.7419084821429 12.5438058035714  C 37.1888950892857 9.99079241071428  34.1082589285714 8.71428571428572  30.5 8.71428571428572  C 26.8917410714286 8.71428571428572  23.8111049107143 9.99079241071428  21.2580915178571 12.5438058035714  C 18.705078125 15.0968191964286  17.4285714285714 18.1774553571429  17.4285714285714 21.7857142857143  C 17.4285714285714 25.3939732142857  18.705078125 28.474609375  21.2580915178571 31.0276227678571  C 23.8111049107143 33.5806361607143  26.8917410714286 34.8571428571429  30.5 34.8571428571429  C 34.1082589285714 34.8571428571429  37.1888950892857 33.5806361607143  39.7419084821429 31.0276227678571  Z M 58.5831473214286 18.6540178571429  C 60.1943824404762 22.4211309523809  61 26.3697916666667  61 30.5  C 61 34.6302083333333  60.1943824404762 38.5731956845238  58.5831473214286 42.3289620535714  C 56.971912202381 46.084728422619  54.8103608630952 49.3298921130952  52.0984933035714 52.064453125  C 49.3866257440476 54.7990141369048  46.1471354166667 56.971912202381  42.3800223214286 58.5831473214286  C 38.6129092261905 60.1943824404762  34.6529017857143 61  30.5 61  C 26.3697916666667 61  22.421130952381 60.1943824404762  18.6540178571429 58.5831473214286  C 14.8869047619048 56.971912202381  11.6417410714286 54.8046875  8.91852678571429 52.0814732142857  C 6.1953125 49.3582589285714  4.02808779761905 46.1130952380952  2.41685267857143 42.3459821428571  C 0.805617559523809 38.578869047619  0 34.6302083333333  0 30.5  C 0 26.3697916666667  0.805617559523809 22.4211309523809  2.41685267857143 18.6540178571429  C 4.02808779761905 14.8869047619048  6.1953125 11.6417410714286  8.91852678571429 8.91852678571428  C 11.6417410714286 6.1953125  14.8869047619048 4.02808779761905  18.6540178571429 2.41685267857143  C 22.421130952381 0.805617559523809  26.3697916666667 0  30.5 0  C 34.6302083333333 0  38.5788690476191 0.805617559523809  42.3459821428571 2.41685267857143  C 46.1130952380952 4.02808779761905  49.3582589285714 6.1953125  52.0814732142857 8.91852678571428  C 54.8046875 11.6417410714286  56.971912202381 14.8869047619048  58.5831473214286 18.6540178571429  Z " fill-rule="nonzero" fill="#ffffff" stroke="none" transform="matrix(1 0 0 1 820 182 )" />
  </g>
</svg>