<?xml version="1.0" encoding="utf-8"?>
<svg version="1.1" xmlns:xlink="http://www.w3.org/1999/xlink" width="14px" height="22px" xmlns="http://www.w3.org/2000/svg">
  <g transform="matrix(1 0 0 1 -1102 -202 )">
    <path d="M 13.7594501718213 10.4929859719439  C 13.9198167239404 10.6399465597862  14 10.8089512358049  14 11  C 14 11.1910487641951  13.9198167239404 11.3600534402138  13.7594501718213 11.5070140280561  L 2.54982817869416 21.7795591182365  C 2.38946162657503 21.9265197060788  2.20504009163803 22  1.99656357388316 22  C 1.78808705612829 22  1.60366552119129 21.9265197060788  1.44329896907216 21.7795591182365  L 0.240549828178694 20.6773547094188  C 0.0801832760595648 20.5303941215765  0 20.3613894455578  0 20.1703406813627  C 0 19.9792919171677  0.0801832760595648 19.810287241149  0.240549828178694 19.6633266533066  L 9.69415807560137 11  L 0.240549828178694 2.33667334669339  C 0.0801832760595648 2.18971275885103  0 2.02070808283233  0 1.82965931863728  C 0 1.63861055444221  0.0801832760595648 1.46960587842351  0.240549828178694 1.32264529058116  L 1.44329896907216 0.220440881763527  C 1.60366552119129 0.0734802939211749  1.78808705612829 0  1.99656357388316 0  C 2.20504009163803 0  2.38946162657503 0.0734802939211749  2.54982817869416 0.220440881763527  L 13.7594501718213 10.4929859719439  Z " fill-rule="nonzero" fill="#ffffff" stroke="none" transform="matrix(1 0 0 1 1102 202 )" />
  </g>
</svg>