<?xml version="1.0" encoding="utf-8"?>
<svg version="1.1" xmlns:xlink="http://www.w3.org/1999/xlink" width="321px" height="236px" xmlns="http://www.w3.org/2000/svg">
  <g transform="matrix(1 0 0 1 -118 -227 )">
    <path d="M 118 227  L 439 227  L 439 463  L 118 463  L 118 227  " fill-rule="nonzero" fill="#cccccc" stroke="none" />
    <path d="M 135 244  L 422 244  L 422 446  L 135 446  L 135 244  " fill-rule="nonzero" fill="#ffffff" stroke="none" />
    <path d="M 302.62 297.8  C 292.708 297.8  284.92 290.012  284.92 280.1  C 284.92 270.188  292.708 262.4  302.62 262.4  C 312.532 262.4  320.32 270.188  320.32 280.1  C 320.32 290.012  312.532 297.8  302.62 297.8  " fill-rule="nonzero" fill="#cccccc" stroke="none" />
    <path d="M 141 440  L 141 335.5  L 209.75 288  L 306 356.18691588785  L 361 316.5  L 416 356.18691588785  L 416 440  L 141 440  " fill-rule="nonzero" fill="#169bd5" stroke="none" />
  </g>
</svg>